{"glyphs":{"0":{"ha":1240,"x_min":69,"x_max":1171,"o":"m 621 -19 q 327 48 452 -19 q 136 237 203 115 q 69 521 69 359 q 136 805 69 683 q 327 994 203 927 q 621 1061 452 1061 q 913 994 789 1061 q 1104 805 1038 927 q 1171 521 1171 683 q 1104 237 1171 359 q 913 48 1038 115 q 621 -19 789 -19 m 254 521 q 298 311 254 399 q 423 178 341 224 q 621 132 506 132 q 818 178 735 132 q 943 311 900 224 q 986 521 986 399 q 943 731 986 643 q 818 864 900 818 q 621 910 735 910 q 423 864 506 910 q 298 731 341 818 q 254 521 254 643 z "},"1":{"ha":654,"x_min":13,"x_max":532,"o":"m 532 0 l 349 0 l 349 880 l 13 821 l 13 967 l 394 1042 l 532 1042 l 532 0 z "},"2":{"ha":1096,"x_min":58,"x_max":1038,"o":"m 58 683 q 132 882 67 797 q 308 1014 198 967 q 558 1061 419 1061 q 792 1019 690 1061 q 949 902 893 978 q 1006 729 1006 827 q 969 588 1006 652 q 849 456 932 523 q 621 303 767 389 l 367 153 l 1038 153 l 1038 0 l 68 0 l 68 133 l 511 403 q 698 527 632 476 q 792 623 763 578 q 821 721 821 669 q 791 819 821 776 q 701 886 761 862 q 553 911 641 911 q 329 848 404 911 q 243 683 253 785 l 58 683 z "},"3":{"ha":1117,"x_min":50,"x_max":1044,"o":"m 79 721 q 150 895 88 818 q 322 1017 212 972 q 579 1061 431 1061 q 813 1026 713 1061 q 967 927 913 991 q 1021 778 1021 863 q 964 630 1021 692 q 796 540 906 567 q 980 457 915 519 q 1044 300 1044 395 q 988 133 1044 206 q 821 21 931 61 q 560 -19 712 -19 q 297 24 410 -19 q 120 147 184 67 q 50 332 56 226 l 235 332 q 330 182 247 233 q 560 131 412 131 q 782 178 706 131 q 858 313 858 226 q 796 428 858 390 q 589 467 733 467 l 400 467 l 400 603 l 589 603 q 774 643 713 603 q 835 754 835 684 q 769 870 835 829 q 569 911 703 911 q 358 862 437 911 q 264 721 280 813 l 79 721 z "},"4":{"ha":1115,"x_min":32,"x_max":1076,"o":"m 886 367 l 1076 367 l 1076 219 l 886 219 l 886 0 l 703 0 l 703 219 l 32 219 l 32 351 l 653 1042 l 886 1042 l 886 367 m 703 367 l 703 882 l 240 367 l 703 367 z "},"5":{"ha":1076,"x_min":47,"x_max":1019,"o":"m 936 1042 l 936 893 l 305 893 l 263 575 q 407 659 322 628 q 596 690 492 690 q 824 644 728 690 q 970 519 920 599 q 1019 339 1019 440 q 961 153 1019 235 q 795 26 903 72 q 544 -19 687 -19 q 295 23 403 -19 q 124 139 187 65 q 47 307 60 213 l 232 307 q 332 177 251 224 q 544 131 413 131 q 698 156 632 131 q 799 228 763 181 q 835 339 835 276 q 765 490 835 435 q 561 546 696 546 q 376 511 455 546 q 247 424 298 476 l 94 424 l 175 1042 l 936 1042 z "},"6":{"ha":1146,"x_min":70,"x_max":1081,"o":"m 603 1061 q 820 1024 723 1061 q 978 922 917 987 q 1056 774 1040 856 l 875 774 q 607 910 823 910 q 337 810 424 910 q 250 526 250 711 q 251 492 250 503 q 436 624 329 576 q 671 672 542 672 q 886 631 794 672 q 1030 514 979 590 q 1081 338 1081 438 q 1024 152 1081 233 q 862 26 967 71 q 618 -19 757 -19 q 319 49 442 -19 q 133 239 196 117 q 71 521 70 360 q 132 802 70 681 q 314 993 194 924 q 603 1061 434 1061 m 276 354 q 399 189 312 247 q 618 132 485 132 q 770 158 708 132 q 864 228 833 183 q 896 332 896 274 q 867 430 896 387 q 780 497 839 472 q 635 521 722 521 q 438 476 531 521 q 276 354 345 431 z "},"7":{"ha":978,"x_min":13,"x_max":939,"o":"m 744 889 l 13 889 l 13 1042 l 939 1042 l 939 893 l 393 0 l 197 0 l 744 889 z "},"8":{"ha":1186,"x_min":68,"x_max":1118,"o":"m 593 1061 q 856 1027 747 1061 q 1021 930 965 994 q 1078 776 1078 866 q 1019 630 1078 689 q 850 543 960 570 q 1049 455 980 520 q 1118 286 1118 389 q 1057 121 1118 190 q 878 16 996 52 q 593 -19 760 -19 q 308 16 426 -19 q 129 121 190 52 q 68 286 68 190 q 137 455 68 389 q 335 544 206 521 q 167 630 226 571 q 108 776 108 690 q 165 930 108 866 q 331 1027 222 994 q 593 1061 440 1061 m 253 296 q 340 170 253 213 q 593 128 426 128 q 847 170 760 128 q 933 296 933 213 q 593 463 933 463 q 253 296 253 463 m 292 761 q 369 645 292 684 q 593 607 447 607 q 817 645 739 607 q 894 761 894 684 q 816 874 894 834 q 593 914 737 914 q 370 874 449 914 q 292 761 292 834 z "},"9":{"ha":1146,"x_min":65,"x_max":1076,"o":"m 543 -19 q 326 18 423 -19 q 167 120 228 55 q 90 268 106 185 l 271 268 q 539 132 323 132 q 809 231 722 132 q 896 515 896 331 q 895 549 896 538 q 710 417 817 465 q 475 369 603 369 q 259 410 352 369 q 116 527 167 451 q 65 704 65 603 q 122 890 65 809 q 284 1016 179 971 q 528 1061 389 1061 q 827 993 703 1061 q 1013 803 950 925 q 1075 521 1076 681 q 1014 239 1076 361 q 832 49 952 117 q 543 -19 712 -19 m 250 710 q 278 612 250 655 q 366 545 307 569 q 511 521 424 521 q 708 566 615 521 q 870 688 801 610 q 747 852 834 795 q 528 910 660 910 q 376 884 438 910 q 282 813 313 858 q 250 710 250 768 z "}," ":{"ha":368,"x_min":0,"x_max":0,"o":""},"A":{"ha":1249,"x_min":10,"x_max":1239,"o":"m 1239 0 l 1043 0 l 931 239 l 317 239 l 206 0 l 10 0 l 510 1042 l 739 1042 l 1239 0 m 860 390 l 624 897 l 388 390 l 860 390 z "},"Á":{"ha":1249,"x_min":10,"x_max":1239,"o":"m 1239 0 l 1043 0 l 931 239 l 317 239 l 206 0 l 10 0 l 510 1042 l 739 1042 l 1239 0 m 860 390 l 624 897 l 388 390 l 860 390 m 915 1338 l 688 1126 l 499 1126 l 701 1338 l 915 1338 z "},"Ă":{"ha":1249,"x_min":10,"x_max":1239,"o":"m 1239 0 l 1043 0 l 931 239 l 317 239 l 206 0 l 10 0 l 510 1042 l 739 1042 l 1239 0 m 860 390 l 624 897 l 388 390 l 860 390 m 469 1340 q 624 1238 504 1238 q 723 1264 684 1238 q 779 1340 763 1290 l 924 1340 q 819 1176 898 1233 q 624 1119 740 1119 q 429 1176 508 1119 q 325 1340 350 1233 l 469 1340 z "},"Ắ":{"ha":1249,"x_min":10,"x_max":1239,"o":"m 1239 0 l 1043 0 l 931 239 l 317 239 l 206 0 l 10 0 l 510 1042 l 739 1042 l 1239 0 m 860 390 l 624 897 l 388 390 l 860 390 m 469 1340 q 624 1238 504 1238 q 723 1264 684 1238 q 779 1340 763 1290 l 924 1340 q 819 1176 898 1233 q 624 1119 740 1119 q 429 1176 508 1119 q 325 1340 350 1233 l 469 1340 m 657 1546 l 832 1546 l 688 1354 l 542 1354 l 657 1546 z "},"Ặ":{"ha":1249,"x_min":10,"x_max":1239,"o":"m 1239 0 l 1043 0 l 931 239 l 317 239 l 206 0 l 10 0 l 510 1042 l 739 1042 l 1239 0 m 860 390 l 624 897 l 388 390 l 860 390 m 625 -286 q 540 -258 573 -286 q 507 -183 507 -229 q 540 -109 507 -137 q 625 -81 573 -81 q 710 -109 677 -81 q 743 -183 743 -137 q 710 -258 743 -229 q 625 -286 677 -286 m 469 1340 q 624 1238 504 1238 q 723 1264 684 1238 q 779 1340 763 1290 l 924 1340 q 819 1176 898 1233 q 624 1119 740 1119 q 429 1176 508 1119 q 325 1340 350 1233 l 469 1340 z "},"Ằ":{"ha":1249,"x_min":10,"x_max":1239,"o":"m 1239 0 l 1043 0 l 931 239 l 317 239 l 206 0 l 10 0 l 510 1042 l 739 1042 l 1239 0 m 860 390 l 624 897 l 388 390 l 860 390 m 469 1340 q 624 1238 504 1238 q 723 1264 684 1238 q 779 1340 763 1290 l 924 1340 q 819 1176 898 1233 q 624 1119 740 1119 q 429 1176 508 1119 q 325 1340 350 1233 l 469 1340 m 571 1546 l 686 1354 l 540 1354 l 396 1546 l 571 1546 z "},"Ẳ":{"ha":1249,"x_min":10,"x_max":1239,"o":"m 1239 0 l 1043 0 l 931 239 l 317 239 l 206 0 l 10 0 l 510 1042 l 739 1042 l 1239 0 m 860 390 l 624 897 l 388 390 l 860 390 m 469 1340 q 624 1238 504 1238 q 723 1264 684 1238 q 779 1340 763 1290 l 924 1340 q 819 1176 898 1233 q 624 1119 740 1119 q 429 1176 508 1119 q 325 1340 350 1233 l 469 1340 m 483 1600 q 542 1612 508 1607 q 611 1617 576 1617 q 754 1583 703 1617 q 806 1490 806 1550 q 756 1397 806 1436 q 606 1335 707 1358 l 567 1393 q 635 1425 614 1408 q 656 1461 656 1442 q 633 1496 656 1484 q 569 1508 611 1508 q 483 1497 528 1508 l 483 1600 z "},"Ẵ":{"ha":1249,"x_min":10,"x_max":1239,"o":"m 1239 0 l 1043 0 l 931 239 l 317 239 l 206 0 l 10 0 l 510 1042 l 739 1042 l 1239 0 m 860 390 l 624 897 l 388 390 l 860 390 m 469 1340 q 624 1238 504 1238 q 723 1264 684 1238 q 779 1340 763 1290 l 924 1340 q 819 1176 898 1233 q 624 1119 740 1119 q 429 1176 508 1119 q 325 1340 350 1233 l 469 1340 m 346 1386 q 394 1531 351 1476 q 508 1585 437 1585 q 578 1573 547 1585 q 647 1540 609 1561 q 690 1518 674 1525 q 722 1511 706 1511 q 764 1530 747 1511 q 786 1583 780 1549 l 901 1583 q 853 1439 896 1492 q 739 1386 811 1386 q 668 1398 700 1386 q 600 1431 637 1410 q 556 1452 572 1446 q 525 1458 541 1458 q 484 1440 500 1458 q 461 1386 467 1421 l 346 1386 z "},"Ǎ":{"ha":1249,"x_min":10,"x_max":1239,"o":"m 1239 0 l 1043 0 l 931 239 l 317 239 l 206 0 l 10 0 l 510 1042 l 739 1042 l 1239 0 m 860 390 l 624 897 l 388 390 l 860 390 m 524 1126 l 318 1338 l 483 1338 l 625 1224 l 767 1338 l 931 1338 l 726 1126 l 524 1126 z "},"Â":{"ha":1249,"x_min":10,"x_max":1239,"o":"m 1239 0 l 1043 0 l 931 239 l 317 239 l 206 0 l 10 0 l 510 1042 l 739 1042 l 1239 0 m 860 390 l 624 897 l 388 390 l 860 390 m 725 1338 l 931 1126 l 765 1126 l 624 1240 l 482 1126 l 318 1126 l 522 1338 l 725 1338 z "},"Ấ":{"ha":1249,"x_min":10,"x_max":1239,"o":"m 1239 0 l 1043 0 l 931 239 l 317 239 l 206 0 l 10 0 l 510 1042 l 739 1042 l 1239 0 m 860 390 l 624 897 l 388 390 l 860 390 m 726 1338 l 932 1126 l 767 1126 l 625 1240 l 483 1126 l 319 1126 l 524 1338 l 726 1338 m 922 1490 l 1097 1490 l 953 1299 l 807 1299 l 922 1490 z "},"Ậ":{"ha":1249,"x_min":10,"x_max":1239,"o":"m 1239 0 l 1043 0 l 931 239 l 317 239 l 206 0 l 10 0 l 510 1042 l 739 1042 l 1239 0 m 860 390 l 624 897 l 388 390 l 860 390 m 625 -286 q 540 -258 573 -286 q 507 -183 507 -229 q 540 -109 507 -137 q 625 -81 573 -81 q 710 -109 677 -81 q 743 -183 743 -137 q 710 -258 743 -229 q 625 -286 677 -286 m 725 1338 l 931 1126 l 765 1126 l 624 1240 l 482 1126 l 318 1126 l 522 1338 l 725 1338 z "},"Ầ":{"ha":1249,"x_min":10,"x_max":1239,"o":"m 1239 0 l 1043 0 l 931 239 l 317 239 l 206 0 l 10 0 l 510 1042 l 739 1042 l 1239 0 m 860 390 l 624 897 l 388 390 l 860 390 m 726 1338 l 932 1126 l 767 1126 l 625 1240 l 483 1126 l 319 1126 l 524 1338 l 726 1338 m 865 1490 l 981 1299 l 835 1299 l 690 1490 l 865 1490 z "},"Ẩ":{"ha":1249,"x_min":10,"x_max":1239,"o":"m 1239 0 l 1043 0 l 931 239 l 317 239 l 206 0 l 10 0 l 510 1042 l 739 1042 l 1239 0 m 860 390 l 624 897 l 388 390 l 860 390 m 726 1338 l 932 1126 l 767 1126 l 625 1240 l 483 1126 l 319 1126 l 524 1338 l 726 1338 m 749 1535 q 807 1547 774 1542 q 876 1551 841 1551 q 1019 1518 968 1551 q 1071 1425 1071 1485 q 1022 1332 1071 1371 q 871 1269 972 1293 l 832 1328 q 900 1360 879 1343 q 921 1396 921 1376 q 899 1431 921 1419 q 835 1443 876 1443 q 749 1432 793 1443 l 749 1535 z "},"Ẫ":{"ha":1249,"x_min":10,"x_max":1239,"o":"m 1239 0 l 1043 0 l 931 239 l 317 239 l 206 0 l 10 0 l 510 1042 l 739 1042 l 1239 0 m 860 390 l 624 897 l 388 390 l 860 390 m 725 1338 l 931 1126 l 765 1126 l 624 1240 l 482 1126 l 318 1126 l 522 1338 l 725 1338 m 336 1385 q 384 1529 342 1475 q 499 1583 427 1583 q 568 1572 538 1583 q 638 1538 599 1560 q 681 1517 665 1524 q 713 1510 697 1510 q 754 1528 738 1510 q 776 1582 770 1547 l 892 1582 q 844 1438 886 1490 q 729 1385 801 1385 q 659 1397 690 1385 q 590 1429 627 1408 q 547 1451 562 1444 q 515 1457 531 1457 q 474 1438 490 1457 q 451 1385 458 1419 l 336 1385 z "},"Ȁ":{"ha":1249,"x_min":10,"x_max":1239,"o":"m 1239 0 l 1043 0 l 931 239 l 317 239 l 206 0 l 10 0 l 510 1042 l 739 1042 l 1239 0 m 860 390 l 624 897 l 388 390 l 860 390 m 860 1126 l 692 1126 l 510 1338 l 692 1338 l 860 1126 m 388 1338 l 554 1126 l 386 1126 l 204 1338 l 388 1338 z "},"Ä":{"ha":1249,"x_min":10,"x_max":1239,"o":"m 1239 0 l 1043 0 l 931 239 l 317 239 l 206 0 l 10 0 l 510 1042 l 739 1042 l 1239 0 m 860 390 l 624 897 l 388 390 l 860 390 m 419 1146 q 338 1174 369 1146 q 307 1246 307 1201 q 338 1317 307 1290 q 419 1344 369 1344 q 501 1317 469 1344 q 532 1246 532 1290 q 501 1174 532 1201 q 419 1146 469 1146 m 717 1246 q 748 1317 717 1290 q 829 1344 779 1344 q 910 1317 879 1344 q 942 1246 942 1290 q 910 1174 942 1201 q 829 1146 879 1146 q 748 1174 779 1146 q 717 1246 717 1201 z "},"Ǟ":{"ha":1249,"x_min":10,"x_max":1239,"o":"m 1239 0 l 1043 0 l 931 239 l 317 239 l 206 0 l 10 0 l 510 1042 l 739 1042 l 1239 0 m 860 390 l 624 897 l 388 390 l 860 390 m 421 1146 q 340 1174 371 1146 q 308 1246 308 1201 q 340 1317 308 1290 q 421 1344 371 1344 q 502 1317 471 1344 q 533 1246 533 1290 q 502 1174 533 1201 q 421 1146 471 1146 m 326 1546 l 926 1546 l 926 1426 l 326 1426 l 326 1546 m 718 1246 q 749 1317 718 1290 q 831 1344 781 1344 q 912 1317 881 1344 q 943 1246 943 1290 q 912 1174 943 1201 q 831 1146 881 1146 q 749 1174 781 1146 q 718 1246 718 1201 z "},"Ȧ":{"ha":1249,"x_min":10,"x_max":1239,"o":"m 1239 0 l 1043 0 l 931 239 l 317 239 l 206 0 l 10 0 l 510 1042 l 739 1042 l 1239 0 m 860 390 l 624 897 l 388 390 l 860 390 m 625 1146 q 540 1174 573 1146 q 507 1249 507 1203 q 540 1324 507 1294 q 625 1353 573 1353 q 710 1324 677 1353 q 743 1249 743 1294 q 710 1174 743 1203 q 625 1146 677 1146 z "},"Ạ":{"ha":1249,"x_min":10,"x_max":1239,"o":"m 1239 0 l 1043 0 l 931 239 l 317 239 l 206 0 l 10 0 l 510 1042 l 739 1042 l 1239 0 m 860 390 l 624 897 l 388 390 l 860 390 m 625 -286 q 540 -258 573 -286 q 507 -183 507 -229 q 540 -109 507 -137 q 625 -81 573 -81 q 710 -109 677 -81 q 743 -183 743 -137 q 710 -258 743 -229 q 625 -286 677 -286 z "},"Ǡ":{"ha":1249,"x_min":10,"x_max":1239,"o":"m 1239 0 l 1043 0 l 931 239 l 317 239 l 206 0 l 10 0 l 510 1042 l 739 1042 l 1239 0 m 860 390 l 624 897 l 388 390 l 860 390 m 626 1146 q 541 1174 574 1146 q 508 1249 508 1203 q 541 1324 508 1294 q 626 1353 574 1353 q 711 1324 678 1353 q 744 1249 744 1294 q 711 1174 744 1203 q 626 1146 678 1146 m 325 1546 l 925 1546 l 925 1426 l 325 1426 l 325 1546 z "},"À":{"ha":1249,"x_min":10,"x_max":1239,"o":"m 1239 0 l 1043 0 l 931 239 l 317 239 l 206 0 l 10 0 l 510 1042 l 739 1042 l 1239 0 m 860 390 l 624 897 l 388 390 l 860 390 m 731 1126 l 542 1126 l 314 1338 l 528 1338 l 731 1126 z "},"Ả":{"ha":1249,"x_min":10,"x_max":1239,"o":"m 1239 0 l 1043 0 l 931 239 l 317 239 l 206 0 l 10 0 l 510 1042 l 739 1042 l 1239 0 m 860 390 l 624 897 l 388 390 l 860 390 m 536 1178 q 632 1205 601 1188 q 664 1243 664 1222 q 640 1271 664 1262 q 571 1281 616 1281 q 513 1277 539 1281 q 449 1265 487 1273 l 449 1374 q 521 1388 478 1382 q 607 1394 564 1394 q 766 1363 710 1394 q 822 1267 822 1331 q 764 1167 822 1206 q 578 1107 705 1128 l 536 1178 z "},"Ȃ":{"ha":1249,"x_min":10,"x_max":1239,"o":"m 1239 0 l 1043 0 l 931 239 l 317 239 l 206 0 l 10 0 l 510 1042 l 739 1042 l 1239 0 m 860 390 l 624 897 l 388 390 l 860 390 m 779 1124 q 625 1226 744 1226 q 525 1200 565 1226 q 469 1124 486 1174 l 325 1124 q 430 1288 351 1231 q 625 1344 509 1344 q 820 1288 741 1344 q 924 1124 899 1231 l 779 1124 z "},"Ɑ":{"ha":1349,"x_min":64,"x_max":1256,"o":"m 1051 289 q 854 61 975 142 q 578 -19 733 -19 q 310 48 426 -19 q 128 239 193 116 q 64 521 64 362 q 128 803 64 680 q 310 993 193 926 q 578 1061 426 1061 q 854 982 733 1061 q 1052 757 976 902 l 1079 1042 l 1256 1042 l 1201 522 l 1256 0 l 1079 0 l 1051 289 m 250 522 q 296 325 250 412 q 426 190 342 239 q 618 142 510 142 q 801 190 717 142 q 950 323 886 238 q 1056 522 1015 408 q 951 720 1015 635 q 802 852 887 805 q 618 900 717 900 q 427 852 510 900 q 297 717 343 803 q 250 522 250 631 z "},"Ɒ":{"ha":1349,"x_min":93,"x_max":1285,"o":"m 93 0 l 147 522 l 93 1042 l 269 1042 l 297 757 q 494 982 373 902 q 771 1061 616 1061 q 1039 993 922 1061 q 1220 803 1156 926 q 1285 521 1285 680 q 1220 239 1285 362 q 1039 48 1156 116 q 771 -19 922 -19 q 495 61 616 -19 q 297 289 374 142 l 269 0 l 93 0 m 293 522 q 398 323 334 408 q 547 190 463 238 q 731 142 632 142 q 923 190 839 142 q 1052 325 1006 239 q 1099 522 1099 412 q 1052 717 1099 631 q 922 852 1006 803 q 731 900 838 900 q 547 852 631 900 q 398 720 462 805 q 293 522 334 635 z "},"Ā":{"ha":1249,"x_min":10,"x_max":1239,"o":"m 1239 0 l 1043 0 l 931 239 l 317 239 l 206 0 l 10 0 l 510 1042 l 739 1042 l 1239 0 m 860 390 l 624 897 l 388 390 l 860 390 m 325 1286 l 925 1286 l 925 1167 l 325 1167 l 325 1286 z "},"Ą":{"ha":1249,"x_min":10,"x_max":1239,"o":"m 1239 0 q 1069 -108 1069 -53 q 1154 -150 1069 -150 q 1239 -142 1203 -150 l 1239 -257 q 1184 -269 1220 -264 q 1113 -274 1149 -274 q 1014 -257 1057 -274 q 948 -211 972 -241 q 925 -142 925 -181 q 1059 0 925 -54 l 1043 0 l 931 239 l 317 239 l 206 0 l 10 0 l 510 1042 l 739 1042 l 1239 0 m 860 390 l 624 897 l 388 390 l 860 390 z "},"Å":{"ha":1249,"x_min":10,"x_max":1239,"o":"m 1239 0 l 1043 0 l 931 239 l 317 239 l 206 0 l 10 0 l 510 1042 l 739 1042 l 1239 0 m 860 390 l 624 897 l 388 390 l 860 390 m 625 1108 q 504 1128 555 1108 q 426 1183 453 1147 q 399 1268 399 1219 q 426 1354 399 1318 q 504 1410 453 1390 q 625 1429 555 1429 q 746 1410 695 1429 q 824 1354 797 1390 q 851 1268 851 1318 q 824 1183 851 1219 q 746 1128 797 1147 q 625 1108 695 1108 m 508 1268 q 538 1217 508 1235 q 625 1199 567 1199 q 712 1217 683 1199 q 742 1268 742 1235 q 712 1321 742 1303 q 625 1339 683 1339 q 538 1321 567 1339 q 508 1268 508 1303 z "},"Ǻ":{"ha":1249,"x_min":10,"x_max":1239,"o":"m 1239 0 l 1043 0 l 931 239 l 317 239 l 206 0 l 10 0 l 510 1042 l 739 1042 l 1239 0 m 860 390 l 624 897 l 388 390 l 860 390 m 399 1268 q 440 1370 399 1330 q 558 1424 482 1411 l 649 1629 l 822 1629 l 700 1423 q 812 1369 772 1409 q 851 1268 851 1328 q 824 1183 851 1219 q 746 1128 797 1147 q 625 1108 695 1108 q 504 1128 555 1108 q 426 1183 453 1147 q 399 1268 399 1219 m 508 1268 q 538 1217 508 1235 q 625 1199 567 1199 q 712 1217 683 1199 q 742 1268 742 1235 q 712 1321 742 1303 q 625 1339 683 1339 q 538 1321 567 1339 q 508 1268 508 1303 z "},"Ḁ":{"ha":1249,"x_min":10,"x_max":1239,"o":"m 1239 0 l 1043 0 l 931 239 l 317 239 l 206 0 l 10 0 l 510 1042 l 739 1042 l 1239 0 m 860 390 l 624 897 l 388 390 l 860 390 m 625 -397 q 508 -377 558 -397 q 431 -318 458 -356 q 404 -228 404 -279 q 431 -138 404 -176 q 508 -79 458 -99 q 625 -58 558 -58 q 742 -79 692 -58 q 818 -137 792 -99 q 844 -228 844 -176 q 818 -318 844 -280 q 742 -377 792 -356 q 625 -397 692 -397 m 515 -228 q 544 -289 515 -267 q 625 -310 573 -310 q 706 -289 677 -310 q 735 -228 735 -267 q 706 -166 735 -188 q 625 -144 677 -144 q 544 -166 573 -144 q 515 -228 515 -188 z "},"Ⱥ":{"ha":1251,"x_min":11,"x_max":1240,"o":"m 1003 1211 l 845 824 l 1240 0 l 1044 0 l 933 239 l 607 239 l 440 -169 l 290 -169 l 457 239 l 319 239 l 207 0 l 11 0 l 511 1042 l 740 1042 l 764 992 l 853 1211 l 1003 1211 m 518 390 l 678 783 l 626 897 l 390 390 l 518 390 m 862 390 l 758 612 l 668 390 l 862 390 z "},"Ã":{"ha":1249,"x_min":10,"x_max":1239,"o":"m 1239 0 l 1043 0 l 931 239 l 317 239 l 206 0 l 10 0 l 510 1042 l 739 1042 l 1239 0 m 860 390 l 624 897 l 388 390 l 860 390 m 294 1136 q 354 1283 304 1229 q 490 1336 404 1336 q 561 1325 526 1336 q 647 1292 597 1314 q 708 1268 683 1276 q 753 1260 733 1260 q 804 1279 784 1260 q 828 1332 824 1298 l 954 1332 q 894 1185 944 1239 q 758 1132 844 1132 q 687 1143 722 1132 q 602 1176 652 1154 q 541 1200 565 1192 q 496 1208 517 1208 q 445 1189 465 1208 q 421 1136 425 1170 l 294 1136 z "},"Ɐ":{"ha":1251,"x_min":11,"x_max":1240,"o":"m 11 1042 l 207 1042 l 319 803 l 933 803 l 1044 1042 l 1240 1042 l 740 0 l 511 0 l 11 1042 m 626 145 l 862 651 l 390 651 l 626 145 z "},"Æ":{"ha":1733,"x_min":14,"x_max":1689,"o":"m 1119 158 l 1689 158 l 1689 0 l 996 0 l 894 239 l 314 239 l 210 0 l 14 0 l 481 1042 l 1632 1042 l 1632 883 l 811 883 l 932 597 l 1599 597 l 1599 444 l 997 444 l 1119 158 m 830 390 l 608 913 l 381 390 l 830 390 z "},"Ǽ":{"ha":1733,"x_min":14,"x_max":1689,"o":"m 1119 158 l 1689 158 l 1689 0 l 996 0 l 894 239 l 314 239 l 210 0 l 14 0 l 481 1042 l 1632 1042 l 1632 883 l 811 883 l 932 597 l 1599 597 l 1599 444 l 997 444 l 1119 158 m 830 390 l 608 913 l 381 390 l 830 390 m 1318 1338 l 1090 1126 l 901 1126 l 1104 1338 l 1318 1338 z "},"Ǣ":{"ha":1733,"x_min":14,"x_max":1689,"o":"m 1119 158 l 1689 158 l 1689 0 l 996 0 l 894 239 l 314 239 l 210 0 l 14 0 l 481 1042 l 1632 1042 l 1632 883 l 811 883 l 932 597 l 1599 597 l 1599 444 l 997 444 l 1119 158 m 830 390 l 608 913 l 381 390 l 830 390 m 728 1286 l 1328 1286 l 1328 1167 l 728 1167 l 728 1286 z "},"B":{"ha":1176,"x_min":81,"x_max":1121,"o":"m 163 535 l 81 1042 l 750 1042 q 914 1011 846 1042 q 1016 924 981 981 q 1051 789 1051 867 q 1010 646 1051 711 q 881 546 968 581 q 1061 453 1001 522 q 1121 285 1121 384 q 1081 136 1121 201 q 964 36 1042 72 q 775 0 885 0 l 81 0 l 163 535 m 754 147 q 888 187 840 147 q 936 300 936 226 q 879 421 936 378 q 714 464 822 464 l 328 464 l 280 147 l 754 147 m 328 606 l 696 606 q 784 624 746 606 q 845 679 823 643 q 867 764 867 715 q 825 859 867 823 q 710 894 784 894 l 281 894 l 328 606 z "},"Ḃ":{"ha":1176,"x_min":81,"x_max":1121,"o":"m 163 535 l 81 1042 l 750 1042 q 914 1011 846 1042 q 1016 924 981 981 q 1051 789 1051 867 q 1010 646 1051 711 q 881 546 968 581 q 1061 453 1001 522 q 1121 285 1121 384 q 1081 136 1121 201 q 964 36 1042 72 q 775 0 885 0 l 81 0 l 163 535 m 754 147 q 888 187 840 147 q 936 300 936 226 q 879 421 936 378 q 714 464 822 464 l 328 464 l 280 147 l 754 147 m 328 606 l 696 606 q 784 624 746 606 q 845 679 823 643 q 867 764 867 715 q 825 859 867 823 q 710 894 784 894 l 281 894 l 328 606 m 569 1146 q 484 1174 517 1146 q 451 1249 451 1203 q 484 1324 451 1294 q 569 1353 517 1353 q 655 1324 622 1353 q 688 1249 688 1294 q 655 1174 688 1203 q 569 1146 622 1146 z "},"Ḅ":{"ha":1176,"x_min":81,"x_max":1121,"o":"m 163 535 l 81 1042 l 750 1042 q 914 1011 846 1042 q 1016 924 981 981 q 1051 789 1051 867 q 1010 646 1051 711 q 881 546 968 581 q 1061 453 1001 522 q 1121 285 1121 384 q 1081 136 1121 201 q 964 36 1042 72 q 775 0 885 0 l 81 0 l 163 535 m 754 147 q 888 187 840 147 q 936 300 936 226 q 879 421 936 378 q 714 464 822 464 l 328 464 l 280 147 l 754 147 m 328 606 l 696 606 q 784 624 746 606 q 845 679 823 643 q 867 764 867 715 q 825 859 867 823 q 710 894 784 894 l 281 894 l 328 606 m 597 -286 q 512 -258 545 -286 q 479 -183 479 -229 q 512 -109 479 -137 q 597 -81 545 -81 q 682 -109 649 -81 q 715 -183 715 -137 q 682 -258 715 -229 q 597 -286 649 -286 z "},"Ꞵ":{"ha":1190,"x_min":117,"x_max":1135,"o":"m 894 546 q 1075 453 1015 523 q 1135 285 1135 384 q 1095 136 1135 201 q 978 36 1056 72 q 790 0 900 0 l 296 0 l 296 -229 l 117 -229 l 117 1042 l 765 1042 q 928 1011 860 1042 q 1031 924 996 981 q 1065 789 1065 867 q 1023 646 1065 711 q 894 546 981 581 m 768 147 q 903 187 855 147 q 951 300 951 226 q 894 423 951 379 q 729 467 838 467 l 296 467 l 296 147 l 768 147 m 711 603 q 799 622 760 603 q 860 677 838 640 q 882 764 882 713 q 840 859 882 823 q 724 894 799 894 l 296 894 l 296 603 l 711 603 z "},"Ɓ":{"ha":1425,"x_min":32,"x_max":1369,"o":"m 999 1042 q 1162 1011 1094 1042 q 1265 924 1230 981 q 1300 789 1300 867 q 1258 646 1300 711 q 1130 546 1217 581 q 1310 453 1250 522 q 1369 285 1369 384 q 1330 136 1369 201 q 1212 36 1290 72 q 1024 0 1134 0 l 329 0 l 411 535 l 351 901 l 311 901 q 223 874 253 901 q 193 786 193 847 q 202 705 193 744 q 229 621 212 665 l 82 621 q 32 819 32 730 q 94 984 32 926 q 269 1042 157 1042 l 999 1042 m 1003 147 q 1137 187 1089 147 q 1185 300 1185 226 q 1128 421 1185 378 q 963 464 1071 464 l 576 464 l 528 147 l 1003 147 m 576 606 l 944 606 q 1033 624 994 606 q 1093 679 1072 643 q 1115 764 1115 715 q 1074 859 1115 823 q 958 894 1033 894 l 529 894 l 576 606 z "},"Ḇ":{"ha":1176,"x_min":81,"x_max":1121,"o":"m 163 535 l 81 1042 l 750 1042 q 914 1011 846 1042 q 1016 924 981 981 q 1051 789 1051 867 q 1010 646 1051 711 q 881 546 968 581 q 1061 453 1001 522 q 1121 285 1121 384 q 1081 136 1121 201 q 964 36 1042 72 q 775 0 885 0 l 81 0 l 163 535 m 754 147 q 888 187 840 147 q 936 300 936 226 q 879 421 936 378 q 714 464 822 464 l 328 464 l 280 147 l 754 147 m 328 606 l 696 606 q 784 624 746 606 q 845 679 823 643 q 867 764 867 715 q 825 859 867 823 q 710 894 784 894 l 281 894 l 328 606 m 297 -94 l 897 -94 l 897 -214 l 297 -214 l 297 -94 z "},"Ƀ":{"ha":1260,"x_min":35,"x_max":1204,"o":"m 221 369 l 246 535 l 164 1042 l 833 1042 q 997 1011 929 1042 q 1100 924 1065 981 q 1135 789 1135 867 q 1093 646 1135 711 q 965 546 1051 581 q 1144 453 1085 522 q 1204 285 1204 384 q 1165 136 1204 201 q 1047 36 1125 72 q 858 0 969 0 l 164 0 l 199 233 l 35 233 l 35 369 l 221 369 m 835 142 q 970 183 922 142 q 1018 300 1018 224 q 961 425 1018 381 q 794 469 903 469 l 413 469 l 397 369 l 733 369 l 733 233 l 376 233 l 363 142 l 835 142 m 412 600 l 776 600 q 865 619 826 600 q 926 675 904 638 q 949 764 949 713 q 907 863 949 825 q 790 900 865 900 l 363 900 l 412 600 z "},"C":{"ha":1267,"x_min":63,"x_max":1215,"o":"m 1215 413 q 1126 187 1201 285 q 927 35 1051 89 q 649 -19 803 -19 q 342 48 475 -19 q 136 239 209 116 q 63 521 63 361 q 136 803 63 681 q 342 993 209 926 q 649 1061 475 1061 q 927 1007 803 1061 q 1126 855 1051 953 q 1215 629 1201 757 l 1031 629 q 965 772 1015 712 q 833 865 914 833 q 647 897 751 897 q 436 851 526 897 q 297 720 346 806 q 249 521 249 635 q 297 321 249 406 q 436 190 346 236 q 647 144 526 144 q 833 176 752 144 q 965 269 914 208 q 1031 413 1015 329 l 1215 413 z "},"Ć":{"ha":1267,"x_min":63,"x_max":1215,"o":"m 1215 413 q 1126 187 1201 285 q 927 35 1051 89 q 649 -19 803 -19 q 342 48 475 -19 q 136 239 209 116 q 63 521 63 361 q 136 803 63 681 q 342 993 209 926 q 649 1061 475 1061 q 927 1007 803 1061 q 1126 855 1051 953 q 1215 629 1201 757 l 1031 629 q 965 772 1015 712 q 833 865 914 833 q 647 897 751 897 q 436 851 526 897 q 297 720 346 806 q 249 521 249 635 q 297 321 249 406 q 436 190 346 236 q 647 144 526 144 q 833 176 752 144 q 965 269 914 208 q 1031 413 1015 329 l 1215 413 m 929 1338 l 701 1126 l 513 1126 l 715 1338 l 929 1338 z "},"Č":{"ha":1267,"x_min":63,"x_max":1215,"o":"m 1215 413 q 1126 187 1201 285 q 927 35 1051 89 q 649 -19 803 -19 q 342 48 475 -19 q 136 239 209 116 q 63 521 63 361 q 136 803 63 681 q 342 993 209 926 q 649 1061 475 1061 q 927 1007 803 1061 q 1126 855 1051 953 q 1215 629 1201 757 l 1031 629 q 965 772 1015 712 q 833 865 914 833 q 647 897 751 897 q 436 851 526 897 q 297 720 346 806 q 249 521 249 635 q 297 321 249 406 q 436 190 346 236 q 647 144 526 144 q 833 176 752 144 q 965 269 914 208 q 1031 413 1015 329 l 1215 413 m 538 1126 l 332 1338 l 497 1338 l 639 1224 l 781 1338 l 944 1338 l 740 1126 l 538 1126 z "},"Ç":{"ha":1267,"x_min":63,"x_max":1215,"o":"m 1215 413 q 1131 194 1201 290 q 945 43 1060 99 q 683 -19 829 -12 l 653 -68 q 726 -60 685 -60 q 853 -93 807 -60 q 900 -185 900 -127 q 873 -259 900 -226 q 795 -309 847 -291 q 674 -326 744 -326 q 510 -290 578 -326 q 424 -192 443 -254 l 556 -192 q 674 -236 587 -236 q 746 -221 722 -236 q 771 -182 771 -206 q 749 -147 771 -160 q 689 -135 728 -135 q 600 -150 638 -135 l 496 -150 l 581 -17 q 308 67 425 -3 q 127 255 191 138 q 63 521 63 372 q 136 803 63 681 q 342 993 209 926 q 649 1061 475 1061 q 927 1007 803 1061 q 1126 855 1051 953 q 1215 629 1201 757 l 1031 629 q 965 772 1015 712 q 833 865 914 833 q 647 897 751 897 q 436 851 526 897 q 297 720 346 806 q 249 521 249 635 q 297 321 249 406 q 436 190 346 236 q 647 144 526 144 q 833 176 752 144 q 965 269 914 208 q 1031 413 1015 329 l 1215 413 z "},"Ḉ":{"ha":1267,"x_min":63,"x_max":1215,"o":"m 1215 413 q 1131 194 1201 290 q 945 43 1060 99 q 683 -19 829 -12 l 653 -68 q 726 -60 685 -60 q 853 -93 807 -60 q 900 -185 900 -127 q 873 -259 900 -226 q 795 -309 847 -291 q 674 -326 744 -326 q 510 -290 578 -326 q 424 -192 443 -254 l 556 -192 q 674 -236 587 -236 q 746 -221 722 -236 q 771 -182 771 -206 q 749 -147 771 -160 q 689 -135 728 -135 q 600 -150 638 -135 l 496 -150 l 581 -17 q 308 67 425 -3 q 127 255 191 138 q 63 521 63 372 q 136 803 63 681 q 342 993 209 926 q 649 1061 475 1061 q 927 1007 803 1061 q 1126 855 1051 953 q 1215 629 1201 757 l 1031 629 q 965 772 1015 712 q 833 865 914 833 q 647 897 751 897 q 436 851 526 897 q 297 720 346 806 q 249 521 249 635 q 297 321 249 406 q 436 190 346 236 q 647 144 526 144 q 833 176 752 144 q 965 269 914 208 q 1031 413 1015 329 l 1215 413 m 715 1338 l 929 1338 l 701 1126 l 513 1126 l 715 1338 z "},"Ĉ":{"ha":1267,"x_min":63,"x_max":1215,"o":"m 1215 413 q 1126 187 1201 285 q 927 35 1051 89 q 649 -19 803 -19 q 342 48 475 -19 q 136 239 209 116 q 63 521 63 361 q 136 803 63 681 q 342 993 209 926 q 649 1061 475 1061 q 927 1007 803 1061 q 1126 855 1051 953 q 1215 629 1201 757 l 1031 629 q 965 772 1015 712 q 833 865 914 833 q 647 897 751 897 q 436 851 526 897 q 297 720 346 806 q 249 521 249 635 q 297 321 249 406 q 436 190 346 236 q 647 144 526 144 q 833 176 752 144 q 965 269 914 208 q 1031 413 1015 329 l 1215 413 m 739 1338 l 944 1126 l 779 1126 l 638 1240 l 496 1126 l 332 1126 l 536 1338 l 739 1338 z "},"Ċ":{"ha":1267,"x_min":63,"x_max":1215,"o":"m 1215 413 q 1126 187 1201 285 q 927 35 1051 89 q 649 -19 803 -19 q 342 48 475 -19 q 136 239 209 116 q 63 521 63 361 q 136 803 63 681 q 342 993 209 926 q 649 1061 475 1061 q 927 1007 803 1061 q 1126 855 1051 953 q 1215 629 1201 757 l 1031 629 q 965 772 1015 712 q 833 865 914 833 q 647 897 751 897 q 436 851 526 897 q 297 720 346 806 q 249 521 249 635 q 297 321 249 406 q 436 190 346 236 q 647 144 526 144 q 833 176 752 144 q 965 269 914 208 q 1031 413 1015 329 l 1215 413 m 639 1146 q 554 1174 587 1146 q 521 1249 521 1203 q 554 1324 521 1294 q 639 1353 587 1353 q 724 1324 691 1353 q 757 1249 757 1294 q 724 1174 757 1203 q 639 1146 691 1146 z "},"Ꭓ":{"ha":1042,"x_min":-10,"x_max":1050,"o":"m 421 434 l 24 1042 l 224 1042 l 522 574 l 819 1042 l 1017 1042 l 620 433 l 1050 -229 l 851 -229 l 520 297 l 188 -229 l -10 -229 l 421 434 z "},"Ƈ":{"ha":1271,"x_min":63,"x_max":1375,"o":"m 642 1061 q 963 974 840 1061 q 950 1051 950 1013 q 979 1154 950 1109 q 1066 1225 1008 1199 q 1208 1250 1124 1250 q 1375 1219 1297 1250 l 1375 1075 q 1310 1094 1340 1088 q 1247 1100 1280 1100 q 1146 1069 1179 1100 q 1113 988 1113 1039 q 1126 912 1113 956 q 1168 799 1140 869 q 1215 629 1209 697 l 1032 629 q 966 772 1017 712 q 833 865 915 833 q 647 897 751 897 q 436 851 526 897 q 297 721 346 806 q 249 522 249 636 q 297 322 249 408 q 436 191 346 237 q 647 144 526 144 q 833 176 752 144 q 966 269 915 208 q 1032 413 1017 329 l 1215 413 q 1126 187 1201 285 q 927 35 1051 89 q 649 -19 803 -19 q 342 48 475 -19 q 136 239 209 116 q 63 521 63 361 q 136 803 63 680 q 341 993 209 926 q 642 1061 472 1061 z "},"Ȼ":{"ha":1267,"x_min":63,"x_max":1215,"o":"m 1001 1211 l 919 1010 q 1123 858 1045 958 q 1215 629 1200 759 l 1031 629 q 972 763 1017 706 q 856 855 927 821 l 569 150 q 647 144 609 144 q 833 176 752 144 q 965 269 914 208 q 1031 413 1015 329 l 1215 413 q 1126 187 1201 285 q 927 35 1051 89 q 649 -19 803 -19 q 506 -6 572 -19 l 439 -169 l 289 -169 l 372 34 q 206 147 276 76 q 100 313 137 218 q 63 521 63 408 q 136 803 63 681 q 342 993 209 926 q 649 1061 475 1061 q 785 1049 719 1061 l 851 1211 l 1001 1211 m 249 521 q 297 321 249 406 q 435 190 346 236 l 722 892 q 647 897 688 897 q 436 851 526 897 q 297 720 346 806 q 249 521 249 635 z "},"D":{"ha":1244,"x_min":117,"x_max":1183,"o":"m 588 1042 q 899 976 763 1042 q 1109 793 1034 911 q 1183 521 1183 675 q 1109 249 1183 367 q 899 65 1034 131 q 588 0 763 0 l 117 0 l 117 1042 l 588 1042 m 600 161 q 808 206 718 161 q 948 332 899 251 q 997 521 997 414 q 948 709 997 628 q 808 836 899 791 q 600 881 718 881 l 300 881 l 300 161 l 600 161 z "},"Ǳ":{"ha":2258,"x_min":117,"x_max":2201,"o":"m 588 1042 q 899 976 763 1042 q 1109 793 1034 911 q 1183 521 1183 675 q 1109 249 1183 367 q 899 65 1034 131 q 588 0 763 0 l 117 0 l 117 1042 l 588 1042 m 600 161 q 808 206 718 161 q 948 332 899 251 q 997 521 997 414 q 948 709 997 628 q 808 836 899 791 q 600 881 718 881 l 300 881 l 300 161 l 600 161 m 1238 140 l 1949 889 l 1243 889 l 1243 1042 l 2197 1042 l 2197 903 l 1485 153 l 2201 153 l 2201 0 l 1238 0 l 1238 140 z "},"Ǆ":{"ha":2258,"x_min":117,"x_max":2201,"o":"m 588 1042 q 899 976 763 1042 q 1109 793 1034 911 q 1183 521 1183 675 q 1109 249 1183 367 q 899 65 1034 131 q 588 0 763 0 l 117 0 l 117 1042 l 588 1042 m 600 161 q 808 206 718 161 q 948 332 899 251 q 997 521 997 414 q 948 709 997 628 q 808 836 899 791 q 600 881 718 881 l 300 881 l 300 161 l 600 161 m 1238 140 l 1949 889 l 1243 889 l 1243 1042 l 2197 1042 l 2197 903 l 1485 153 l 2201 153 l 2201 0 l 1238 0 l 1238 140 m 1579 1338 l 1721 1224 l 1863 1338 l 2026 1338 l 1822 1126 l 1619 1126 l 1414 1338 l 1579 1338 z "},"Ɖ":{"ha":1290,"x_min":36,"x_max":1229,"o":"m 163 592 l 163 1042 l 633 1042 q 944 976 809 1042 q 1155 793 1080 911 q 1229 521 1229 675 q 1155 249 1229 367 q 944 65 1080 131 q 633 0 809 0 l 163 0 l 163 453 l 36 453 l 36 592 l 163 592 m 646 161 q 854 206 764 161 q 994 332 944 251 q 1043 521 1043 414 q 994 709 1043 628 q 854 836 944 791 q 646 881 764 881 l 346 881 l 346 592 l 633 592 l 633 453 l 346 453 l 346 161 l 646 161 z "},"Ð":{"ha":1290,"x_min":36,"x_max":1229,"o":"m 163 592 l 163 1042 l 633 1042 q 944 976 809 1042 q 1155 793 1080 911 q 1229 521 1229 675 q 1155 249 1229 367 q 944 65 1080 131 q 633 0 809 0 l 163 0 l 163 453 l 36 453 l 36 592 l 163 592 m 646 161 q 854 206 764 161 q 994 332 944 251 q 1043 521 1043 414 q 994 709 1043 628 q 854 836 944 791 q 646 881 764 881 l 346 881 l 346 592 l 633 592 l 633 453 l 346 453 l 346 161 l 646 161 z "},"Ď":{"ha":1244,"x_min":117,"x_max":1183,"o":"m 588 1042 q 899 976 763 1042 q 1109 793 1034 911 q 1183 521 1183 675 q 1109 249 1183 367 q 899 65 1034 131 q 588 0 763 0 l 117 0 l 117 1042 l 588 1042 m 600 161 q 808 206 718 161 q 948 332 899 251 q 997 521 997 414 q 948 709 997 628 q 808 836 899 791 q 600 881 718 881 l 300 881 l 300 161 l 600 161 m 481 1126 l 275 1338 l 440 1338 l 582 1224 l 724 1338 l 888 1338 l 683 1126 l 481 1126 z "},"Ḑ":{"ha":1244,"x_min":117,"x_max":1183,"o":"m 588 1042 q 899 976 763 1042 q 1109 793 1034 911 q 1183 521 1183 675 q 1109 249 1183 367 q 899 65 1034 131 q 588 0 763 0 l 117 0 l 117 1042 l 588 1042 m 600 161 q 808 206 718 161 q 948 332 899 251 q 997 521 997 414 q 948 709 997 628 q 808 836 899 791 q 600 881 718 881 l 300 881 l 300 161 l 600 161 m 564 -241 q 509 -210 529 -233 q 489 -156 489 -187 q 518 -90 489 -115 q 597 -65 548 -65 q 677 -92 647 -65 q 707 -158 707 -118 q 702 -195 707 -178 q 685 -231 697 -211 q 646 -289 673 -251 l 592 -365 l 494 -365 l 564 -241 z "},"Ḓ":{"ha":1244,"x_min":117,"x_max":1183,"o":"m 588 1042 q 899 976 763 1042 q 1109 793 1034 911 q 1183 521 1183 675 q 1109 249 1183 367 q 899 65 1034 131 q 588 0 763 0 l 117 0 l 117 1042 l 588 1042 m 600 161 q 808 206 718 161 q 948 332 899 251 q 997 521 997 414 q 948 709 997 628 q 808 836 899 791 q 600 881 718 881 l 300 881 l 300 161 l 600 161 m 694 -58 l 893 -297 l 739 -297 l 597 -155 l 457 -297 l 301 -297 l 500 -58 l 694 -58 z "},"Đ":{"ha":1290,"x_min":36,"x_max":1229,"o":"m 163 592 l 163 1042 l 633 1042 q 944 976 809 1042 q 1155 793 1080 911 q 1229 521 1229 675 q 1155 249 1229 367 q 944 65 1080 131 q 633 0 809 0 l 163 0 l 163 453 l 36 453 l 36 592 l 163 592 m 646 161 q 854 206 764 161 q 994 332 944 251 q 1043 521 1043 414 q 994 709 1043 628 q 854 836 944 791 q 646 881 764 881 l 346 881 l 346 592 l 633 592 l 633 453 l 346 453 l 346 161 l 646 161 z "},"Ḋ":{"ha":1244,"x_min":117,"x_max":1183,"o":"m 588 1042 q 899 976 763 1042 q 1109 793 1034 911 q 1183 521 1183 675 q 1109 249 1183 367 q 899 65 1034 131 q 588 0 763 0 l 117 0 l 117 1042 l 588 1042 m 600 161 q 808 206 718 161 q 948 332 899 251 q 997 521 997 414 q 948 709 997 628 q 808 836 899 791 q 600 881 718 881 l 300 881 l 300 161 l 600 161 m 582 1146 q 497 1174 530 1146 q 464 1249 464 1203 q 497 1324 464 1294 q 582 1353 530 1353 q 667 1324 634 1353 q 700 1249 700 1294 q 667 1174 700 1203 q 582 1146 634 1146 z "},"Ḍ":{"ha":1244,"x_min":117,"x_max":1183,"o":"m 588 1042 q 899 976 763 1042 q 1109 793 1034 911 q 1183 521 1183 675 q 1109 249 1183 367 q 899 65 1034 131 q 588 0 763 0 l 117 0 l 117 1042 l 588 1042 m 600 161 q 808 206 718 161 q 948 332 899 251 q 997 521 997 414 q 948 709 997 628 q 808 836 899 791 q 600 881 718 881 l 300 881 l 300 161 l 600 161 m 597 -286 q 512 -258 545 -286 q 479 -183 479 -229 q 512 -109 479 -137 q 597 -81 545 -81 q 682 -109 649 -81 q 715 -183 715 -137 q 682 -258 715 -229 q 597 -286 649 -286 z "},"Ɗ":{"ha":1519,"x_min":32,"x_max":1458,"o":"m 863 1042 q 1174 976 1038 1042 q 1384 793 1309 911 q 1458 521 1458 675 q 1384 249 1458 367 q 1174 65 1309 131 q 863 0 1038 0 l 392 0 l 392 886 l 315 886 q 225 860 256 886 q 194 775 194 834 q 203 699 194 736 q 229 621 213 663 l 82 621 q 32 818 32 730 q 95 984 32 926 q 279 1042 159 1042 l 863 1042 m 875 161 q 1083 206 993 161 q 1223 332 1174 251 q 1272 521 1272 414 q 1223 709 1272 628 q 1083 836 1174 791 q 875 881 993 881 l 575 881 l 575 161 l 875 161 z "},"Ḏ":{"ha":1244,"x_min":117,"x_max":1183,"o":"m 588 1042 q 899 976 763 1042 q 1109 793 1034 911 q 1183 521 1183 675 q 1109 249 1183 367 q 899 65 1034 131 q 588 0 763 0 l 117 0 l 117 1042 l 588 1042 m 600 161 q 808 206 718 161 q 948 332 899 251 q 997 521 997 414 q 948 709 997 628 q 808 836 899 791 q 600 881 718 881 l 300 881 l 300 161 l 600 161 m 297 -94 l 897 -94 l 897 -214 l 297 -214 l 297 -94 z "},"ǲ":{"ha":2142,"x_min":117,"x_max":2089,"o":"m 588 1042 q 899 976 763 1042 q 1109 793 1034 911 q 1183 521 1183 675 q 1109 249 1183 367 q 899 65 1034 131 q 588 0 763 0 l 117 0 l 117 1042 l 588 1042 m 600 161 q 808 206 718 161 q 948 332 899 251 q 997 521 997 414 q 948 709 997 628 q 808 836 899 791 q 600 881 718 881 l 300 881 l 300 161 l 600 161 m 1290 131 l 1856 647 l 1296 647 l 1296 786 l 2086 786 l 2086 656 l 1522 139 l 2089 139 l 2089 0 l 1290 0 l 1290 131 z "},"ǅ":{"ha":2142,"x_min":117,"x_max":2089,"o":"m 588 1042 q 899 976 763 1042 q 1109 793 1034 911 q 1183 521 1183 675 q 1109 249 1183 367 q 899 65 1034 131 q 588 0 763 0 l 117 0 l 117 1042 l 588 1042 m 600 161 q 808 206 718 161 q 948 332 899 251 q 997 521 997 414 q 948 709 997 628 q 808 836 899 791 q 600 881 718 881 l 300 881 l 300 161 l 600 161 m 1290 131 l 1856 647 l 1296 647 l 1296 786 l 2086 786 l 2086 656 l 1522 139 l 2089 139 l 2089 0 l 1290 0 l 1290 131 m 1549 1110 l 1690 967 l 1831 1110 l 1986 1110 l 1788 871 l 1593 871 l 1394 1110 l 1549 1110 z "},"E":{"ha":1064,"x_min":81,"x_max":989,"o":"m 949 444 l 330 444 l 284 158 l 989 158 l 989 0 l 81 0 l 164 521 l 81 1042 l 982 1042 l 982 883 l 284 883 l 330 597 l 949 597 l 949 444 z "},"É":{"ha":1064,"x_min":81,"x_max":989,"o":"m 949 444 l 330 444 l 284 158 l 989 158 l 989 0 l 81 0 l 164 521 l 81 1042 l 982 1042 l 982 883 l 284 883 l 330 597 l 949 597 l 949 444 m 828 1338 l 600 1126 l 411 1126 l 614 1338 l 828 1338 z "},"Ĕ":{"ha":1064,"x_min":81,"x_max":989,"o":"m 949 444 l 330 444 l 284 158 l 989 158 l 989 0 l 81 0 l 164 521 l 81 1042 l 982 1042 l 982 883 l 284 883 l 330 597 l 949 597 l 949 444 m 382 1340 q 536 1238 417 1238 q 636 1264 597 1238 q 692 1340 675 1290 l 836 1340 q 731 1176 810 1233 q 536 1119 652 1119 q 341 1176 420 1119 q 238 1340 263 1233 l 382 1340 z "},"Ě":{"ha":1064,"x_min":81,"x_max":989,"o":"m 949 444 l 330 444 l 284 158 l 989 158 l 989 0 l 81 0 l 164 521 l 81 1042 l 982 1042 l 982 883 l 284 883 l 330 597 l 949 597 l 949 444 m 436 1126 l 231 1338 l 396 1338 l 538 1224 l 679 1338 l 843 1338 l 639 1126 l 436 1126 z "},"Ȩ":{"ha":1064,"x_min":81,"x_max":989,"o":"m 949 444 l 330 444 l 284 158 l 989 158 l 989 0 l 615 0 l 574 -68 q 647 -60 606 -60 q 774 -93 728 -60 q 821 -185 821 -127 q 794 -259 821 -226 q 716 -309 767 -291 q 594 -326 665 -326 q 431 -290 499 -326 q 344 -192 364 -254 l 476 -192 q 594 -236 508 -236 q 667 -221 642 -236 q 692 -182 692 -206 q 670 -147 692 -160 q 610 -135 649 -135 q 521 -150 559 -135 l 417 -150 l 512 0 l 81 0 l 164 521 l 81 1042 l 982 1042 l 982 883 l 284 883 l 330 597 l 949 597 l 949 444 z "},"Ḝ":{"ha":1064,"x_min":81,"x_max":989,"o":"m 949 444 l 330 444 l 284 158 l 989 158 l 989 0 l 615 0 l 574 -68 q 647 -60 606 -60 q 774 -93 728 -60 q 821 -185 821 -127 q 794 -259 821 -226 q 716 -309 767 -291 q 594 -326 665 -326 q 431 -290 499 -326 q 344 -192 364 -254 l 476 -192 q 594 -236 508 -236 q 667 -221 642 -236 q 692 -182 692 -206 q 670 -147 692 -160 q 610 -135 649 -135 q 521 -150 559 -135 l 417 -150 l 512 0 l 81 0 l 164 521 l 81 1042 l 982 1042 l 982 883 l 284 883 l 330 597 l 949 597 l 949 444 m 382 1340 q 536 1238 417 1238 q 636 1264 597 1238 q 692 1340 675 1290 l 836 1340 q 731 1176 810 1233 q 536 1119 652 1119 q 341 1176 420 1119 q 238 1340 263 1233 l 382 1340 z "},"Ê":{"ha":1064,"x_min":81,"x_max":989,"o":"m 949 444 l 330 444 l 284 158 l 989 158 l 989 0 l 81 0 l 164 521 l 81 1042 l 982 1042 l 982 883 l 284 883 l 330 597 l 949 597 l 949 444 m 638 1338 l 843 1126 l 678 1126 l 536 1240 l 394 1126 l 231 1126 l 435 1338 l 638 1338 z "},"Ế":{"ha":1064,"x_min":81,"x_max":1010,"o":"m 949 444 l 330 444 l 284 158 l 989 158 l 989 0 l 81 0 l 164 521 l 81 1042 l 982 1042 l 982 883 l 284 883 l 330 597 l 949 597 l 949 444 m 639 1338 l 844 1126 l 679 1126 l 538 1240 l 396 1126 l 232 1126 l 436 1338 l 639 1338 m 835 1490 l 1010 1490 l 865 1299 l 719 1299 l 835 1490 z "},"Ḙ":{"ha":1064,"x_min":81,"x_max":989,"o":"m 949 444 l 330 444 l 284 158 l 989 158 l 989 0 l 81 0 l 164 521 l 81 1042 l 982 1042 l 982 883 l 284 883 l 330 597 l 949 597 l 949 444 m 664 -58 l 863 -297 l 708 -297 l 567 -155 l 426 -297 l 271 -297 l 469 -58 l 664 -58 z "},"Ệ":{"ha":1064,"x_min":81,"x_max":989,"o":"m 949 444 l 330 444 l 284 158 l 989 158 l 989 0 l 81 0 l 164 521 l 81 1042 l 982 1042 l 982 883 l 284 883 l 330 597 l 949 597 l 949 444 m 567 -286 q 482 -258 515 -286 q 449 -183 449 -229 q 482 -109 449 -137 q 567 -81 515 -81 q 652 -109 619 -81 q 685 -183 685 -137 q 652 -258 685 -229 q 567 -286 619 -286 m 638 1338 l 843 1126 l 678 1126 l 536 1240 l 394 1126 l 231 1126 l 435 1338 l 638 1338 z "},"Ề":{"ha":1064,"x_min":81,"x_max":989,"o":"m 949 444 l 330 444 l 284 158 l 989 158 l 989 0 l 81 0 l 164 521 l 81 1042 l 982 1042 l 982 883 l 284 883 l 330 597 l 949 597 l 949 444 m 639 1338 l 844 1126 l 679 1126 l 538 1240 l 396 1126 l 232 1126 l 436 1338 l 639 1338 m 778 1490 l 893 1299 l 747 1299 l 603 1490 l 778 1490 z "},"Ể":{"ha":1064,"x_min":81,"x_max":989,"o":"m 949 444 l 330 444 l 284 158 l 989 158 l 989 0 l 81 0 l 164 521 l 81 1042 l 982 1042 l 982 883 l 284 883 l 330 597 l 949 597 l 949 444 m 639 1338 l 844 1126 l 679 1126 l 538 1240 l 396 1126 l 232 1126 l 436 1338 l 639 1338 m 661 1535 q 720 1547 686 1542 q 789 1551 753 1551 q 932 1518 881 1551 q 983 1425 983 1485 q 934 1332 983 1371 q 783 1269 885 1293 l 744 1328 q 813 1360 792 1343 q 833 1396 833 1376 q 811 1431 833 1419 q 747 1443 789 1443 q 661 1432 706 1443 l 661 1535 z "},"Ễ":{"ha":1064,"x_min":81,"x_max":989,"o":"m 949 444 l 330 444 l 284 158 l 989 158 l 989 0 l 81 0 l 164 521 l 81 1042 l 982 1042 l 982 883 l 284 883 l 330 597 l 949 597 l 949 444 m 638 1338 l 843 1126 l 678 1126 l 536 1240 l 394 1126 l 231 1126 l 435 1338 l 638 1338 m 249 1385 q 297 1529 254 1475 q 411 1583 340 1583 q 481 1572 450 1583 q 550 1538 512 1560 q 593 1517 577 1524 q 625 1510 609 1510 q 666 1528 650 1510 q 689 1582 683 1547 l 804 1582 q 756 1438 799 1490 q 642 1385 714 1385 q 571 1397 603 1385 q 503 1429 540 1408 q 459 1451 474 1444 q 428 1457 444 1457 q 386 1438 403 1457 q 364 1385 370 1419 l 249 1385 z "},"Ȅ":{"ha":1064,"x_min":81,"x_max":989,"o":"m 949 444 l 330 444 l 284 158 l 989 158 l 989 0 l 81 0 l 164 521 l 81 1042 l 982 1042 l 982 883 l 284 883 l 330 597 l 949 597 l 949 444 m 772 1126 l 604 1126 l 422 1338 l 604 1338 l 772 1126 m 300 1338 l 467 1126 l 299 1126 l 117 1338 l 300 1338 z "},"Ë":{"ha":1064,"x_min":81,"x_max":989,"o":"m 949 444 l 330 444 l 284 158 l 989 158 l 989 0 l 81 0 l 164 521 l 81 1042 l 982 1042 l 982 883 l 284 883 l 330 597 l 949 597 l 949 444 m 332 1146 q 251 1174 282 1146 q 219 1246 219 1201 q 251 1317 219 1290 q 332 1344 282 1344 q 413 1317 382 1344 q 444 1246 444 1290 q 413 1174 444 1201 q 332 1146 382 1146 m 629 1246 q 660 1317 629 1290 q 742 1344 692 1344 q 823 1317 792 1344 q 854 1246 854 1290 q 823 1174 854 1201 q 742 1146 792 1146 q 660 1174 692 1146 q 629 1246 629 1201 z "},"Ė":{"ha":1064,"x_min":81,"x_max":989,"o":"m 949 444 l 330 444 l 284 158 l 989 158 l 989 0 l 81 0 l 164 521 l 81 1042 l 982 1042 l 982 883 l 284 883 l 330 597 l 949 597 l 949 444 m 538 1146 q 452 1174 485 1146 q 419 1249 419 1203 q 452 1324 419 1294 q 538 1353 485 1353 q 623 1324 590 1353 q 656 1249 656 1294 q 623 1174 656 1203 q 538 1146 590 1146 z "},"Ẹ":{"ha":1064,"x_min":81,"x_max":989,"o":"m 949 444 l 330 444 l 284 158 l 989 158 l 989 0 l 81 0 l 164 521 l 81 1042 l 982 1042 l 982 883 l 284 883 l 330 597 l 949 597 l 949 444 m 567 -286 q 482 -258 515 -286 q 449 -183 449 -229 q 482 -109 449 -137 q 567 -81 515 -81 q 652 -109 619 -81 q 685 -183 685 -137 q 652 -258 685 -229 q 567 -286 619 -286 z "},"È":{"ha":1064,"x_min":81,"x_max":989,"o":"m 949 444 l 330 444 l 284 158 l 989 158 l 989 0 l 81 0 l 164 521 l 81 1042 l 982 1042 l 982 883 l 284 883 l 330 597 l 949 597 l 949 444 m 643 1126 l 454 1126 l 226 1338 l 440 1338 l 643 1126 z "},"Ẻ":{"ha":1064,"x_min":81,"x_max":989,"o":"m 949 444 l 330 444 l 284 158 l 989 158 l 989 0 l 81 0 l 164 521 l 81 1042 l 982 1042 l 982 883 l 284 883 l 330 597 l 949 597 l 949 444 m 449 1178 q 545 1205 513 1188 q 576 1243 576 1222 q 552 1271 576 1262 q 483 1281 528 1281 q 425 1277 451 1281 q 361 1265 399 1273 l 361 1374 q 434 1388 391 1382 q 519 1394 476 1394 q 679 1363 623 1394 q 735 1267 735 1331 q 676 1167 735 1206 q 490 1107 617 1128 l 449 1178 z "},"Ȇ":{"ha":1064,"x_min":81,"x_max":989,"o":"m 949 444 l 330 444 l 284 158 l 989 158 l 989 0 l 81 0 l 164 521 l 81 1042 l 982 1042 l 982 883 l 284 883 l 330 597 l 949 597 l 949 444 m 692 1124 q 538 1226 657 1226 q 438 1200 477 1226 q 382 1124 399 1174 l 238 1124 q 342 1288 263 1231 q 538 1344 422 1344 q 732 1288 653 1344 q 836 1124 811 1231 l 692 1124 z "},"Ē":{"ha":1064,"x_min":81,"x_max":989,"o":"m 949 444 l 330 444 l 284 158 l 989 158 l 989 0 l 81 0 l 164 521 l 81 1042 l 982 1042 l 982 883 l 284 883 l 330 597 l 949 597 l 949 444 m 238 1286 l 838 1286 l 838 1167 l 238 1167 l 238 1286 z "},"Ḗ":{"ha":1064,"x_min":81,"x_max":989,"o":"m 949 444 l 330 444 l 284 158 l 989 158 l 989 0 l 81 0 l 164 521 l 81 1042 l 982 1042 l 982 883 l 284 883 l 330 597 l 949 597 l 949 444 m 238 1286 l 838 1286 l 838 1167 l 238 1167 l 238 1286 m 828 1578 l 600 1367 l 411 1367 l 614 1578 l 828 1578 z "},"Ḕ":{"ha":1064,"x_min":81,"x_max":989,"o":"m 949 444 l 330 444 l 284 158 l 989 158 l 989 0 l 81 0 l 164 521 l 81 1042 l 982 1042 l 982 883 l 284 883 l 330 597 l 949 597 l 949 444 m 238 1286 l 838 1286 l 838 1167 l 238 1167 l 238 1286 m 643 1367 l 454 1367 l 226 1578 l 440 1578 l 643 1367 z "},"Ę":{"ha":1064,"x_min":81,"x_max":989,"o":"m 949 444 l 330 444 l 284 158 l 989 158 l 989 0 q 819 -108 819 -53 q 904 -150 819 -150 q 989 -142 953 -150 l 989 -257 q 934 -269 970 -264 q 863 -274 899 -274 q 764 -257 807 -274 q 698 -211 722 -241 q 675 -142 675 -181 q 809 0 675 -54 l 81 0 l 164 521 l 81 1042 l 982 1042 l 982 883 l 284 883 l 330 597 l 949 597 l 949 444 z "},"Ɛ":{"ha":1101,"x_min":67,"x_max":1061,"o":"m 847 721 q 753 862 831 813 q 542 911 674 911 q 342 870 408 911 q 276 754 276 829 q 337 643 276 684 q 522 603 398 603 l 711 603 l 711 467 l 522 467 q 315 428 378 467 q 253 313 253 390 q 329 178 253 226 q 551 131 405 131 q 782 182 699 131 q 876 332 864 233 l 1061 332 q 991 147 1055 226 q 814 24 927 67 q 551 -19 701 -19 q 290 21 399 -19 q 124 133 181 61 q 67 300 67 206 q 132 457 67 395 q 315 540 197 519 q 148 630 205 567 q 90 778 90 692 q 144 927 90 863 q 299 1026 199 991 q 532 1061 399 1061 q 790 1017 680 1061 q 961 895 899 972 q 1032 721 1023 818 l 847 721 z "},"Ǝ":{"ha":1064,"x_min":75,"x_max":983,"o":"m 734 597 l 780 883 l 82 883 l 82 1042 l 983 1042 l 900 521 l 983 0 l 75 0 l 75 158 l 780 158 l 734 444 l 115 444 l 115 597 l 734 597 z "},"Ʃ":{"ha":1031,"x_min":50,"x_max":981,"o":"m 50 140 l 486 522 l 63 903 l 63 1042 l 964 1042 l 964 886 l 321 886 l 654 589 l 654 453 l 310 156 l 981 156 l 981 0 l 50 0 l 50 140 z "},"Ɇ":{"ha":1064,"x_min":81,"x_max":989,"o":"m 919 1211 l 858 1042 l 982 1042 l 982 883 l 801 883 l 699 597 l 949 597 l 949 444 l 643 444 l 540 158 l 989 158 l 989 0 l 483 0 l 422 -169 l 272 -169 l 333 0 l 81 0 l 164 521 l 81 1042 l 707 1042 l 768 1211 l 919 1211 m 390 158 l 492 444 l 330 444 l 284 158 l 390 158 m 330 597 l 548 597 l 650 883 l 284 883 l 330 597 z "},"Ẽ":{"ha":1064,"x_min":81,"x_max":989,"o":"m 949 444 l 330 444 l 284 158 l 989 158 l 989 0 l 81 0 l 164 521 l 81 1042 l 982 1042 l 982 883 l 284 883 l 330 597 l 949 597 l 949 444 m 207 1136 q 267 1283 217 1229 q 403 1336 317 1336 q 474 1325 439 1336 q 559 1292 509 1314 q 620 1268 596 1276 q 665 1260 645 1260 q 716 1279 697 1260 q 740 1332 736 1298 l 867 1332 q 806 1185 856 1239 q 671 1132 756 1132 q 600 1143 635 1132 q 515 1176 565 1154 q 453 1200 477 1192 q 408 1208 429 1208 q 357 1189 377 1208 q 333 1136 338 1170 l 207 1136 z "},"Ḛ":{"ha":1064,"x_min":81,"x_max":989,"o":"m 949 444 l 330 444 l 284 158 l 989 158 l 989 0 l 81 0 l 164 521 l 81 1042 l 982 1042 l 982 883 l 284 883 l 330 597 l 949 597 l 949 444 m 251 -276 q 304 -114 258 -173 q 433 -56 351 -56 q 501 -67 468 -56 q 582 -102 533 -79 q 638 -127 616 -119 q 679 -136 660 -136 q 729 -115 709 -136 q 756 -57 749 -94 l 882 -57 q 831 -217 876 -157 q 700 -276 785 -276 q 631 -264 665 -276 q 551 -229 597 -252 q 495 -204 516 -212 q 456 -196 474 -196 q 405 -217 425 -196 q 378 -276 384 -238 l 251 -276 z "},"Ə":{"ha":1265,"x_min":60,"x_max":1203,"o":"m 625 1061 q 940 988 810 1061 q 1137 792 1071 915 q 1203 518 1203 668 q 1131 238 1203 360 q 928 48 1058 116 q 628 -19 797 -19 q 324 56 452 -19 q 127 266 195 132 q 60 574 60 401 l 1014 574 q 953 747 1003 674 q 819 858 903 819 q 626 897 736 897 q 380 833 474 897 q 254 658 285 769 l 69 658 q 164 866 90 775 q 358 1009 239 958 q 625 1061 476 1061 m 253 431 q 318 281 269 346 q 445 181 367 217 q 628 144 524 144 q 810 178 730 144 q 941 277 890 213 q 1009 431 992 342 l 253 431 z "},"Ʒ":{"ha":1088,"x_min":31,"x_max":1025,"o":"m 979 1042 l 979 903 l 610 618 q 838 581 745 617 q 978 477 931 544 q 1025 315 1025 409 q 968 141 1025 217 q 802 23 911 65 q 542 -19 693 -19 q 278 24 392 -19 q 101 147 165 67 q 31 332 38 226 l 215 332 q 311 182 229 233 q 542 131 393 131 q 762 180 685 131 q 839 324 839 229 q 770 451 839 407 q 547 496 702 496 l 404 496 l 404 632 l 738 889 l 88 889 l 88 1042 l 979 1042 z "},"Ǯ":{"ha":1088,"x_min":31,"x_max":1025,"o":"m 979 1042 l 979 903 l 610 618 q 838 581 745 617 q 978 477 931 544 q 1025 315 1025 409 q 968 141 1025 217 q 802 23 911 65 q 542 -19 693 -19 q 278 24 392 -19 q 101 147 165 67 q 31 332 38 226 l 215 332 q 311 182 229 233 q 542 131 393 131 q 762 180 685 131 q 839 324 839 229 q 770 451 839 407 q 547 496 702 496 l 404 496 l 404 632 l 738 889 l 88 889 l 88 1042 l 979 1042 m 413 1126 l 207 1338 l 372 1338 l 514 1224 l 656 1338 l 819 1338 l 615 1126 l 413 1126 z "},"Ƹ":{"ha":1088,"x_min":63,"x_max":1057,"o":"m 1000 889 l 350 889 l 683 632 l 683 496 l 540 496 q 317 451 385 496 q 249 324 249 407 q 325 180 249 229 q 546 131 402 131 q 776 182 694 131 q 872 332 858 233 l 1057 332 q 986 147 1050 226 q 809 24 922 67 q 546 -19 696 -19 q 285 23 394 -19 q 119 141 176 65 q 63 315 63 217 q 110 477 63 409 q 250 581 157 544 q 477 618 342 617 l 108 903 l 108 1042 l 1000 1042 l 1000 889 z "},"F":{"ha":1028,"x_min":117,"x_max":976,"o":"m 976 881 l 300 881 l 300 586 l 954 586 l 954 425 l 300 425 l 300 0 l 117 0 l 117 1042 l 976 1042 l 976 881 z "},"Ḟ":{"ha":1028,"x_min":117,"x_max":976,"o":"m 976 881 l 300 881 l 300 586 l 954 586 l 954 425 l 300 425 l 300 0 l 117 0 l 117 1042 l 976 1042 l 976 881 m 538 1146 q 452 1174 485 1146 q 419 1249 419 1203 q 452 1324 419 1294 q 538 1353 485 1353 q 623 1324 590 1353 q 656 1249 656 1294 q 623 1174 656 1203 q 538 1146 590 1146 z "},"Ƒ":{"ha":1028,"x_min":-171,"x_max":976,"o":"m 300 54 q 223 -169 300 -90 q 1 -249 147 -249 q -171 -218 -97 -249 l -171 -74 q -39 -99 -101 -99 q 78 -56 40 -99 q 117 74 117 -14 l 117 1042 l 976 1042 l 976 881 l 300 881 l 300 586 l 954 586 l 954 425 l 300 425 l 300 54 z "},"G":{"ha":1314,"x_min":63,"x_max":1225,"o":"m 699 513 l 1225 513 l 1225 0 l 1089 0 l 1079 190 q 901 36 1013 92 q 640 -19 788 -19 q 343 47 475 -19 q 137 235 212 113 q 63 521 63 358 q 138 807 63 684 q 347 995 213 929 q 650 1061 480 1061 q 927 1010 806 1061 q 1123 867 1049 958 q 1214 660 1197 776 l 1028 660 q 962 788 1013 733 q 831 871 912 842 q 649 900 751 900 q 436 855 526 900 q 298 724 347 810 q 249 521 249 639 q 299 316 249 402 q 443 183 350 229 q 663 138 537 138 q 844 166 763 138 q 981 248 925 195 q 1060 374 1036 301 l 699 374 l 699 513 z "},"Ǵ":{"ha":1314,"x_min":63,"x_max":1225,"o":"m 699 513 l 1225 513 l 1225 0 l 1089 0 l 1079 190 q 901 36 1013 92 q 640 -19 788 -19 q 343 47 475 -19 q 137 235 212 113 q 63 521 63 358 q 138 807 63 684 q 347 995 213 929 q 650 1061 480 1061 q 927 1010 806 1061 q 1123 867 1049 958 q 1214 660 1197 776 l 1028 660 q 962 788 1013 733 q 831 871 912 842 q 649 900 751 900 q 436 855 526 900 q 298 724 347 810 q 249 521 249 639 q 299 316 249 402 q 443 183 350 229 q 663 138 537 138 q 844 166 763 138 q 981 248 925 195 q 1060 374 1036 301 l 699 374 l 699 513 m 940 1338 l 713 1126 l 524 1126 l 726 1338 l 940 1338 z "},"Ğ":{"ha":1314,"x_min":63,"x_max":1225,"o":"m 699 513 l 1225 513 l 1225 0 l 1089 0 l 1079 190 q 901 36 1013 92 q 640 -19 788 -19 q 343 47 475 -19 q 137 235 212 113 q 63 521 63 358 q 138 807 63 684 q 347 995 213 929 q 650 1061 480 1061 q 927 1010 806 1061 q 1123 867 1049 958 q 1214 660 1197 776 l 1028 660 q 962 788 1013 733 q 831 871 912 842 q 649 900 751 900 q 436 855 526 900 q 298 724 347 810 q 249 521 249 639 q 299 316 249 402 q 443 183 350 229 q 663 138 537 138 q 844 166 763 138 q 981 248 925 195 q 1060 374 1036 301 l 699 374 l 699 513 m 494 1340 q 649 1238 529 1238 q 748 1264 709 1238 q 804 1340 788 1290 l 949 1340 q 844 1176 923 1233 q 649 1119 765 1119 q 454 1176 533 1119 q 350 1340 375 1233 l 494 1340 z "},"Ǧ":{"ha":1314,"x_min":63,"x_max":1225,"o":"m 699 513 l 1225 513 l 1225 0 l 1089 0 l 1079 190 q 901 36 1013 92 q 640 -19 788 -19 q 343 47 475 -19 q 137 235 212 113 q 63 521 63 358 q 138 807 63 684 q 347 995 213 929 q 650 1061 480 1061 q 927 1010 806 1061 q 1123 867 1049 958 q 1214 660 1197 776 l 1028 660 q 962 788 1013 733 q 831 871 912 842 q 649 900 751 900 q 436 855 526 900 q 298 724 347 810 q 249 521 249 639 q 299 316 249 402 q 443 183 350 229 q 663 138 537 138 q 844 166 763 138 q 981 248 925 195 q 1060 374 1036 301 l 699 374 l 699 513 m 549 1126 l 343 1338 l 508 1338 l 650 1224 l 792 1338 l 956 1338 l 751 1126 l 549 1126 z "},"Ĝ":{"ha":1314,"x_min":63,"x_max":1225,"o":"m 699 513 l 1225 513 l 1225 0 l 1089 0 l 1079 190 q 901 36 1013 92 q 640 -19 788 -19 q 343 47 475 -19 q 137 235 212 113 q 63 521 63 358 q 138 807 63 684 q 347 995 213 929 q 650 1061 480 1061 q 927 1010 806 1061 q 1123 867 1049 958 q 1214 660 1197 776 l 1028 660 q 962 788 1013 733 q 831 871 912 842 q 649 900 751 900 q 436 855 526 900 q 298 724 347 810 q 249 521 249 639 q 299 316 249 402 q 443 183 350 229 q 663 138 537 138 q 844 166 763 138 q 981 248 925 195 q 1060 374 1036 301 l 699 374 l 699 513 m 750 1338 l 956 1126 l 790 1126 l 649 1240 l 507 1126 l 343 1126 l 547 1338 l 750 1338 z "},"Ģ":{"ha":1314,"x_min":63,"x_max":1225,"o":"m 699 513 l 1225 513 l 1225 0 l 1089 0 l 1079 190 q 901 36 1013 92 q 640 -19 788 -19 q 343 47 475 -19 q 137 235 212 113 q 63 521 63 358 q 138 807 63 684 q 347 995 213 929 q 650 1061 480 1061 q 927 1010 806 1061 q 1123 867 1049 958 q 1214 660 1197 776 l 1028 660 q 962 788 1013 733 q 831 871 912 842 q 649 900 751 900 q 436 855 526 900 q 298 724 347 810 q 249 521 249 639 q 299 316 249 402 q 443 183 350 229 q 663 138 537 138 q 844 166 763 138 q 981 248 925 195 q 1060 374 1036 301 l 699 374 l 699 513 m 619 -241 q 565 -210 585 -233 q 544 -156 544 -187 q 574 -90 544 -115 q 653 -65 603 -65 q 732 -92 702 -65 q 763 -158 763 -118 q 757 -195 763 -178 q 740 -231 752 -211 q 701 -289 728 -251 l 647 -365 l 550 -365 l 619 -241 z "},"Ġ":{"ha":1314,"x_min":63,"x_max":1225,"o":"m 699 513 l 1225 513 l 1225 0 l 1089 0 l 1079 190 q 901 36 1013 92 q 640 -19 788 -19 q 343 47 475 -19 q 137 235 212 113 q 63 521 63 358 q 138 807 63 684 q 347 995 213 929 q 650 1061 480 1061 q 927 1010 806 1061 q 1123 867 1049 958 q 1214 660 1197 776 l 1028 660 q 962 788 1013 733 q 831 871 912 842 q 649 900 751 900 q 436 855 526 900 q 298 724 347 810 q 249 521 249 639 q 299 316 249 402 q 443 183 350 229 q 663 138 537 138 q 844 166 763 138 q 981 248 925 195 q 1060 374 1036 301 l 699 374 l 699 513 m 650 1146 q 565 1174 598 1146 q 532 1249 532 1203 q 565 1324 532 1294 q 650 1353 598 1353 q 735 1324 702 1353 q 768 1249 768 1294 q 735 1174 768 1203 q 650 1146 702 1146 z "},"Ɠ":{"ha":1310,"x_min":64,"x_max":1379,"o":"m 642 -19 q 345 47 476 -19 q 139 235 213 113 q 64 521 64 358 q 139 807 64 684 q 348 995 215 929 q 651 1061 481 1061 q 831 1039 753 1061 q 967 973 908 1017 q 954 1051 954 1014 q 983 1154 954 1109 q 1070 1225 1013 1199 q 1213 1250 1128 1250 q 1379 1219 1301 1250 l 1379 1075 q 1314 1094 1344 1088 q 1251 1100 1284 1100 q 1150 1069 1183 1100 q 1117 988 1117 1039 q 1130 912 1117 956 q 1172 799 1144 869 q 1215 660 1206 716 l 1028 660 q 962 788 1013 733 q 832 871 912 842 q 650 900 751 900 q 438 855 528 900 q 299 724 348 810 q 250 521 250 639 q 301 315 250 401 q 444 183 351 228 q 664 138 538 138 q 846 166 765 138 q 983 248 927 194 q 1063 374 1038 301 l 700 374 l 700 513 l 1226 513 l 1226 0 l 1090 0 l 1081 190 q 902 36 1015 92 q 642 -19 790 -19 z "},"Ɂ":{"ha":981,"x_min":18,"x_max":958,"o":"m 515 1061 q 762 1022 663 1061 q 910 915 861 983 q 958 758 958 847 q 942 660 958 701 q 889 579 926 619 q 781 486 851 540 l 692 419 q 617 351 643 383 q 579 278 590 319 q 568 178 568 238 l 568 0 l 385 0 l 385 200 q 401 329 385 275 q 451 426 417 383 q 543 511 485 469 l 636 581 q 722 649 694 624 q 760 698 749 674 q 772 756 772 722 q 703 872 772 833 q 507 911 633 911 q 296 862 374 911 q 201 721 218 813 l 18 721 q 88 895 26 818 q 259 1017 149 972 q 515 1061 368 1061 z "},"Ḡ":{"ha":1314,"x_min":63,"x_max":1225,"o":"m 699 513 l 1225 513 l 1225 0 l 1089 0 l 1079 190 q 901 36 1013 92 q 640 -19 788 -19 q 343 47 475 -19 q 137 235 212 113 q 63 521 63 358 q 138 807 63 684 q 347 995 213 929 q 650 1061 480 1061 q 927 1010 806 1061 q 1123 867 1049 958 q 1214 660 1197 776 l 1028 660 q 962 788 1013 733 q 831 871 912 842 q 649 900 751 900 q 436 855 526 900 q 298 724 347 810 q 249 521 249 639 q 299 316 249 402 q 443 183 350 229 q 663 138 537 138 q 844 166 763 138 q 981 248 925 195 q 1060 374 1036 301 l 699 374 l 699 513 m 350 1286 l 950 1286 l 950 1167 l 350 1167 l 350 1286 z "},"Ɡ":{"ha":1296,"x_min":63,"x_max":1185,"o":"m 1001 394 q 885 261 956 321 q 722 166 815 202 q 524 131 630 131 q 289 189 394 131 q 123 353 183 247 q 63 596 63 459 q 123 839 63 733 q 289 1003 183 945 q 524 1061 394 1061 q 722 1024 629 1061 q 884 927 814 988 q 1001 792 955 866 l 1001 1042 l 1185 1042 l 1185 322 q 1111 6 1185 135 q 905 -185 1037 -122 q 601 -249 774 -249 q 365 -214 474 -249 q 160 -107 256 -178 l 160 64 q 372 -53 263 -17 q 589 -90 481 -90 q 814 -44 721 -90 q 954 91 906 3 q 1001 300 1001 178 l 1001 394 m 249 596 q 288 435 249 506 q 401 326 327 365 q 576 286 475 286 q 819 362 710 286 q 1010 596 927 438 q 818 830 928 753 q 576 906 709 906 q 401 866 475 906 q 288 757 327 827 q 249 596 249 686 z "},"Ǥ":{"ha":1349,"x_min":63,"x_max":1353,"o":"m 1069 375 q 1074 428 1074 404 l 717 428 l 717 564 l 1225 564 l 1225 375 l 1353 375 l 1353 253 l 1225 253 l 1225 1 l 1100 1 l 1093 187 q 916 34 1029 88 q 647 -19 803 -19 q 344 47 476 -19 q 137 235 211 113 q 63 521 63 357 q 138 807 63 684 q 347 995 213 929 q 650 1061 480 1061 q 922 1012 803 1061 q 1114 876 1040 963 q 1210 676 1188 789 l 1017 676 q 953 793 1002 742 q 827 874 905 844 q 653 903 750 903 q 439 857 531 903 q 298 725 348 811 q 249 521 249 639 q 297 317 249 405 q 439 182 346 230 q 664 133 533 133 q 873 164 784 133 q 1012 253 961 194 l 649 253 l 649 375 l 1069 375 z "},"Ȝ":{"ha":1088,"x_min":31,"x_max":1025,"o":"m 979 1042 l 979 903 l 610 618 q 838 581 745 617 q 978 477 931 544 q 1025 315 1025 409 q 968 141 1025 217 q 802 23 911 65 q 542 -19 693 -19 q 278 24 392 -19 q 101 147 165 67 q 31 332 38 226 l 215 332 q 311 182 229 233 q 542 131 393 131 q 762 180 685 131 q 839 324 839 229 q 770 451 839 407 q 547 496 702 496 l 404 496 l 404 632 l 738 889 l 88 889 l 88 1042 l 979 1042 z "},"H":{"ha":1264,"x_min":117,"x_max":1147,"o":"m 300 1042 l 300 606 l 964 606 l 964 1042 l 1147 1042 l 1147 0 l 964 0 l 964 444 l 300 444 l 300 0 l 117 0 l 117 1042 l 300 1042 z "},"Ħ":{"ha":1304,"x_min":33,"x_max":1271,"o":"m 319 1042 l 319 914 l 985 914 l 985 1042 l 1168 1042 l 1168 914 l 1271 914 l 1271 778 l 1168 778 l 1168 0 l 985 0 l 985 429 l 319 429 l 319 0 l 136 0 l 136 778 l 33 778 l 33 914 l 136 914 l 136 1042 l 319 1042 m 985 590 l 985 778 l 319 778 l 319 590 l 985 590 z "},"Ḫ":{"ha":1264,"x_min":117,"x_max":1147,"o":"m 300 1042 l 300 606 l 964 606 l 964 1042 l 1147 1042 l 1147 0 l 964 0 l 964 444 l 300 444 l 300 0 l 117 0 l 117 1042 l 300 1042 m 490 -58 q 542 -151 502 -118 q 640 -185 581 -185 q 739 -151 699 -185 q 792 -58 779 -118 l 932 -58 q 840 -237 916 -174 q 640 -301 765 -301 q 441 -237 517 -301 q 349 -58 365 -174 l 490 -58 z "},"Ȟ":{"ha":1264,"x_min":117,"x_max":1147,"o":"m 300 1042 l 300 606 l 964 606 l 964 1042 l 1147 1042 l 1147 0 l 964 0 l 964 444 l 300 444 l 300 0 l 117 0 l 117 1042 l 300 1042 m 531 1126 l 325 1338 l 490 1338 l 632 1224 l 774 1338 l 938 1338 l 733 1126 l 531 1126 z "},"Ḩ":{"ha":1264,"x_min":-12,"x_max":1147,"o":"m 300 1042 l 300 606 l 964 606 l 964 1042 l 1147 1042 l 1147 0 l 964 0 l 964 444 l 300 444 l 300 0 l 258 0 l 217 -68 q 290 -60 249 -60 q 417 -93 371 -60 q 464 -185 464 -127 q 437 -259 464 -226 q 359 -309 410 -291 q 238 -326 308 -326 q 74 -290 142 -326 q -12 -192 7 -254 l 119 -192 q 238 -236 151 -236 q 310 -221 285 -236 q 335 -182 335 -206 q 313 -147 335 -160 q 253 -135 292 -135 q 164 -150 202 -135 l 60 -150 l 155 0 l 117 0 l 117 1042 l 300 1042 z "},"Ĥ":{"ha":1264,"x_min":117,"x_max":1147,"o":"m 300 1042 l 300 606 l 964 606 l 964 1042 l 1147 1042 l 1147 0 l 964 0 l 964 444 l 300 444 l 300 0 l 117 0 l 117 1042 l 300 1042 m 732 1338 l 938 1126 l 772 1126 l 631 1240 l 489 1126 l 325 1126 l 529 1338 l 732 1338 z "},"Ḧ":{"ha":1264,"x_min":117,"x_max":1147,"o":"m 300 1042 l 300 606 l 964 606 l 964 1042 l 1147 1042 l 1147 0 l 964 0 l 964 444 l 300 444 l 300 0 l 117 0 l 117 1042 l 300 1042 m 426 1146 q 345 1174 376 1146 q 314 1246 314 1201 q 345 1317 314 1290 q 426 1344 376 1344 q 508 1317 476 1344 q 539 1246 539 1290 q 508 1174 539 1201 q 426 1146 476 1146 m 724 1246 q 755 1317 724 1290 q 836 1344 786 1344 q 917 1317 886 1344 q 949 1246 949 1290 q 917 1174 949 1201 q 836 1146 886 1146 q 755 1174 786 1146 q 724 1246 724 1201 z "},"Ḣ":{"ha":1264,"x_min":117,"x_max":1147,"o":"m 300 1042 l 300 606 l 964 606 l 964 1042 l 1147 1042 l 1147 0 l 964 0 l 964 444 l 300 444 l 300 0 l 117 0 l 117 1042 l 300 1042 m 632 1146 q 547 1174 580 1146 q 514 1249 514 1203 q 547 1324 514 1294 q 632 1353 580 1353 q 717 1324 684 1353 q 750 1249 750 1294 q 717 1174 750 1203 q 632 1146 684 1146 z "},"Ḥ":{"ha":1264,"x_min":117,"x_max":1147,"o":"m 300 1042 l 300 606 l 964 606 l 964 1042 l 1147 1042 l 1147 0 l 964 0 l 964 444 l 300 444 l 300 0 l 117 0 l 117 1042 l 300 1042 m 632 -286 q 547 -258 580 -286 q 514 -183 514 -229 q 547 -109 514 -137 q 632 -81 580 -81 q 717 -109 684 -81 q 750 -183 750 -137 q 717 -258 750 -229 q 632 -286 684 -286 z "},"Ꜧ":{"ha":1264,"x_min":117,"x_max":1147,"o":"m 300 1042 l 300 606 l 964 606 l 964 1042 l 1147 1042 l 1147 39 q 1069 -172 1147 -95 q 824 -249 990 -249 q 695 -235 756 -249 q 593 -203 633 -222 l 593 -57 q 691 -91 638 -79 q 801 -103 744 -103 q 900 -87 865 -103 q 949 -34 935 -71 q 964 68 964 3 l 964 444 l 300 444 l 300 0 l 117 0 l 117 1042 l 300 1042 z "},"Ɦ":{"ha":1538,"x_min":32,"x_max":1421,"o":"m 574 606 l 1238 606 l 1238 1042 l 1421 1042 l 1421 0 l 1238 0 l 1238 444 l 574 444 l 574 0 l 390 0 l 390 886 l 315 886 q 226 860 256 886 q 196 775 196 834 q 205 700 196 737 q 229 621 213 664 l 83 621 q 46 714 60 663 q 32 818 32 765 q 95 984 32 926 q 279 1042 159 1042 l 574 1042 l 574 606 z "},"Ɥ":{"ha":1143,"x_min":83,"x_max":1026,"o":"m 267 1042 l 267 604 l 843 604 l 843 1042 l 1026 1042 l 1026 0 l 843 0 l 843 443 l 83 443 l 83 1042 l 267 1042 z "},"I":{"ha":417,"x_min":117,"x_max":300,"o":"m 300 1042 l 300 0 l 117 0 l 117 1042 l 300 1042 z "},"Ĳ":{"ha":1139,"x_min":89,"x_max":1035,"o":"m 272 1042 l 272 565 l 89 565 l 89 1042 l 272 1042 m 90 471 l 271 471 l 271 425 q 341 212 271 285 q 561 139 411 139 q 781 210 710 139 q 851 414 851 281 l 851 1042 l 1035 1042 l 1035 407 q 976 173 1035 268 q 810 29 917 77 q 561 -19 703 -19 q 313 30 419 -19 q 149 176 207 78 q 90 414 90 273 l 90 471 z "},"Í":{"ha":417,"x_min":82,"x_max":499,"o":"m 300 1042 l 300 0 l 117 0 l 117 1042 l 300 1042 m 499 1338 l 271 1126 l 82 1126 l 285 1338 l 499 1338 z "},"Ĭ":{"ha":417,"x_min":-42,"x_max":457,"o":"m 300 1042 l 300 0 l 117 0 l 117 1042 l 300 1042 m 90 1338 q 130 1257 100 1285 q 208 1229 159 1229 q 287 1257 258 1229 q 326 1338 317 1285 l 457 1338 q 417 1221 449 1270 q 332 1146 385 1172 q 208 1119 278 1119 q 84 1146 138 1119 q -2 1221 31 1172 q -42 1338 -34 1270 l 90 1338 z "},"Ǐ":{"ha":417,"x_min":-99,"x_max":514,"o":"m 300 1042 l 300 0 l 117 0 l 117 1042 l 300 1042 m 107 1126 l -99 1338 l 67 1338 l 208 1224 l 350 1338 l 514 1338 l 310 1126 l 107 1126 z "},"Î":{"ha":417,"x_min":-44,"x_max":461,"o":"m 300 1042 l 300 0 l 117 0 l 117 1042 l 300 1042 m 111 1338 l 306 1338 l 461 1126 l 319 1126 l 208 1244 l 97 1126 l -44 1126 l 111 1338 z "},"Ȉ":{"ha":417,"x_min":-103,"x_max":433,"o":"m 300 1042 l 300 0 l 117 0 l 117 1042 l 300 1042 m 54 1338 l 176 1126 l 28 1126 l -103 1338 l 54 1338 m 310 1338 l 433 1126 l 283 1126 l 153 1338 l 310 1338 z "},"Ï":{"ha":417,"x_min":-25,"x_max":442,"o":"m 300 1042 l 300 0 l 117 0 l 117 1042 l 300 1042 m -25 1246 q 2 1318 -25 1291 q 74 1344 29 1344 q 145 1318 119 1344 q 172 1246 172 1291 q 145 1173 172 1200 q 74 1146 119 1146 q 2 1173 28 1146 q -25 1246 -25 1200 m 246 1246 q 273 1317 246 1290 q 343 1344 299 1344 q 415 1318 388 1344 q 442 1246 442 1291 q 415 1173 442 1200 q 343 1146 388 1146 q 273 1173 299 1146 q 246 1246 246 1200 z "},"Ḯ":{"ha":417,"x_min":-25,"x_max":499,"o":"m 300 1042 l 300 0 l 117 0 l 117 1042 l 300 1042 m -25 1246 q 2 1318 -25 1291 q 74 1344 29 1344 q 145 1318 119 1344 q 172 1246 172 1291 q 145 1173 172 1200 q 74 1146 119 1146 q 2 1173 28 1146 q -25 1246 -25 1200 m 285 1618 l 499 1618 l 271 1407 l 82 1407 l 285 1618 m 246 1246 q 273 1317 246 1290 q 343 1344 299 1344 q 415 1318 388 1344 q 442 1246 442 1291 q 415 1173 442 1200 q 343 1146 388 1146 q 273 1173 299 1146 q 246 1246 246 1200 z "},"İ":{"ha":417,"x_min":90,"x_max":326,"o":"m 300 1042 l 300 0 l 117 0 l 117 1042 l 300 1042 m 208 1146 q 123 1174 156 1146 q 90 1249 90 1203 q 123 1324 90 1294 q 208 1353 156 1353 q 293 1324 260 1353 q 326 1249 326 1294 q 293 1174 326 1203 q 208 1146 260 1146 z "},"Ị":{"ha":417,"x_min":90,"x_max":326,"o":"m 300 1042 l 300 0 l 117 0 l 117 1042 l 300 1042 m 208 -286 q 123 -258 156 -286 q 90 -183 90 -229 q 123 -109 90 -137 q 208 -81 156 -81 q 293 -109 260 -81 q 326 -183 326 -137 q 293 -258 326 -229 q 208 -286 260 -286 z "},"Ì":{"ha":417,"x_min":-103,"x_max":314,"o":"m 300 1042 l 300 0 l 117 0 l 117 1042 l 300 1042 m 314 1126 l 125 1126 l -103 1338 l 111 1338 l 314 1126 z "},"Ỉ":{"ha":417,"x_min":32,"x_max":406,"o":"m 300 1042 l 300 0 l 117 0 l 117 1042 l 300 1042 m 119 1178 q 216 1205 184 1188 q 247 1243 247 1222 q 223 1271 247 1262 q 154 1281 199 1281 q 96 1277 122 1281 q 32 1265 70 1273 l 32 1374 q 105 1388 62 1382 q 190 1394 147 1394 q 350 1363 294 1394 q 406 1267 406 1331 q 347 1167 406 1206 q 161 1107 288 1128 l 119 1178 z "},"Ȋ":{"ha":417,"x_min":-92,"x_max":507,"o":"m 300 1042 l 300 0 l 117 0 l 117 1042 l 300 1042 m 363 1124 q 208 1226 328 1226 q 109 1200 148 1226 q 53 1124 69 1174 l -92 1124 q 13 1288 -66 1231 q 208 1344 92 1344 q 403 1288 324 1344 q 507 1124 482 1231 l 363 1124 z "},"Ī":{"ha":417,"x_min":-25,"x_max":442,"o":"m 300 1042 l 300 0 l 117 0 l 117 1042 l 300 1042 m -25 1286 l 442 1286 l 442 1165 l -25 1165 l -25 1286 z "},"Į":{"ha":417,"x_min":36,"x_max":343,"o":"m 300 1042 l 300 0 q 211 -53 242 -27 q 181 -108 181 -79 q 200 -140 181 -129 q 261 -150 220 -150 q 304 -148 281 -150 q 343 -142 327 -146 l 343 -257 q 290 -268 326 -263 q 221 -274 255 -274 q 86 -240 137 -274 q 36 -149 36 -206 q 68 -67 36 -104 q 160 0 99 -30 l 117 0 l 117 1042 l 300 1042 z "},"Ɩ":{"ha":514,"x_min":113,"x_max":485,"o":"m 296 1042 l 296 254 q 320 160 296 189 q 400 131 344 131 q 485 144 441 131 l 485 0 q 353 -19 424 -19 q 113 244 113 -19 l 113 1042 l 296 1042 z "},"Ɨ":{"ha":486,"x_min":24,"x_max":463,"o":"m 24 606 l 151 606 l 151 1042 l 335 1042 l 335 606 l 463 606 l 463 469 l 335 469 l 335 0 l 151 0 l 151 469 l 24 469 l 24 606 z "},"Ĩ":{"ha":417,"x_min":-35,"x_max":451,"o":"m 300 1042 l 300 0 l 117 0 l 117 1042 l 300 1042 m -35 1136 q 9 1281 -29 1228 q 114 1333 47 1333 q 169 1321 146 1333 q 223 1285 193 1309 q 260 1260 245 1268 q 292 1251 275 1251 q 329 1272 315 1251 q 350 1332 344 1293 l 451 1332 q 408 1188 446 1240 q 304 1135 369 1135 q 248 1147 272 1135 q 194 1183 224 1160 q 157 1209 171 1201 q 126 1217 142 1217 q 89 1196 103 1217 q 68 1136 74 1175 l -35 1136 z "},"Ḭ":{"ha":417,"x_min":-35,"x_max":451,"o":"m 300 1042 l 300 0 l 117 0 l 117 1042 l 300 1042 m -35 -251 q 9 -107 -29 -160 q 114 -54 47 -54 q 169 -66 146 -54 q 223 -102 193 -78 q 260 -128 245 -119 q 292 -136 275 -136 q 329 -115 315 -136 q 350 -56 344 -94 l 451 -56 q 408 -200 446 -147 q 304 -253 369 -253 q 248 -240 272 -253 q 194 -205 224 -228 q 157 -179 171 -187 q 126 -171 142 -171 q 89 -192 103 -171 q 68 -251 74 -212 l -35 -251 z "},"J":{"ha":1082,"x_min":35,"x_max":978,"o":"m 215 499 l 215 453 q 285 223 215 302 q 504 144 355 144 q 723 221 652 144 q 794 442 794 298 l 794 1042 l 978 1042 l 978 435 q 919 185 978 288 q 753 32 860 83 q 504 -19 647 -19 q 257 33 363 -19 q 93 189 151 85 q 35 442 35 292 l 35 499 l 215 499 z "},"Ĵ":{"ha":1082,"x_min":35,"x_max":1139,"o":"m 215 499 l 215 453 q 285 223 215 302 q 504 144 355 144 q 723 221 652 144 q 794 442 794 298 l 794 1042 l 978 1042 l 978 435 q 919 185 978 288 q 753 32 860 83 q 504 -19 647 -19 q 257 33 363 -19 q 93 189 151 85 q 35 442 35 292 l 35 499 l 215 499 m 789 1338 l 983 1338 l 1139 1126 l 997 1126 l 886 1244 l 775 1126 l 633 1126 l 789 1338 z "},"Ʝ":{"ha":1161,"x_min":24,"x_max":1103,"o":"m 979 435 q 978 399 979 411 q 1103 314 1051 358 l 1103 138 q 951 253 1037 201 q 782 51 903 122 q 469 -19 660 -19 q 234 18 335 -19 q 78 121 133 56 q 24 265 24 185 q 79 412 24 351 q 238 505 135 473 q 482 536 341 536 q 796 481 636 536 l 796 1042 l 979 1042 l 979 435 m 210 263 q 239 200 210 228 q 326 157 268 173 q 469 142 385 142 q 683 190 606 142 q 784 333 760 238 q 485 389 631 389 q 333 373 394 389 q 240 328 271 356 q 210 263 210 299 z "},"Ɉ":{"ha":1135,"x_min":35,"x_max":1107,"o":"m 794 679 l 794 1042 l 978 1042 l 978 679 l 1107 679 l 1107 543 l 978 543 l 978 435 q 919 185 978 288 q 753 32 860 83 q 504 -19 647 -19 q 257 33 363 -19 q 93 189 151 85 q 35 442 35 292 l 35 499 l 215 499 l 215 453 q 285 223 215 302 q 504 144 355 144 q 723 221 652 144 q 794 442 794 298 l 794 543 l 504 543 l 504 679 l 794 679 z "},"K":{"ha":1156,"x_min":117,"x_max":1156,"o":"m 117 1042 l 300 1042 l 300 257 l 942 1042 l 1140 1042 l 774 599 l 1156 0 l 946 0 l 656 455 l 281 0 l 117 0 l 117 1042 z "},"Ḱ":{"ha":1156,"x_min":117,"x_max":1156,"o":"m 117 1042 l 300 1042 l 300 257 l 942 1042 l 1140 1042 l 774 599 l 1156 0 l 946 0 l 656 455 l 281 0 l 117 0 l 117 1042 m 904 1338 l 676 1126 l 488 1126 l 690 1338 l 904 1338 z "},"Ǩ":{"ha":1156,"x_min":117,"x_max":1156,"o":"m 117 1042 l 300 1042 l 300 257 l 942 1042 l 1140 1042 l 774 599 l 1156 0 l 946 0 l 656 455 l 281 0 l 117 0 l 117 1042 m 513 1126 l 307 1338 l 472 1338 l 614 1224 l 756 1338 l 919 1338 l 715 1126 l 513 1126 z "},"Ķ":{"ha":1156,"x_min":117,"x_max":1156,"o":"m 117 1042 l 300 1042 l 300 257 l 942 1042 l 1140 1042 l 774 599 l 1156 0 l 946 0 l 656 455 l 281 0 l 117 0 l 117 1042 m 576 -241 q 522 -210 542 -233 q 501 -156 501 -187 q 531 -90 501 -115 q 610 -65 560 -65 q 689 -92 659 -65 q 719 -158 719 -118 q 714 -195 719 -178 q 697 -231 709 -211 q 658 -289 685 -251 l 604 -365 l 507 -365 l 576 -241 z "},"Ḳ":{"ha":1156,"x_min":117,"x_max":1156,"o":"m 117 1042 l 300 1042 l 300 257 l 942 1042 l 1140 1042 l 774 599 l 1156 0 l 946 0 l 656 455 l 281 0 l 117 0 l 117 1042 m 610 -286 q 525 -258 558 -286 q 492 -183 492 -229 q 525 -109 492 -137 q 610 -81 558 -81 q 695 -109 662 -81 q 728 -183 728 -137 q 695 -258 728 -229 q 610 -286 662 -286 z "},"Ƙ":{"ha":1181,"x_min":117,"x_max":1157,"o":"m 117 1042 l 300 1042 l 300 265 l 821 947 q 912 1032 864 1003 q 1033 1061 960 1061 q 1157 1042 1096 1061 l 1157 897 q 1101 907 1122 904 q 1058 910 1080 910 q 985 891 1013 910 q 929 836 958 872 l 753 609 l 1157 0 l 944 0 l 640 463 l 281 0 l 117 0 l 117 1042 z "},"Ḵ":{"ha":1156,"x_min":117,"x_max":1156,"o":"m 117 1042 l 300 1042 l 300 257 l 942 1042 l 1140 1042 l 774 599 l 1156 0 l 946 0 l 656 455 l 281 0 l 117 0 l 117 1042 m 310 -94 l 910 -94 l 910 -214 l 310 -214 l 310 -94 z "},"L":{"ha":1025,"x_min":117,"x_max":1003,"o":"m 300 161 l 1003 161 l 1003 0 l 117 0 l 117 1042 l 300 1042 l 300 161 z "},"Ǉ":{"ha":2100,"x_min":117,"x_max":1996,"o":"m 300 161 l 1003 161 l 1003 0 l 117 0 l 117 1042 l 300 1042 l 300 161 m 1233 499 l 1233 453 q 1303 223 1233 302 q 1522 144 1373 144 q 1741 221 1670 144 q 1813 442 1813 298 l 1813 1042 l 1996 1042 l 1996 435 q 1937 185 1996 288 q 1771 32 1878 83 q 1522 -19 1665 -19 q 1275 33 1381 -19 q 1111 189 1169 85 q 1053 442 1053 292 l 1053 499 l 1233 499 z "},"Ĺ":{"ha":1025,"x_min":82,"x_max":1003,"o":"m 300 161 l 1003 161 l 1003 0 l 117 0 l 117 1042 l 300 1042 l 300 161 m 499 1338 l 271 1126 l 82 1126 l 285 1338 l 499 1338 z "},"Ƚ":{"ha":1063,"x_min":25,"x_max":1039,"o":"m 153 639 l 153 1042 l 336 1042 l 336 639 l 706 639 l 706 503 l 336 503 l 336 161 l 1039 161 l 1039 0 l 153 0 l 153 503 l 25 503 l 25 639 l 153 639 z "},"Ɬ":{"ha":1228,"x_min":15,"x_max":1206,"o":"m 208 758 q 319 732 272 758 l 319 1042 l 503 1042 l 503 558 q 775 707 620 600 l 775 561 q 641 481 711 517 q 503 423 572 445 l 503 161 l 1206 161 l 1206 0 l 319 0 l 319 385 q 265 382 294 382 q 132 406 188 382 q 45 474 76 429 q 15 578 15 518 q 38 671 15 630 q 104 735 60 712 q 208 758 147 758 m 153 581 q 182 528 153 549 q 274 508 210 508 q 319 511 299 508 l 319 599 q 278 631 303 620 q 226 642 254 642 q 172 625 191 642 q 153 581 153 608 z "},"Ľ":{"ha":1026,"x_min":117,"x_max":1003,"o":"m 300 161 l 1003 161 l 1003 0 l 117 0 l 117 1042 l 300 1042 l 300 161 m 728 1042 l 658 732 l 526 732 l 564 1042 l 728 1042 z "},"Ḽ":{"ha":1025,"x_min":117,"x_max":1003,"o":"m 300 161 l 1003 161 l 1003 0 l 117 0 l 117 1042 l 300 1042 l 300 161 m 685 -58 l 883 -297 l 729 -297 l 588 -155 l 447 -297 l 292 -297 l 490 -58 l 685 -58 z "},"Ļ":{"ha":1025,"x_min":117,"x_max":1003,"o":"m 300 161 l 1003 161 l 1003 0 l 117 0 l 117 1042 l 300 1042 l 300 161 m 554 -241 q 499 -210 519 -233 q 479 -156 479 -187 q 509 -90 479 -115 q 588 -65 538 -65 q 667 -92 637 -65 q 697 -158 697 -118 q 692 -195 697 -178 q 675 -231 687 -211 q 636 -289 663 -251 l 582 -365 l 485 -365 l 554 -241 z "},"Ŀ":{"ha":1024,"x_min":117,"x_max":1003,"o":"m 300 161 l 1003 161 l 1003 0 l 117 0 l 117 1042 l 300 1042 l 300 161 m 717 494 q 655 510 683 494 q 610 555 626 526 q 594 617 594 583 q 610 679 594 651 q 655 723 626 707 q 717 739 683 739 q 779 723 751 739 q 823 679 807 707 q 839 617 839 651 q 823 555 839 583 q 779 510 807 526 q 717 494 751 494 z "},"Ḷ":{"ha":1025,"x_min":117,"x_max":1003,"o":"m 300 161 l 1003 161 l 1003 0 l 117 0 l 117 1042 l 300 1042 l 300 161 m 588 -286 q 502 -258 535 -286 q 469 -183 469 -229 q 502 -109 469 -137 q 588 -81 535 -81 q 673 -109 640 -81 q 706 -183 706 -137 q 673 -258 706 -229 q 588 -286 640 -286 z "},"Ḹ":{"ha":1025,"x_min":-92,"x_max":1003,"o":"m 300 161 l 1003 161 l 1003 0 l 117 0 l 117 1042 l 300 1042 l 300 161 m 588 -286 q 502 -258 535 -286 q 469 -183 469 -229 q 502 -109 469 -137 q 588 -81 535 -81 q 673 -109 640 -81 q 706 -183 706 -137 q 673 -258 706 -229 q 588 -286 640 -286 m -92 1286 l 508 1286 l 508 1167 l -92 1167 l -92 1286 z "},"ǈ":{"ha":1388,"x_min":117,"x_max":1319,"o":"m 300 161 l 1003 161 l 1003 0 l 117 0 l 117 1042 l 300 1042 l 300 161 m 1201 775 l 1292 792 l 1292 -229 l 1111 -229 l 1111 792 l 1201 775 m 1083 993 q 1116 1067 1083 1039 q 1201 1096 1149 1096 q 1286 1067 1253 1096 q 1319 993 1319 1039 q 1286 919 1319 947 q 1201 890 1253 890 q 1116 919 1149 890 q 1083 993 1083 947 z "},"Ḻ":{"ha":1025,"x_min":117,"x_max":1003,"o":"m 300 161 l 1003 161 l 1003 0 l 117 0 l 117 1042 l 300 1042 l 300 161 m 288 -94 l 888 -94 l 888 -214 l 288 -214 l 288 -94 z "},"Ł":{"ha":1086,"x_min":50,"x_max":1063,"o":"m 176 607 l 176 1042 l 360 1042 l 360 656 l 718 751 l 718 617 l 360 521 l 360 161 l 1063 161 l 1063 0 l 176 0 l 176 472 l 50 438 l 50 574 l 176 607 z "},"M":{"ha":1635,"x_min":117,"x_max":1518,"o":"m 1518 0 l 1343 0 l 1343 868 l 915 0 l 719 0 l 292 867 l 292 0 l 117 0 l 117 1042 l 397 1042 l 818 174 l 1238 1042 l 1518 1042 l 1518 0 z "},"Ḿ":{"ha":1635,"x_min":117,"x_max":1518,"o":"m 1518 0 l 1343 0 l 1343 868 l 915 0 l 719 0 l 292 867 l 292 0 l 117 0 l 117 1042 l 397 1042 l 818 174 l 1238 1042 l 1518 1042 l 1518 0 m 1108 1338 l 881 1126 l 692 1126 l 894 1338 l 1108 1338 z "},"Ṁ":{"ha":1635,"x_min":117,"x_max":1518,"o":"m 1518 0 l 1343 0 l 1343 868 l 915 0 l 719 0 l 292 867 l 292 0 l 117 0 l 117 1042 l 397 1042 l 818 174 l 1238 1042 l 1518 1042 l 1518 0 m 818 1146 q 733 1174 766 1146 q 700 1249 700 1203 q 733 1324 700 1294 q 818 1353 766 1353 q 903 1324 870 1353 q 936 1249 936 1294 q 903 1174 936 1203 q 818 1146 870 1146 z "},"Ṃ":{"ha":1635,"x_min":117,"x_max":1518,"o":"m 1518 0 l 1343 0 l 1343 868 l 915 0 l 719 0 l 292 867 l 292 0 l 117 0 l 117 1042 l 397 1042 l 818 174 l 1238 1042 l 1518 1042 l 1518 0 m 818 -286 q 733 -258 766 -286 q 700 -183 700 -229 q 733 -109 700 -137 q 818 -81 766 -81 q 903 -109 870 -81 q 936 -183 936 -137 q 903 -258 936 -229 q 818 -286 870 -286 z "},"Ɱ":{"ha":1635,"x_min":117,"x_max":1518,"o":"m 1343 868 l 915 0 l 719 0 l 292 867 l 292 0 l 117 0 l 117 1042 l 397 1042 l 818 174 l 1238 1042 l 1518 1042 l 1518 54 q 1445 -170 1518 -92 q 1228 -249 1373 -249 q 1056 -218 1129 -249 l 1056 -74 q 1188 -99 1125 -99 q 1305 -56 1266 -99 q 1343 74 1343 -14 l 1343 868 z "},"Ɯ":{"ha":1646,"x_min":108,"x_max":1569,"o":"m 1386 0 l 1356 185 q 1230 34 1310 87 q 1049 -19 1150 -19 q 858 35 935 -19 q 747 190 781 89 q 621 35 702 90 q 438 -19 540 -19 q 260 25 334 -19 q 147 152 186 69 q 108 351 108 236 l 108 1042 l 292 1042 l 292 379 q 343 203 292 264 q 493 142 395 142 q 615 174 563 142 q 695 266 667 207 q 724 403 724 325 l 724 1042 l 907 1042 l 907 379 q 959 203 907 264 q 1108 142 1010 142 q 1230 174 1178 142 q 1310 266 1282 207 q 1339 403 1339 325 l 1339 1042 l 1522 1042 l 1522 256 l 1569 0 l 1386 0 z "},"N":{"ha":1301,"x_min":117,"x_max":1185,"o":"m 117 1042 l 356 1042 l 1007 207 l 1007 1042 l 1185 1042 l 1185 0 l 951 0 l 294 844 l 294 0 l 117 0 l 117 1042 z "},"Ǌ":{"ha":2382,"x_min":117,"x_max":2278,"o":"m 117 1042 l 356 1042 l 1007 207 l 1007 1042 l 1185 1042 l 1185 0 l 951 0 l 294 844 l 294 0 l 117 0 l 117 1042 m 1515 499 l 1515 453 q 1585 223 1515 302 q 1804 144 1655 144 q 2023 221 1952 144 q 2094 442 2094 298 l 2094 1042 l 2278 1042 l 2278 435 q 2219 185 2278 288 q 2053 32 2160 83 q 1804 -19 1947 -19 q 1557 33 1663 -19 q 1393 189 1451 85 q 1335 442 1335 292 l 1335 499 l 1515 499 z "},"Ń":{"ha":1301,"x_min":117,"x_max":1185,"o":"m 117 1042 l 356 1042 l 1007 207 l 1007 1042 l 1185 1042 l 1185 0 l 951 0 l 294 844 l 294 0 l 117 0 l 117 1042 m 958 1338 l 731 1126 l 542 1126 l 744 1338 l 958 1338 z "},"Ň":{"ha":1301,"x_min":117,"x_max":1185,"o":"m 117 1042 l 356 1042 l 1007 207 l 1007 1042 l 1185 1042 l 1185 0 l 951 0 l 294 844 l 294 0 l 117 0 l 117 1042 m 567 1126 l 361 1338 l 526 1338 l 668 1224 l 810 1338 l 974 1338 l 769 1126 l 567 1126 z "},"Ṋ":{"ha":1301,"x_min":117,"x_max":1185,"o":"m 117 1042 l 356 1042 l 1007 207 l 1007 1042 l 1185 1042 l 1185 0 l 951 0 l 294 844 l 294 0 l 117 0 l 117 1042 m 749 -58 l 947 -297 l 793 -297 l 651 -155 l 511 -297 l 356 -297 l 554 -58 l 749 -58 z "},"Ņ":{"ha":1301,"x_min":117,"x_max":1185,"o":"m 117 1042 l 356 1042 l 1007 207 l 1007 1042 l 1185 1042 l 1185 0 l 951 0 l 294 844 l 294 0 l 117 0 l 117 1042 m 618 -241 q 563 -210 583 -233 q 543 -156 543 -187 q 573 -90 543 -115 q 651 -65 602 -65 q 731 -92 701 -65 q 761 -158 761 -118 q 756 -195 761 -178 q 739 -231 751 -211 q 700 -289 727 -251 l 646 -365 l 549 -365 l 618 -241 z "},"Ṅ":{"ha":1301,"x_min":117,"x_max":1185,"o":"m 117 1042 l 356 1042 l 1007 207 l 1007 1042 l 1185 1042 l 1185 0 l 951 0 l 294 844 l 294 0 l 117 0 l 117 1042 m 668 1146 q 583 1174 616 1146 q 550 1249 550 1203 q 583 1324 550 1294 q 668 1353 616 1353 q 753 1324 720 1353 q 786 1249 786 1294 q 753 1174 786 1203 q 668 1146 720 1146 z "},"Ṇ":{"ha":1301,"x_min":117,"x_max":1185,"o":"m 117 1042 l 356 1042 l 1007 207 l 1007 1042 l 1185 1042 l 1185 0 l 951 0 l 294 844 l 294 0 l 117 0 l 117 1042 m 651 -286 q 566 -258 599 -286 q 533 -183 533 -229 q 566 -109 533 -137 q 651 -81 599 -81 q 736 -109 703 -81 q 769 -183 769 -137 q 736 -258 769 -229 q 651 -286 703 -286 z "},"Ǹ":{"ha":1301,"x_min":117,"x_max":1185,"o":"m 117 1042 l 356 1042 l 1007 207 l 1007 1042 l 1185 1042 l 1185 0 l 951 0 l 294 844 l 294 0 l 117 0 l 117 1042 m 774 1126 l 585 1126 l 357 1338 l 571 1338 l 774 1126 z "},"Ɲ":{"ha":1301,"x_min":-171,"x_max":1185,"o":"m 356 1042 l 1007 206 l 1007 1042 l 1185 1042 l 1185 0 l 951 0 l 294 846 l 294 65 q 216 -168 294 -87 q -15 -249 138 -249 q -171 -224 -94 -249 l -171 -79 q -47 -97 -103 -97 q 77 -55 38 -97 q 117 76 117 -13 l 117 1042 l 356 1042 z "},"ǋ":{"ha":1657,"x_min":117,"x_max":1589,"o":"m 117 1042 l 356 1042 l 1007 207 l 1007 1042 l 1185 1042 l 1185 0 l 951 0 l 294 844 l 294 0 l 117 0 l 117 1042 m 1471 775 l 1561 792 l 1561 -229 l 1381 -229 l 1381 792 l 1471 775 m 1353 993 q 1386 1067 1353 1039 q 1471 1096 1419 1096 q 1556 1067 1523 1096 q 1589 993 1589 1039 q 1556 919 1589 947 q 1471 890 1523 890 q 1386 919 1419 890 q 1353 993 1353 947 z "},"Ṉ":{"ha":1301,"x_min":117,"x_max":1185,"o":"m 117 1042 l 356 1042 l 1007 207 l 1007 1042 l 1185 1042 l 1185 0 l 951 0 l 294 844 l 294 0 l 117 0 l 117 1042 m 351 -94 l 951 -94 l 951 -214 l 351 -214 l 351 -94 z "},"Ƞ":{"ha":1204,"x_min":117,"x_max":1097,"o":"m 300 1042 l 300 858 q 457 1010 358 959 q 688 1061 556 1061 q 907 1012 815 1061 q 1048 870 999 963 q 1097 649 1097 777 l 1097 -229 l 914 -229 l 914 607 q 840 822 914 749 q 624 896 765 896 q 452 860 525 896 q 339 760 378 825 q 300 610 300 695 l 300 0 l 117 0 l 117 1042 l 300 1042 z "},"Ñ":{"ha":1301,"x_min":117,"x_max":1185,"o":"m 117 1042 l 356 1042 l 1007 207 l 1007 1042 l 1185 1042 l 1185 0 l 951 0 l 294 844 l 294 0 l 117 0 l 117 1042 m 338 1136 q 397 1283 347 1229 q 533 1336 447 1336 q 605 1325 569 1336 q 690 1292 640 1314 q 751 1268 726 1276 q 796 1260 776 1260 q 847 1279 827 1260 q 871 1332 867 1298 l 997 1332 q 937 1185 987 1239 q 801 1132 887 1132 q 730 1143 765 1132 q 645 1176 695 1154 q 584 1200 608 1192 q 539 1208 560 1208 q 488 1189 508 1208 q 464 1136 468 1170 l 338 1136 z "},"Ŋ":{"ha":1253,"x_min":117,"x_max":1146,"o":"m 300 1042 l 300 859 q 467 1010 362 959 q 713 1061 573 1061 q 945 1013 848 1061 q 1094 874 1042 965 q 1146 657 1146 783 l 1146 39 q 1064 -172 1146 -94 q 815 -249 983 -249 q 686 -235 748 -249 q 585 -203 625 -222 l 585 -57 q 683 -91 630 -79 q 793 -103 736 -103 q 891 -88 854 -103 q 945 -39 928 -73 q 963 53 963 -6 l 963 615 q 883 825 963 753 q 649 897 803 897 q 463 860 542 897 q 342 755 384 823 q 300 596 300 686 l 300 0 l 117 0 l 117 1042 l 300 1042 z "},"O":{"ha":1317,"x_min":61,"x_max":1256,"o":"m 658 -19 q 347 48 483 -19 q 136 239 211 116 q 61 521 61 362 q 136 803 61 680 q 347 993 211 926 q 658 1061 483 1061 q 970 993 834 1061 q 1181 803 1106 926 q 1256 521 1256 680 q 1181 239 1256 362 q 970 48 1106 116 q 658 -19 834 -19 m 247 521 q 298 321 247 406 q 441 190 348 236 q 658 144 533 144 q 876 190 783 144 q 1019 321 969 236 q 1069 521 1069 406 q 1019 720 1069 635 q 876 851 969 806 q 658 897 783 897 q 441 851 533 897 q 298 720 348 806 q 247 521 247 635 z "},"Ó":{"ha":1317,"x_min":61,"x_max":1256,"o":"m 658 -19 q 347 48 483 -19 q 136 239 211 116 q 61 521 61 362 q 136 803 61 680 q 347 993 211 926 q 658 1061 483 1061 q 970 993 834 1061 q 1181 803 1106 926 q 1256 521 1256 680 q 1181 239 1256 362 q 970 48 1106 116 q 658 -19 834 -19 m 247 521 q 298 321 247 406 q 441 190 348 236 q 658 144 533 144 q 876 190 783 144 q 1019 321 969 236 q 1069 521 1069 406 q 1019 720 1069 635 q 876 851 969 806 q 658 897 783 897 q 441 851 533 897 q 298 720 348 806 q 247 521 247 635 m 949 1338 l 721 1126 l 532 1126 l 735 1338 l 949 1338 z "},"Ŏ":{"ha":1317,"x_min":61,"x_max":1256,"o":"m 658 -19 q 347 48 483 -19 q 136 239 211 116 q 61 521 61 362 q 136 803 61 680 q 347 993 211 926 q 658 1061 483 1061 q 970 993 834 1061 q 1181 803 1106 926 q 1256 521 1256 680 q 1181 239 1256 362 q 970 48 1106 116 q 658 -19 834 -19 m 247 521 q 298 321 247 406 q 441 190 348 236 q 658 144 533 144 q 876 190 783 144 q 1019 321 969 236 q 1069 521 1069 406 q 1019 720 1069 635 q 876 851 969 806 q 658 897 783 897 q 441 851 533 897 q 298 720 348 806 q 247 521 247 635 m 503 1340 q 657 1238 538 1238 q 757 1264 717 1238 q 813 1340 796 1290 l 957 1340 q 852 1176 931 1233 q 657 1119 773 1119 q 462 1176 541 1119 q 358 1340 383 1233 l 503 1340 z "},"Ǒ":{"ha":1317,"x_min":61,"x_max":1256,"o":"m 658 -19 q 347 48 483 -19 q 136 239 211 116 q 61 521 61 362 q 136 803 61 680 q 347 993 211 926 q 658 1061 483 1061 q 970 993 834 1061 q 1181 803 1106 926 q 1256 521 1256 680 q 1181 239 1256 362 q 970 48 1106 116 q 658 -19 834 -19 m 247 521 q 298 321 247 406 q 441 190 348 236 q 658 144 533 144 q 876 190 783 144 q 1019 321 969 236 q 1069 521 1069 406 q 1019 720 1069 635 q 876 851 969 806 q 658 897 783 897 q 441 851 533 897 q 298 720 348 806 q 247 521 247 635 m 557 1126 l 351 1338 l 517 1338 l 658 1224 l 800 1338 l 964 1338 l 760 1126 l 557 1126 z "},"Ɵ":{"ha":1317,"x_min":61,"x_max":1256,"o":"m 658 -19 q 347 48 483 -19 q 136 239 211 116 q 61 521 61 362 q 136 803 61 680 q 347 993 211 926 q 658 1061 483 1061 q 970 993 834 1061 q 1181 803 1106 926 q 1256 521 1256 680 q 1181 239 1256 362 q 970 48 1106 116 q 658 -19 834 -19 m 254 440 q 325 283 271 349 q 464 180 378 216 q 658 144 549 144 q 853 180 768 144 q 992 283 938 216 q 1063 440 1046 349 l 254 440 m 1063 601 q 992 759 1046 692 q 853 861 938 826 q 658 897 768 897 q 464 861 549 897 q 325 759 378 826 q 254 601 271 692 l 1063 601 z "},"Ô":{"ha":1317,"x_min":61,"x_max":1256,"o":"m 658 -19 q 347 48 483 -19 q 136 239 211 116 q 61 521 61 362 q 136 803 61 680 q 347 993 211 926 q 658 1061 483 1061 q 970 993 834 1061 q 1181 803 1106 926 q 1256 521 1256 680 q 1181 239 1256 362 q 970 48 1106 116 q 658 -19 834 -19 m 247 521 q 298 321 247 406 q 441 190 348 236 q 658 144 533 144 q 876 190 783 144 q 1019 321 969 236 q 1069 521 1069 406 q 1019 720 1069 635 q 876 851 969 806 q 658 897 783 897 q 441 851 533 897 q 298 720 348 806 q 247 521 247 635 m 758 1338 l 964 1126 l 799 1126 l 657 1240 l 515 1126 l 351 1126 l 556 1338 l 758 1338 z "},"Ố":{"ha":1317,"x_min":61,"x_max":1256,"o":"m 658 -19 q 347 48 483 -19 q 136 239 211 116 q 61 521 61 362 q 136 803 61 680 q 347 993 211 926 q 658 1061 483 1061 q 970 993 834 1061 q 1181 803 1106 926 q 1256 521 1256 680 q 1181 239 1256 362 q 970 48 1106 116 q 658 -19 834 -19 m 247 521 q 298 321 247 406 q 441 190 348 236 q 658 144 533 144 q 876 190 783 144 q 1019 321 969 236 q 1069 521 1069 406 q 1019 720 1069 635 q 876 851 969 806 q 658 897 783 897 q 441 851 533 897 q 298 720 348 806 q 247 521 247 635 m 760 1338 l 965 1126 l 800 1126 l 658 1240 l 517 1126 l 353 1126 l 557 1338 l 760 1338 m 956 1490 l 1131 1490 l 986 1299 l 840 1299 l 956 1490 z "},"Ộ":{"ha":1317,"x_min":61,"x_max":1256,"o":"m 658 -19 q 347 48 483 -19 q 136 239 211 116 q 61 521 61 362 q 136 803 61 680 q 347 993 211 926 q 658 1061 483 1061 q 970 993 834 1061 q 1181 803 1106 926 q 1256 521 1256 680 q 1181 239 1256 362 q 970 48 1106 116 q 658 -19 834 -19 m 247 521 q 298 321 247 406 q 441 190 348 236 q 658 144 533 144 q 876 190 783 144 q 1019 321 969 236 q 1069 521 1069 406 q 1019 720 1069 635 q 876 851 969 806 q 658 897 783 897 q 441 851 533 897 q 298 720 348 806 q 247 521 247 635 m 658 -286 q 573 -258 606 -286 q 540 -183 540 -229 q 573 -109 540 -137 q 658 -81 606 -81 q 743 -109 710 -81 q 776 -183 776 -137 q 743 -258 776 -229 q 658 -286 710 -286 m 758 1338 l 964 1126 l 799 1126 l 657 1240 l 515 1126 l 351 1126 l 556 1338 l 758 1338 z "},"Ồ":{"ha":1317,"x_min":61,"x_max":1256,"o":"m 658 -19 q 347 48 483 -19 q 136 239 211 116 q 61 521 61 362 q 136 803 61 680 q 347 993 211 926 q 658 1061 483 1061 q 970 993 834 1061 q 1181 803 1106 926 q 1256 521 1256 680 q 1181 239 1256 362 q 970 48 1106 116 q 658 -19 834 -19 m 247 521 q 298 321 247 406 q 441 190 348 236 q 658 144 533 144 q 876 190 783 144 q 1019 321 969 236 q 1069 521 1069 406 q 1019 720 1069 635 q 876 851 969 806 q 658 897 783 897 q 441 851 533 897 q 298 720 348 806 q 247 521 247 635 m 760 1338 l 965 1126 l 800 1126 l 658 1240 l 517 1126 l 353 1126 l 557 1338 l 760 1338 m 899 1490 l 1014 1299 l 868 1299 l 724 1490 l 899 1490 z "},"Ổ":{"ha":1317,"x_min":61,"x_max":1256,"o":"m 658 -19 q 347 48 483 -19 q 136 239 211 116 q 61 521 61 362 q 136 803 61 680 q 347 993 211 926 q 658 1061 483 1061 q 970 993 834 1061 q 1181 803 1106 926 q 1256 521 1256 680 q 1181 239 1256 362 q 970 48 1106 116 q 658 -19 834 -19 m 247 521 q 298 321 247 406 q 441 190 348 236 q 658 144 533 144 q 876 190 783 144 q 1019 321 969 236 q 1069 521 1069 406 q 1019 720 1069 635 q 876 851 969 806 q 658 897 783 897 q 441 851 533 897 q 298 720 348 806 q 247 521 247 635 m 760 1338 l 965 1126 l 800 1126 l 658 1240 l 517 1126 l 353 1126 l 557 1338 l 760 1338 m 782 1535 q 841 1547 807 1542 q 910 1551 874 1551 q 1053 1518 1001 1551 q 1104 1425 1104 1485 q 1055 1332 1104 1371 q 904 1269 1006 1293 l 865 1328 q 933 1360 913 1343 q 954 1396 954 1376 q 932 1431 954 1419 q 868 1443 910 1443 q 782 1432 826 1443 l 782 1535 z "},"Ỗ":{"ha":1317,"x_min":61,"x_max":1256,"o":"m 658 -19 q 347 48 483 -19 q 136 239 211 116 q 61 521 61 362 q 136 803 61 680 q 347 993 211 926 q 658 1061 483 1061 q 970 993 834 1061 q 1181 803 1106 926 q 1256 521 1256 680 q 1181 239 1256 362 q 970 48 1106 116 q 658 -19 834 -19 m 247 521 q 298 321 247 406 q 441 190 348 236 q 658 144 533 144 q 876 190 783 144 q 1019 321 969 236 q 1069 521 1069 406 q 1019 720 1069 635 q 876 851 969 806 q 658 897 783 897 q 441 851 533 897 q 298 720 348 806 q 247 521 247 635 m 758 1338 l 964 1126 l 799 1126 l 657 1240 l 515 1126 l 351 1126 l 556 1338 l 758 1338 m 369 1385 q 418 1529 375 1475 q 532 1583 460 1583 q 602 1572 571 1583 q 671 1538 633 1560 q 714 1517 698 1524 q 746 1510 730 1510 q 787 1528 771 1510 q 810 1582 803 1547 l 925 1582 q 877 1438 919 1490 q 763 1385 835 1385 q 692 1397 724 1385 q 624 1429 660 1408 q 580 1451 595 1444 q 549 1457 565 1457 q 507 1438 524 1457 q 485 1385 491 1419 l 369 1385 z "},"Ȍ":{"ha":1317,"x_min":61,"x_max":1256,"o":"m 658 -19 q 347 48 483 -19 q 136 239 211 116 q 61 521 61 362 q 136 803 61 680 q 347 993 211 926 q 658 1061 483 1061 q 970 993 834 1061 q 1181 803 1106 926 q 1256 521 1256 680 q 1181 239 1256 362 q 970 48 1106 116 q 658 -19 834 -19 m 247 521 q 298 321 247 406 q 441 190 348 236 q 658 144 533 144 q 876 190 783 144 q 1019 321 969 236 q 1069 521 1069 406 q 1019 720 1069 635 q 876 851 969 806 q 658 897 783 897 q 441 851 533 897 q 298 720 348 806 q 247 521 247 635 m 893 1126 l 725 1126 l 543 1338 l 725 1338 l 893 1126 m 421 1338 l 588 1126 l 419 1126 l 238 1338 l 421 1338 z "},"Ö":{"ha":1317,"x_min":61,"x_max":1256,"o":"m 658 -19 q 347 48 483 -19 q 136 239 211 116 q 61 521 61 362 q 136 803 61 680 q 347 993 211 926 q 658 1061 483 1061 q 970 993 834 1061 q 1181 803 1106 926 q 1256 521 1256 680 q 1181 239 1256 362 q 970 48 1106 116 q 658 -19 834 -19 m 247 521 q 298 321 247 406 q 441 190 348 236 q 658 144 533 144 q 876 190 783 144 q 1019 321 969 236 q 1069 521 1069 406 q 1019 720 1069 635 q 876 851 969 806 q 658 897 783 897 q 441 851 533 897 q 298 720 348 806 q 247 521 247 635 m 453 1146 q 372 1174 403 1146 q 340 1246 340 1201 q 372 1317 340 1290 q 453 1344 403 1344 q 534 1317 503 1344 q 565 1246 565 1290 q 534 1174 565 1201 q 453 1146 503 1146 m 750 1246 q 781 1317 750 1290 q 863 1344 813 1344 q 944 1317 913 1344 q 975 1246 975 1290 q 944 1174 975 1201 q 863 1146 913 1146 q 781 1174 813 1146 q 750 1246 750 1201 z "},"Ȫ":{"ha":1317,"x_min":61,"x_max":1256,"o":"m 658 -19 q 347 48 483 -19 q 136 239 211 116 q 61 521 61 362 q 136 803 61 680 q 347 993 211 926 q 658 1061 483 1061 q 970 993 834 1061 q 1181 803 1106 926 q 1256 521 1256 680 q 1181 239 1256 362 q 970 48 1106 116 q 658 -19 834 -19 m 247 521 q 298 321 247 406 q 441 190 348 236 q 658 144 533 144 q 876 190 783 144 q 1019 321 969 236 q 1069 521 1069 406 q 1019 720 1069 635 q 876 851 969 806 q 658 897 783 897 q 441 851 533 897 q 298 720 348 806 q 247 521 247 635 m 454 1146 q 373 1174 404 1146 q 342 1246 342 1201 q 373 1317 342 1290 q 454 1344 404 1344 q 535 1317 504 1344 q 567 1246 567 1290 q 535 1174 567 1201 q 454 1146 504 1146 m 360 1546 l 960 1546 l 960 1426 l 360 1426 l 360 1546 m 751 1246 q 783 1317 751 1290 q 864 1344 814 1344 q 945 1317 914 1344 q 976 1246 976 1290 q 945 1174 976 1201 q 864 1146 914 1146 q 783 1174 814 1146 q 751 1246 751 1201 z "},"Ȯ":{"ha":1317,"x_min":61,"x_max":1256,"o":"m 658 -19 q 347 48 483 -19 q 136 239 211 116 q 61 521 61 362 q 136 803 61 680 q 347 993 211 926 q 658 1061 483 1061 q 970 993 834 1061 q 1181 803 1106 926 q 1256 521 1256 680 q 1181 239 1256 362 q 970 48 1106 116 q 658 -19 834 -19 m 247 521 q 298 321 247 406 q 441 190 348 236 q 658 144 533 144 q 876 190 783 144 q 1019 321 969 236 q 1069 521 1069 406 q 1019 720 1069 635 q 876 851 969 806 q 658 897 783 897 q 441 851 533 897 q 298 720 348 806 q 247 521 247 635 m 658 1146 q 573 1174 606 1146 q 540 1249 540 1203 q 573 1324 540 1294 q 658 1353 606 1353 q 743 1324 710 1353 q 776 1249 776 1294 q 743 1174 776 1203 q 658 1146 710 1146 z "},"Ȱ":{"ha":1317,"x_min":61,"x_max":1256,"o":"m 658 -19 q 347 48 483 -19 q 136 239 211 116 q 61 521 61 362 q 136 803 61 680 q 347 993 211 926 q 658 1061 483 1061 q 970 993 834 1061 q 1181 803 1106 926 q 1256 521 1256 680 q 1181 239 1256 362 q 970 48 1106 116 q 658 -19 834 -19 m 247 521 q 298 321 247 406 q 441 190 348 236 q 658 144 533 144 q 876 190 783 144 q 1019 321 969 236 q 1069 521 1069 406 q 1019 720 1069 635 q 876 851 969 806 q 658 897 783 897 q 441 851 533 897 q 298 720 348 806 q 247 521 247 635 m 660 1146 q 575 1174 608 1146 q 542 1249 542 1203 q 575 1324 542 1294 q 660 1353 608 1353 q 745 1324 712 1353 q 778 1249 778 1294 q 745 1174 778 1203 q 660 1146 712 1146 m 358 1546 l 958 1546 l 958 1426 l 358 1426 l 358 1546 z "},"Ọ":{"ha":1317,"x_min":61,"x_max":1256,"o":"m 658 -19 q 347 48 483 -19 q 136 239 211 116 q 61 521 61 362 q 136 803 61 680 q 347 993 211 926 q 658 1061 483 1061 q 970 993 834 1061 q 1181 803 1106 926 q 1256 521 1256 680 q 1181 239 1256 362 q 970 48 1106 116 q 658 -19 834 -19 m 247 521 q 298 321 247 406 q 441 190 348 236 q 658 144 533 144 q 876 190 783 144 q 1019 321 969 236 q 1069 521 1069 406 q 1019 720 1069 635 q 876 851 969 806 q 658 897 783 897 q 441 851 533 897 q 298 720 348 806 q 247 521 247 635 m 658 -286 q 573 -258 606 -286 q 540 -183 540 -229 q 573 -109 540 -137 q 658 -81 606 -81 q 743 -109 710 -81 q 776 -183 776 -137 q 743 -258 776 -229 q 658 -286 710 -286 z "},"Ò":{"ha":1317,"x_min":61,"x_max":1256,"o":"m 658 -19 q 347 48 483 -19 q 136 239 211 116 q 61 521 61 362 q 136 803 61 680 q 347 993 211 926 q 658 1061 483 1061 q 970 993 834 1061 q 1181 803 1106 926 q 1256 521 1256 680 q 1181 239 1256 362 q 970 48 1106 116 q 658 -19 834 -19 m 247 521 q 298 321 247 406 q 441 190 348 236 q 658 144 533 144 q 876 190 783 144 q 1019 321 969 236 q 1069 521 1069 406 q 1019 720 1069 635 q 876 851 969 806 q 658 897 783 897 q 441 851 533 897 q 298 720 348 806 q 247 521 247 635 m 764 1126 l 575 1126 l 347 1338 l 561 1338 l 764 1126 z "},"Ỏ":{"ha":1317,"x_min":61,"x_max":1256,"o":"m 658 -19 q 347 48 483 -19 q 136 239 211 116 q 61 521 61 362 q 136 803 61 680 q 347 993 211 926 q 658 1061 483 1061 q 970 993 834 1061 q 1181 803 1106 926 q 1256 521 1256 680 q 1181 239 1256 362 q 970 48 1106 116 q 658 -19 834 -19 m 247 521 q 298 321 247 406 q 441 190 348 236 q 658 144 533 144 q 876 190 783 144 q 1019 321 969 236 q 1069 521 1069 406 q 1019 720 1069 635 q 876 851 969 806 q 658 897 783 897 q 441 851 533 897 q 298 720 348 806 q 247 521 247 635 m 569 1178 q 666 1205 634 1188 q 697 1243 697 1222 q 673 1271 697 1262 q 604 1281 649 1281 q 546 1277 572 1281 q 482 1265 520 1273 l 482 1374 q 555 1388 512 1382 q 640 1394 597 1394 q 800 1363 744 1394 q 856 1267 856 1331 q 797 1167 856 1206 q 611 1107 738 1128 l 569 1178 z "},"Ơ":{"ha":1311,"x_min":61,"x_max":1257,"o":"m 657 -19 q 346 48 481 -19 q 136 239 210 116 q 61 521 61 361 q 136 803 61 681 q 346 993 210 926 q 657 1061 481 1061 q 829 1043 750 1061 q 958 1026 901 1026 q 1064 1053 1030 1026 q 1097 1124 1097 1079 q 1088 1173 1097 1147 q 1063 1224 1079 1200 l 1221 1224 q 1247 1162 1238 1195 q 1257 1099 1257 1129 q 1207 985 1257 1030 q 1063 928 1158 940 q 1203 752 1153 857 q 1253 521 1253 648 q 1178 239 1253 362 q 967 48 1103 116 q 657 -19 832 -19 m 247 521 q 297 321 247 406 q 440 190 347 236 q 657 144 533 144 q 874 190 781 144 q 1017 321 967 236 q 1067 521 1067 406 q 1017 720 1067 635 q 874 851 967 806 q 657 897 781 897 q 440 851 533 897 q 297 720 347 806 q 247 521 247 635 z "},"Ớ":{"ha":1311,"x_min":61,"x_max":1257,"o":"m 657 -19 q 346 48 481 -19 q 136 239 210 116 q 61 521 61 361 q 136 803 61 681 q 346 993 210 926 q 657 1061 481 1061 q 829 1043 750 1061 q 958 1026 901 1026 q 1064 1053 1030 1026 q 1097 1124 1097 1079 q 1088 1173 1097 1147 q 1063 1224 1079 1200 l 1221 1224 q 1247 1162 1238 1195 q 1257 1099 1257 1129 q 1207 985 1257 1030 q 1063 928 1158 940 q 1203 752 1153 857 q 1253 521 1253 648 q 1178 239 1253 362 q 967 48 1103 116 q 657 -19 832 -19 m 247 521 q 297 321 247 406 q 440 190 347 236 q 657 144 533 144 q 874 190 781 144 q 1017 321 967 236 q 1067 521 1067 406 q 1017 720 1067 635 q 874 851 967 806 q 657 897 781 897 q 440 851 533 897 q 297 720 347 806 q 247 521 247 635 m 943 1338 l 715 1126 l 526 1126 l 729 1338 l 943 1338 z "},"Ợ":{"ha":1311,"x_min":61,"x_max":1257,"o":"m 657 -19 q 346 48 481 -19 q 136 239 210 116 q 61 521 61 361 q 136 803 61 681 q 346 993 210 926 q 657 1061 481 1061 q 829 1043 750 1061 q 958 1026 901 1026 q 1064 1053 1030 1026 q 1097 1124 1097 1079 q 1088 1173 1097 1147 q 1063 1224 1079 1200 l 1221 1224 q 1247 1162 1238 1195 q 1257 1099 1257 1129 q 1207 985 1257 1030 q 1063 928 1158 940 q 1203 752 1153 857 q 1253 521 1253 648 q 1178 239 1253 362 q 967 48 1103 116 q 657 -19 832 -19 m 247 521 q 297 321 247 406 q 440 190 347 236 q 657 144 533 144 q 874 190 781 144 q 1017 321 967 236 q 1067 521 1067 406 q 1017 720 1067 635 q 874 851 967 806 q 657 897 781 897 q 440 851 533 897 q 297 720 347 806 q 247 521 247 635 m 653 -286 q 568 -258 601 -286 q 535 -183 535 -229 q 568 -109 535 -137 q 653 -81 601 -81 q 738 -109 705 -81 q 771 -183 771 -137 q 738 -258 771 -229 q 653 -286 705 -286 z "},"Ờ":{"ha":1311,"x_min":61,"x_max":1257,"o":"m 657 -19 q 346 48 481 -19 q 136 239 210 116 q 61 521 61 361 q 136 803 61 681 q 346 993 210 926 q 657 1061 481 1061 q 829 1043 750 1061 q 958 1026 901 1026 q 1064 1053 1030 1026 q 1097 1124 1097 1079 q 1088 1173 1097 1147 q 1063 1224 1079 1200 l 1221 1224 q 1247 1162 1238 1195 q 1257 1099 1257 1129 q 1207 985 1257 1030 q 1063 928 1158 940 q 1203 752 1153 857 q 1253 521 1253 648 q 1178 239 1253 362 q 967 48 1103 116 q 657 -19 832 -19 m 247 521 q 297 321 247 406 q 440 190 347 236 q 657 144 533 144 q 874 190 781 144 q 1017 321 967 236 q 1067 521 1067 406 q 1017 720 1067 635 q 874 851 967 806 q 657 897 781 897 q 440 851 533 897 q 297 720 347 806 q 247 521 247 635 m 758 1126 l 569 1126 l 342 1338 l 556 1338 l 758 1126 z "},"Ở":{"ha":1311,"x_min":61,"x_max":1257,"o":"m 657 -19 q 346 48 481 -19 q 136 239 210 116 q 61 521 61 361 q 136 803 61 681 q 346 993 210 926 q 657 1061 481 1061 q 829 1043 750 1061 q 958 1026 901 1026 q 1064 1053 1030 1026 q 1097 1124 1097 1079 q 1088 1173 1097 1147 q 1063 1224 1079 1200 l 1221 1224 q 1247 1162 1238 1195 q 1257 1099 1257 1129 q 1207 985 1257 1030 q 1063 928 1158 940 q 1203 752 1153 857 q 1253 521 1253 648 q 1178 239 1253 362 q 967 48 1103 116 q 657 -19 832 -19 m 247 521 q 297 321 247 406 q 440 190 347 236 q 657 144 533 144 q 874 190 781 144 q 1017 321 967 236 q 1067 521 1067 406 q 1017 720 1067 635 q 874 851 967 806 q 657 897 781 897 q 440 851 533 897 q 297 720 347 806 q 247 521 247 635 m 564 1178 q 660 1205 628 1188 q 692 1243 692 1222 q 668 1271 692 1262 q 599 1281 644 1281 q 541 1277 567 1281 q 476 1265 515 1273 l 476 1374 q 549 1388 506 1382 q 635 1394 592 1394 q 794 1363 738 1394 q 850 1267 850 1331 q 791 1167 850 1206 q 606 1107 733 1128 l 564 1178 z "},"Ỡ":{"ha":1311,"x_min":61,"x_max":1257,"o":"m 657 -19 q 346 48 481 -19 q 136 239 210 116 q 61 521 61 361 q 136 803 61 681 q 346 993 210 926 q 657 1061 481 1061 q 829 1043 750 1061 q 958 1026 901 1026 q 1064 1053 1030 1026 q 1097 1124 1097 1079 q 1088 1173 1097 1147 q 1063 1224 1079 1200 l 1221 1224 q 1247 1162 1238 1195 q 1257 1099 1257 1129 q 1207 985 1257 1030 q 1063 928 1158 940 q 1203 752 1153 857 q 1253 521 1253 648 q 1178 239 1253 362 q 967 48 1103 116 q 657 -19 832 -19 m 247 521 q 297 321 247 406 q 440 190 347 236 q 657 144 533 144 q 874 190 781 144 q 1017 321 967 236 q 1067 521 1067 406 q 1017 720 1067 635 q 874 851 967 806 q 657 897 781 897 q 440 851 533 897 q 297 720 347 806 q 247 521 247 635 m 322 1136 q 382 1283 332 1229 q 518 1336 432 1336 q 589 1325 554 1336 q 674 1292 624 1314 q 736 1268 711 1276 q 781 1260 760 1260 q 832 1279 812 1260 q 856 1332 851 1298 l 982 1332 q 922 1185 972 1239 q 786 1132 872 1132 q 715 1143 750 1132 q 630 1176 680 1154 q 568 1200 592 1192 q 524 1208 544 1208 q 473 1189 492 1208 q 449 1136 453 1170 l 322 1136 z "},"Ő":{"ha":1317,"x_min":61,"x_max":1256,"o":"m 658 -19 q 347 48 483 -19 q 136 239 211 116 q 61 521 61 362 q 136 803 61 680 q 347 993 211 926 q 658 1061 483 1061 q 970 993 834 1061 q 1181 803 1106 926 q 1256 521 1256 680 q 1181 239 1256 362 q 970 48 1106 116 q 658 -19 834 -19 m 247 521 q 298 321 247 406 q 441 190 348 236 q 658 144 533 144 q 876 190 783 144 q 1019 321 969 236 q 1069 521 1069 406 q 1019 720 1069 635 q 876 851 969 806 q 658 897 783 897 q 441 851 533 897 q 298 720 348 806 q 247 521 247 635 m 774 1338 l 592 1126 l 424 1126 l 592 1338 l 774 1338 m 896 1338 l 1079 1338 l 897 1126 l 729 1126 l 896 1338 z "},"Ȏ":{"ha":1317,"x_min":61,"x_max":1256,"o":"m 658 -19 q 347 48 483 -19 q 136 239 211 116 q 61 521 61 362 q 136 803 61 680 q 347 993 211 926 q 658 1061 483 1061 q 970 993 834 1061 q 1181 803 1106 926 q 1256 521 1256 680 q 1181 239 1256 362 q 970 48 1106 116 q 658 -19 834 -19 m 247 521 q 298 321 247 406 q 441 190 348 236 q 658 144 533 144 q 876 190 783 144 q 1019 321 969 236 q 1069 521 1069 406 q 1019 720 1069 635 q 876 851 969 806 q 658 897 783 897 q 441 851 533 897 q 298 720 348 806 q 247 521 247 635 m 813 1124 q 658 1226 778 1226 q 559 1200 598 1226 q 503 1124 519 1174 l 358 1124 q 463 1288 384 1231 q 658 1344 542 1344 q 853 1288 774 1344 q 957 1124 932 1231 l 813 1124 z "},"Ō":{"ha":1317,"x_min":61,"x_max":1256,"o":"m 658 -19 q 347 48 483 -19 q 136 239 211 116 q 61 521 61 362 q 136 803 61 680 q 347 993 211 926 q 658 1061 483 1061 q 970 993 834 1061 q 1181 803 1106 926 q 1256 521 1256 680 q 1181 239 1256 362 q 970 48 1106 116 q 658 -19 834 -19 m 247 521 q 298 321 247 406 q 441 190 348 236 q 658 144 533 144 q 876 190 783 144 q 1019 321 969 236 q 1069 521 1069 406 q 1019 720 1069 635 q 876 851 969 806 q 658 897 783 897 q 441 851 533 897 q 298 720 348 806 q 247 521 247 635 m 358 1286 l 958 1286 l 958 1167 l 358 1167 l 358 1286 z "},"Ṓ":{"ha":1317,"x_min":61,"x_max":1256,"o":"m 658 -19 q 347 48 483 -19 q 136 239 211 116 q 61 521 61 362 q 136 803 61 680 q 347 993 211 926 q 658 1061 483 1061 q 970 993 834 1061 q 1181 803 1106 926 q 1256 521 1256 680 q 1181 239 1256 362 q 970 48 1106 116 q 658 -19 834 -19 m 247 521 q 298 321 247 406 q 441 190 348 236 q 658 144 533 144 q 876 190 783 144 q 1019 321 969 236 q 1069 521 1069 406 q 1019 720 1069 635 q 876 851 969 806 q 658 897 783 897 q 441 851 533 897 q 298 720 348 806 q 247 521 247 635 m 358 1286 l 958 1286 l 958 1167 l 358 1167 l 358 1286 m 949 1578 l 721 1367 l 532 1367 l 735 1578 l 949 1578 z "},"Ṑ":{"ha":1317,"x_min":61,"x_max":1256,"o":"m 658 -19 q 347 48 483 -19 q 136 239 211 116 q 61 521 61 362 q 136 803 61 680 q 347 993 211 926 q 658 1061 483 1061 q 970 993 834 1061 q 1181 803 1106 926 q 1256 521 1256 680 q 1181 239 1256 362 q 970 48 1106 116 q 658 -19 834 -19 m 247 521 q 298 321 247 406 q 441 190 348 236 q 658 144 533 144 q 876 190 783 144 q 1019 321 969 236 q 1069 521 1069 406 q 1019 720 1069 635 q 876 851 969 806 q 658 897 783 897 q 441 851 533 897 q 298 720 348 806 q 247 521 247 635 m 358 1286 l 958 1286 l 958 1167 l 358 1167 l 358 1286 m 764 1367 l 575 1367 l 347 1578 l 561 1578 l 764 1367 z "},"Ꞷ":{"ha":1568,"x_min":67,"x_max":1501,"o":"m 67 501 q 124 779 67 658 q 290 971 181 901 q 550 1049 399 1042 l 550 879 q 328 765 403 864 q 253 501 253 667 q 282 307 253 388 q 365 184 310 226 q 493 142 419 142 q 649 221 596 142 q 703 471 703 300 l 703 671 l 865 671 l 865 471 q 919 221 865 300 q 1075 142 972 142 q 1203 184 1149 142 q 1286 307 1258 226 q 1315 501 1315 388 q 1240 765 1315 667 q 1018 879 1165 864 l 1018 1049 q 1278 971 1169 1042 q 1444 779 1387 901 q 1501 501 1501 658 q 1452 227 1501 345 q 1312 45 1403 109 q 1101 -19 1222 -19 q 896 44 978 -19 q 784 228 815 108 q 672 44 753 108 q 467 -19 590 -19 q 256 45 347 -19 q 116 227 165 109 q 67 501 67 345 z "},"Ǫ":{"ha":1317,"x_min":61,"x_max":1256,"o":"m 833 -257 q 779 -269 815 -264 q 707 -274 743 -274 q 609 -258 651 -274 q 543 -212 566 -242 q 519 -144 519 -183 q 543 -76 519 -107 q 619 -19 567 -46 q 326 59 453 -11 q 131 248 200 128 q 61 521 61 368 q 136 803 61 680 q 347 993 211 926 q 658 1061 483 1061 q 970 993 834 1061 q 1181 803 1106 926 q 1256 521 1256 680 q 1203 283 1256 390 q 1055 103 1151 176 q 832 0 960 31 q 706 -48 748 -20 q 664 -107 664 -76 q 749 -150 664 -150 q 833 -142 798 -150 l 833 -257 m 247 521 q 298 321 247 406 q 441 190 348 236 q 658 144 533 144 q 876 190 783 144 q 1019 321 969 236 q 1069 521 1069 406 q 1019 720 1069 635 q 876 851 969 806 q 658 897 783 897 q 441 851 533 897 q 298 720 348 806 q 247 521 247 635 z "},"Ǭ":{"ha":1317,"x_min":61,"x_max":1256,"o":"m 833 -257 q 779 -269 815 -264 q 707 -274 743 -274 q 609 -258 651 -274 q 543 -212 566 -242 q 519 -144 519 -183 q 543 -76 519 -107 q 619 -19 567 -46 q 326 59 453 -11 q 131 248 200 128 q 61 521 61 368 q 136 803 61 680 q 347 993 211 926 q 658 1061 483 1061 q 970 993 834 1061 q 1181 803 1106 926 q 1256 521 1256 680 q 1203 283 1256 390 q 1055 103 1151 176 q 832 0 960 31 q 706 -48 748 -20 q 664 -107 664 -76 q 749 -150 664 -150 q 833 -142 798 -150 l 833 -257 m 247 521 q 298 321 247 406 q 441 190 348 236 q 658 144 533 144 q 876 190 783 144 q 1019 321 969 236 q 1069 521 1069 406 q 1019 720 1069 635 q 876 851 969 806 q 658 897 783 897 q 441 851 533 897 q 298 720 348 806 q 247 521 247 635 m 358 1286 l 958 1286 l 958 1167 l 358 1167 l 358 1286 z "},"Ɔ":{"ha":1267,"x_min":51,"x_max":1204,"o":"m 236 413 q 302 269 251 329 q 434 176 353 208 q 619 144 515 144 q 831 190 741 144 q 969 321 921 236 q 1018 521 1018 406 q 969 720 1018 635 q 831 851 921 806 q 619 897 741 897 q 434 865 515 897 q 302 772 353 833 q 236 629 251 712 l 51 629 q 141 855 66 757 q 340 1007 216 953 q 618 1061 463 1061 q 925 993 792 1061 q 1131 803 1058 926 q 1204 521 1204 681 q 1131 239 1204 361 q 925 48 1058 116 q 618 -19 792 -19 q 340 35 463 -19 q 141 187 216 89 q 51 413 66 285 l 236 413 z "},"Ø":{"ha":1315,"x_min":61,"x_max":1254,"o":"m 1226 1061 l 1090 906 q 1211 736 1169 834 q 1254 521 1254 638 q 1179 239 1254 362 q 968 48 1104 116 q 657 -19 833 -19 q 338 53 476 -19 l 274 -19 l 89 -19 l 223 133 q 103 303 145 204 q 61 521 61 403 q 136 803 61 681 q 346 993 210 926 q 657 1061 481 1061 q 976 986 835 1061 l 1042 1061 l 1226 1061 m 247 521 q 271 378 247 443 q 340 265 294 313 l 862 857 q 657 897 773 897 q 440 851 533 897 q 298 720 348 806 q 247 521 247 635 m 453 184 q 657 144 542 144 q 875 190 782 144 q 1018 321 967 236 q 1068 521 1068 406 q 1044 664 1068 599 q 976 777 1021 728 l 453 184 z "},"Ǿ":{"ha":1315,"x_min":61,"x_max":1254,"o":"m 1226 1061 l 1090 906 q 1211 736 1169 834 q 1254 521 1254 638 q 1179 239 1254 362 q 968 48 1104 116 q 657 -19 833 -19 q 338 53 476 -19 l 274 -19 l 89 -19 l 223 133 q 103 303 145 204 q 61 521 61 403 q 136 803 61 681 q 346 993 210 926 q 657 1061 481 1061 q 976 986 835 1061 l 1042 1061 l 1226 1061 m 247 521 q 271 378 247 443 q 340 265 294 313 l 862 857 q 657 897 773 897 q 440 851 533 897 q 298 720 348 806 q 247 521 247 635 m 453 184 q 657 144 542 144 q 875 190 782 144 q 1018 321 967 236 q 1068 521 1068 406 q 1044 664 1068 599 q 976 777 1021 728 l 453 184 m 947 1338 l 719 1126 l 531 1126 l 733 1338 l 947 1338 z "},"Õ":{"ha":1317,"x_min":61,"x_max":1256,"o":"m 658 -19 q 347 48 483 -19 q 136 239 211 116 q 61 521 61 362 q 136 803 61 680 q 347 993 211 926 q 658 1061 483 1061 q 970 993 834 1061 q 1181 803 1106 926 q 1256 521 1256 680 q 1181 239 1256 362 q 970 48 1106 116 q 658 -19 834 -19 m 247 521 q 298 321 247 406 q 441 190 348 236 q 658 144 533 144 q 876 190 783 144 q 1019 321 969 236 q 1069 521 1069 406 q 1019 720 1069 635 q 876 851 969 806 q 658 897 783 897 q 441 851 533 897 q 298 720 348 806 q 247 521 247 635 m 328 1136 q 388 1283 338 1229 q 524 1336 438 1336 q 595 1325 560 1336 q 680 1292 630 1314 q 741 1268 717 1276 q 786 1260 766 1260 q 837 1279 817 1260 q 861 1332 857 1298 l 988 1332 q 927 1185 977 1239 q 792 1132 877 1132 q 720 1143 756 1132 q 635 1176 685 1154 q 574 1200 598 1192 q 529 1208 550 1208 q 478 1189 498 1208 q 454 1136 458 1170 l 328 1136 z "},"Ṍ":{"ha":1317,"x_min":61,"x_max":1256,"o":"m 658 -19 q 347 48 483 -19 q 136 239 211 116 q 61 521 61 362 q 136 803 61 680 q 347 993 211 926 q 658 1061 483 1061 q 970 993 834 1061 q 1181 803 1106 926 q 1256 521 1256 680 q 1181 239 1256 362 q 970 48 1106 116 q 658 -19 834 -19 m 247 521 q 298 321 247 406 q 441 190 348 236 q 658 144 533 144 q 876 190 783 144 q 1019 321 969 236 q 1069 521 1069 406 q 1019 720 1069 635 q 876 851 969 806 q 658 897 783 897 q 441 851 533 897 q 298 720 348 806 q 247 521 247 635 m 328 1136 q 388 1283 338 1229 q 524 1336 438 1336 q 595 1325 560 1336 q 680 1292 630 1314 q 741 1268 717 1276 q 786 1260 766 1260 q 837 1279 817 1260 q 861 1332 857 1298 l 988 1332 q 927 1185 977 1239 q 792 1132 877 1132 q 720 1143 756 1132 q 635 1176 685 1154 q 574 1200 598 1192 q 529 1208 550 1208 q 478 1189 498 1208 q 454 1136 458 1170 l 328 1136 m 949 1588 l 721 1376 l 532 1376 l 735 1588 l 949 1588 z "},"Ṏ":{"ha":1317,"x_min":61,"x_max":1256,"o":"m 658 -19 q 347 48 483 -19 q 136 239 211 116 q 61 521 61 362 q 136 803 61 680 q 347 993 211 926 q 658 1061 483 1061 q 970 993 834 1061 q 1181 803 1106 926 q 1256 521 1256 680 q 1181 239 1256 362 q 970 48 1106 116 q 658 -19 834 -19 m 247 521 q 298 321 247 406 q 441 190 348 236 q 658 144 533 144 q 876 190 783 144 q 1019 321 969 236 q 1069 521 1069 406 q 1019 720 1069 635 q 876 851 969 806 q 658 897 783 897 q 441 851 533 897 q 298 720 348 806 q 247 521 247 635 m 328 1136 q 388 1283 338 1229 q 524 1336 438 1336 q 595 1325 560 1336 q 680 1292 630 1314 q 741 1268 717 1276 q 786 1260 766 1260 q 837 1279 817 1260 q 861 1332 857 1298 l 988 1332 q 927 1185 977 1239 q 792 1132 877 1132 q 720 1143 756 1132 q 635 1176 685 1154 q 574 1200 598 1192 q 529 1208 550 1208 q 478 1189 498 1208 q 454 1136 458 1170 l 328 1136 m 453 1396 q 372 1424 403 1396 q 340 1496 340 1451 q 372 1567 340 1540 q 453 1594 403 1594 q 534 1567 503 1594 q 565 1496 565 1540 q 534 1424 565 1451 q 453 1396 503 1396 m 750 1496 q 781 1567 750 1540 q 863 1594 813 1594 q 944 1567 913 1594 q 975 1496 975 1540 q 944 1424 975 1451 q 863 1396 913 1396 q 781 1424 813 1396 q 750 1496 750 1451 z "},"Ȭ":{"ha":1317,"x_min":61,"x_max":1256,"o":"m 658 -19 q 347 48 483 -19 q 136 239 211 116 q 61 521 61 362 q 136 803 61 680 q 347 993 211 926 q 658 1061 483 1061 q 970 993 834 1061 q 1181 803 1106 926 q 1256 521 1256 680 q 1181 239 1256 362 q 970 48 1106 116 q 658 -19 834 -19 m 247 521 q 298 321 247 406 q 441 190 348 236 q 658 144 533 144 q 876 190 783 144 q 1019 321 969 236 q 1069 521 1069 406 q 1019 720 1069 635 q 876 851 969 806 q 658 897 783 897 q 441 851 533 897 q 298 720 348 806 q 247 521 247 635 m 328 1136 q 388 1283 338 1229 q 524 1336 438 1336 q 595 1325 560 1336 q 680 1292 630 1314 q 741 1268 717 1276 q 786 1260 766 1260 q 837 1279 817 1260 q 861 1332 857 1298 l 988 1332 q 927 1185 977 1239 q 792 1132 877 1132 q 720 1143 756 1132 q 635 1176 685 1154 q 574 1200 598 1192 q 529 1208 550 1208 q 478 1189 498 1208 q 454 1136 458 1170 l 328 1136 m 358 1536 l 958 1536 l 958 1417 l 358 1417 l 358 1536 z "},"Œ":{"ha":1869,"x_min":61,"x_max":1794,"o":"m 657 0 q 346 65 481 0 q 136 249 210 131 q 61 521 61 367 q 134 793 61 675 q 340 976 207 911 q 649 1042 473 1042 l 1788 1042 l 1788 883 l 1113 883 l 1113 599 l 1753 599 l 1753 446 l 1113 446 l 1113 158 l 1794 158 l 1794 0 l 657 0 m 247 521 q 297 332 247 414 q 438 206 347 251 q 647 161 528 161 l 932 161 l 932 881 l 647 881 q 438 835 528 881 q 297 709 347 790 q 247 521 247 628 z "},"P":{"ha":1082,"x_min":117,"x_max":1049,"o":"m 668 1042 q 869 1000 783 1042 q 1002 884 955 958 q 1049 713 1049 809 q 1002 541 1049 616 q 869 425 955 467 q 668 383 783 383 l 300 383 l 300 0 l 117 0 l 117 1042 l 668 1042 m 661 542 q 768 563 723 542 q 838 622 814 583 q 863 713 863 660 q 838 803 863 765 q 768 863 814 842 q 661 883 723 883 l 300 883 l 300 542 l 661 542 z "},"Ṕ":{"ha":1082,"x_min":117,"x_max":1049,"o":"m 668 1042 q 869 1000 783 1042 q 1002 884 955 958 q 1049 713 1049 809 q 1002 541 1049 616 q 869 425 955 467 q 668 383 783 383 l 300 383 l 300 0 l 117 0 l 117 1042 l 668 1042 m 661 542 q 768 563 723 542 q 838 622 814 583 q 863 713 863 660 q 838 803 863 765 q 768 863 814 842 q 661 883 723 883 l 300 883 l 300 542 l 661 542 m 847 1338 l 619 1126 l 431 1126 l 633 1338 l 847 1338 z "},"Ṗ":{"ha":1082,"x_min":117,"x_max":1049,"o":"m 668 1042 q 869 1000 783 1042 q 1002 884 955 958 q 1049 713 1049 809 q 1002 541 1049 616 q 869 425 955 467 q 668 383 783 383 l 300 383 l 300 0 l 117 0 l 117 1042 l 668 1042 m 661 542 q 768 563 723 542 q 838 622 814 583 q 863 713 863 660 q 838 803 863 765 q 768 863 814 842 q 661 883 723 883 l 300 883 l 300 542 l 661 542 m 557 1146 q 472 1174 505 1146 q 439 1249 439 1203 q 472 1324 439 1294 q 557 1353 505 1353 q 642 1324 609 1353 q 675 1249 675 1294 q 642 1174 675 1203 q 557 1146 609 1146 z "},"Ƥ":{"ha":1356,"x_min":32,"x_max":1322,"o":"m 942 1042 q 1142 1000 1056 1042 q 1275 884 1228 958 q 1322 713 1322 809 q 1275 541 1322 616 q 1142 425 1228 467 q 942 383 1056 383 l 574 383 l 574 0 l 390 0 l 390 886 l 315 886 q 225 860 256 886 q 194 775 194 834 q 203 699 194 736 q 229 621 213 663 l 82 621 q 32 818 32 730 q 95 984 32 926 q 279 1042 159 1042 l 942 1042 m 935 542 q 1042 563 997 542 q 1112 622 1088 583 q 1136 713 1136 660 q 1112 803 1136 765 q 1042 863 1088 842 q 935 883 997 883 l 574 883 l 574 542 l 935 542 z "},"Þ":{"ha":1101,"x_min":117,"x_max":1049,"o":"m 300 1042 l 300 857 l 668 857 q 869 816 783 857 q 1002 700 955 775 q 1049 528 1049 626 q 1002 355 1049 430 q 869 240 955 281 q 668 199 783 199 l 300 199 l 300 0 l 117 0 l 117 1042 l 300 1042 m 660 357 q 767 378 722 357 q 838 437 813 399 q 863 528 863 476 q 838 618 863 580 q 767 678 813 657 q 660 699 722 699 l 300 699 l 300 357 l 660 357 z "},"Ᵽ":{"ha":1126,"x_min":32,"x_max":1093,"o":"m 161 781 l 161 1042 l 713 1042 q 913 1000 827 1042 q 1046 884 999 958 q 1093 713 1093 809 q 1046 541 1093 616 q 913 425 999 467 q 713 383 827 383 l 344 383 l 344 0 l 161 0 l 161 644 l 32 644 l 32 781 l 161 781 m 704 542 q 813 563 767 542 q 883 622 858 583 q 907 713 907 660 q 883 803 907 765 q 813 863 858 842 q 704 883 767 883 l 344 883 l 344 781 l 640 781 l 640 644 l 344 644 l 344 542 l 704 542 z "},"Q":{"ha":1317,"x_min":61,"x_max":1256,"o":"m 750 397 l 925 219 q 1032 346 995 269 q 1069 521 1069 423 q 1019 720 1069 635 q 876 851 969 806 q 658 897 783 897 q 441 851 533 897 q 298 720 348 806 q 247 521 247 635 q 298 321 247 406 q 441 190 348 236 q 658 144 533 144 q 764 154 713 144 l 526 397 l 750 397 m 61 521 q 136 803 61 680 q 347 993 211 926 q 658 1061 483 1061 q 970 993 834 1061 q 1181 803 1106 926 q 1256 521 1256 680 q 1201 277 1256 386 q 1047 95 1147 167 l 1213 -72 l 985 -72 l 897 18 q 658 -19 786 -19 q 347 48 483 -19 q 136 239 211 116 q 61 521 61 362 z "},"Ɋ":{"ha":1332,"x_min":64,"x_max":1496,"o":"m 1364 -99 q 1496 -74 1426 -99 l 1496 -218 q 1324 -249 1422 -249 q 1106 -170 1179 -249 q 1032 54 1032 -91 l 1032 271 q 839 56 956 132 q 572 -19 721 -19 q 307 48 422 -19 q 128 239 192 116 q 64 521 64 362 q 128 803 64 680 q 307 993 192 926 q 572 1061 422 1061 q 839 986 721 1061 q 1032 774 956 912 l 1032 1042 l 1215 1042 l 1215 74 q 1251 -57 1215 -15 q 1364 -99 1286 -99 m 250 522 q 295 325 250 412 q 423 190 341 239 q 613 142 506 142 q 793 190 710 142 q 941 323 877 238 q 1044 522 1004 408 q 941 720 1004 635 q 794 852 878 805 q 613 900 710 900 q 424 852 506 900 q 296 718 342 803 q 250 522 250 632 z "},"R":{"ha":1126,"x_min":117,"x_max":1079,"o":"m 668 572 q 773 591 728 572 q 842 645 818 610 q 867 728 867 681 q 814 842 867 801 q 668 883 760 883 l 300 883 l 300 572 l 668 572 m 117 1042 l 685 1042 q 877 1002 793 1042 q 1007 892 960 963 q 1053 728 1053 821 q 1012 574 1053 642 q 897 466 971 507 q 724 418 822 425 l 1079 0 l 860 0 l 510 417 l 300 417 l 300 0 l 117 0 l 117 1042 z "},"Ŕ":{"ha":1126,"x_min":117,"x_max":1079,"o":"m 668 572 q 773 591 728 572 q 842 645 818 610 q 867 728 867 681 q 814 842 867 801 q 668 883 760 883 l 300 883 l 300 572 l 668 572 m 117 1042 l 685 1042 q 877 1002 793 1042 q 1007 892 960 963 q 1053 728 1053 821 q 1012 574 1053 642 q 897 466 971 507 q 724 418 822 425 l 1079 0 l 860 0 l 510 417 l 300 417 l 300 0 l 117 0 l 117 1042 m 847 1338 l 619 1126 l 431 1126 l 633 1338 l 847 1338 z "},"Ř":{"ha":1126,"x_min":117,"x_max":1079,"o":"m 668 572 q 773 591 728 572 q 842 645 818 610 q 867 728 867 681 q 814 842 867 801 q 668 883 760 883 l 300 883 l 300 572 l 668 572 m 117 1042 l 685 1042 q 877 1002 793 1042 q 1007 892 960 963 q 1053 728 1053 821 q 1012 574 1053 642 q 897 466 971 507 q 724 418 822 425 l 1079 0 l 860 0 l 510 417 l 300 417 l 300 0 l 117 0 l 117 1042 m 456 1126 l 250 1338 l 415 1338 l 557 1224 l 699 1338 l 863 1338 l 658 1126 l 456 1126 z "},"Ŗ":{"ha":1126,"x_min":117,"x_max":1079,"o":"m 668 572 q 773 591 728 572 q 842 645 818 610 q 867 728 867 681 q 814 842 867 801 q 668 883 760 883 l 300 883 l 300 572 l 668 572 m 117 1042 l 685 1042 q 877 1002 793 1042 q 1007 892 960 963 q 1053 728 1053 821 q 1012 574 1053 642 q 897 466 971 507 q 724 418 822 425 l 1079 0 l 860 0 l 510 417 l 300 417 l 300 0 l 117 0 l 117 1042 m 543 -241 q 488 -210 508 -233 q 468 -156 468 -187 q 498 -90 468 -115 q 576 -65 527 -65 q 656 -92 626 -65 q 686 -158 686 -118 q 681 -195 686 -178 q 664 -231 676 -211 q 625 -289 652 -251 l 571 -365 l 474 -365 l 543 -241 z "},"Ȑ":{"ha":1126,"x_min":117,"x_max":1079,"o":"m 668 572 q 773 591 728 572 q 842 645 818 610 q 867 728 867 681 q 814 842 867 801 q 668 883 760 883 l 300 883 l 300 572 l 668 572 m 117 1042 l 685 1042 q 877 1002 793 1042 q 1007 892 960 963 q 1053 728 1053 821 q 1012 574 1053 642 q 897 466 971 507 q 724 418 822 425 l 1079 0 l 860 0 l 510 417 l 300 417 l 300 0 l 117 0 l 117 1042 m 792 1126 l 624 1126 l 442 1338 l 624 1338 l 792 1126 m 319 1338 l 486 1126 l 318 1126 l 136 1338 l 319 1338 z "},"Ṙ":{"ha":1126,"x_min":117,"x_max":1079,"o":"m 668 572 q 773 591 728 572 q 842 645 818 610 q 867 728 867 681 q 814 842 867 801 q 668 883 760 883 l 300 883 l 300 572 l 668 572 m 117 1042 l 685 1042 q 877 1002 793 1042 q 1007 892 960 963 q 1053 728 1053 821 q 1012 574 1053 642 q 897 466 971 507 q 724 418 822 425 l 1079 0 l 860 0 l 510 417 l 300 417 l 300 0 l 117 0 l 117 1042 m 557 1146 q 472 1174 505 1146 q 439 1249 439 1203 q 472 1324 439 1294 q 557 1353 505 1353 q 642 1324 609 1353 q 675 1249 675 1294 q 642 1174 675 1203 q 557 1146 609 1146 z "},"Ṛ":{"ha":1126,"x_min":117,"x_max":1079,"o":"m 668 572 q 773 591 728 572 q 842 645 818 610 q 867 728 867 681 q 814 842 867 801 q 668 883 760 883 l 300 883 l 300 572 l 668 572 m 117 1042 l 685 1042 q 877 1002 793 1042 q 1007 892 960 963 q 1053 728 1053 821 q 1012 574 1053 642 q 897 466 971 507 q 724 418 822 425 l 1079 0 l 860 0 l 510 417 l 300 417 l 300 0 l 117 0 l 117 1042 m 576 -286 q 491 -258 524 -286 q 458 -183 458 -229 q 491 -109 458 -137 q 576 -81 524 -81 q 661 -109 628 -81 q 694 -183 694 -137 q 661 -258 694 -229 q 576 -286 628 -286 z "},"Ṝ":{"ha":1126,"x_min":117,"x_max":1079,"o":"m 668 572 q 773 591 728 572 q 842 645 818 610 q 867 728 867 681 q 814 842 867 801 q 668 883 760 883 l 300 883 l 300 572 l 668 572 m 117 1042 l 685 1042 q 877 1002 793 1042 q 1007 892 960 963 q 1053 728 1053 821 q 1012 574 1053 642 q 897 466 971 507 q 724 418 822 425 l 1079 0 l 860 0 l 510 417 l 300 417 l 300 0 l 117 0 l 117 1042 m 576 -286 q 491 -258 524 -286 q 458 -183 458 -229 q 491 -109 458 -137 q 576 -81 524 -81 q 661 -109 628 -81 q 694 -183 694 -137 q 661 -258 694 -229 q 576 -286 628 -286 m 257 1286 l 857 1286 l 857 1167 l 257 1167 l 257 1286 z "},"Ȓ":{"ha":1126,"x_min":117,"x_max":1079,"o":"m 668 572 q 773 591 728 572 q 842 645 818 610 q 867 728 867 681 q 814 842 867 801 q 668 883 760 883 l 300 883 l 300 572 l 668 572 m 117 1042 l 685 1042 q 877 1002 793 1042 q 1007 892 960 963 q 1053 728 1053 821 q 1012 574 1053 642 q 897 466 971 507 q 724 418 822 425 l 1079 0 l 860 0 l 510 417 l 300 417 l 300 0 l 117 0 l 117 1042 m 711 1124 q 557 1226 676 1226 q 457 1200 497 1226 q 401 1124 418 1174 l 257 1124 q 362 1288 283 1231 q 557 1344 441 1344 q 752 1288 673 1344 q 856 1124 831 1231 l 711 1124 z "},"Ṟ":{"ha":1126,"x_min":117,"x_max":1079,"o":"m 668 572 q 773 591 728 572 q 842 645 818 610 q 867 728 867 681 q 814 842 867 801 q 668 883 760 883 l 300 883 l 300 572 l 668 572 m 117 1042 l 685 1042 q 877 1002 793 1042 q 1007 892 960 963 q 1053 728 1053 821 q 1012 574 1053 642 q 897 466 971 507 q 724 418 822 425 l 1079 0 l 860 0 l 510 417 l 300 417 l 300 0 l 117 0 l 117 1042 m 276 -94 l 876 -94 l 876 -214 l 276 -214 l 276 -94 z "},"Ɍ":{"ha":1176,"x_min":25,"x_max":1129,"o":"m 167 553 l 167 1042 l 735 1042 q 927 1002 843 1042 q 1057 892 1010 963 q 1103 728 1103 821 q 1062 574 1103 642 q 947 466 1021 507 q 774 418 872 425 l 1129 0 l 910 0 l 560 417 l 350 417 l 350 0 l 167 0 l 167 417 l 25 417 l 25 553 l 167 553 m 718 572 q 823 591 778 572 q 892 645 868 610 q 917 728 917 681 q 864 842 917 801 q 718 883 810 883 l 350 883 l 350 572 l 718 572 z "},"Ɽ":{"ha":1126,"x_min":117,"x_max":1079,"o":"m 685 1042 q 877 1002 793 1042 q 1007 892 960 963 q 1053 728 1053 821 q 1012 574 1053 642 q 897 466 971 507 q 724 418 822 425 l 1079 0 l 858 0 l 508 417 l 300 417 l 300 74 q 336 -57 300 -15 q 450 -99 372 -99 q 582 -74 513 -99 l 582 -218 q 410 -249 508 -249 q 190 -170 264 -249 q 117 54 117 -91 l 117 1042 l 685 1042 m 668 572 q 773 591 728 572 q 842 645 818 610 q 867 728 867 681 q 842 810 867 775 q 773 865 818 846 q 668 883 728 883 l 300 883 l 300 572 l 668 572 z "},"S":{"ha":1115,"x_min":53,"x_max":1061,"o":"m 239 339 q 291 229 247 276 q 407 156 335 182 q 574 131 480 131 q 735 150 666 131 q 841 207 803 170 q 878 293 878 244 q 857 361 878 335 q 790 404 837 388 q 660 431 743 420 l 435 460 q 229 512 308 476 q 113 605 150 547 q 75 749 75 663 q 133 914 75 843 q 296 1023 190 984 q 543 1061 402 1061 q 791 1019 682 1061 q 965 902 901 978 q 1035 729 1028 827 l 849 729 q 802 825 842 784 q 695 889 763 866 q 539 911 627 911 q 391 892 454 911 q 293 838 327 874 q 258 756 258 803 q 278 693 258 717 q 341 652 297 668 q 461 625 385 635 l 689 593 q 911 541 831 574 q 1026 453 992 508 q 1061 313 1061 399 q 1000 138 1061 213 q 828 22 939 63 q 571 -19 717 -19 q 307 25 422 -19 q 125 151 191 70 q 53 339 58 233 l 239 339 z "},"Ś":{"ha":1115,"x_min":53,"x_max":1061,"o":"m 239 339 q 291 229 247 276 q 407 156 335 182 q 574 131 480 131 q 735 150 666 131 q 841 207 803 170 q 878 293 878 244 q 857 361 878 335 q 790 404 837 388 q 660 431 743 420 l 435 460 q 229 512 308 476 q 113 605 150 547 q 75 749 75 663 q 133 914 75 843 q 296 1023 190 984 q 543 1061 402 1061 q 791 1019 682 1061 q 965 902 901 978 q 1035 729 1028 827 l 849 729 q 802 825 842 784 q 695 889 763 866 q 539 911 627 911 q 391 892 454 911 q 293 838 327 874 q 258 756 258 803 q 278 693 258 717 q 341 652 297 668 q 461 625 385 635 l 689 593 q 911 541 831 574 q 1026 453 992 508 q 1061 313 1061 399 q 1000 138 1061 213 q 828 22 939 63 q 571 -19 717 -19 q 307 25 422 -19 q 125 151 191 70 q 53 339 58 233 l 239 339 m 847 1338 l 619 1126 l 431 1126 l 633 1338 l 847 1338 z "},"Ṥ":{"ha":1115,"x_min":53,"x_max":1061,"o":"m 239 339 q 291 229 247 276 q 407 156 335 182 q 574 131 480 131 q 735 150 666 131 q 841 207 803 170 q 878 293 878 244 q 857 361 878 335 q 790 404 837 388 q 660 431 743 420 l 435 460 q 229 512 308 476 q 113 605 150 547 q 75 749 75 663 q 133 914 75 843 q 296 1023 190 984 q 543 1061 402 1061 q 791 1019 682 1061 q 965 902 901 978 q 1035 729 1028 827 l 849 729 q 802 825 842 784 q 695 889 763 866 q 539 911 627 911 q 391 892 454 911 q 293 838 327 874 q 258 756 258 803 q 278 693 258 717 q 341 652 297 668 q 461 625 385 635 l 689 593 q 911 541 831 574 q 1026 453 992 508 q 1061 313 1061 399 q 1000 138 1061 213 q 828 22 939 63 q 571 -19 717 -19 q 307 25 422 -19 q 125 151 191 70 q 53 339 58 233 l 239 339 m 847 1338 l 619 1126 l 431 1126 l 633 1338 l 847 1338 m 568 1378 q 483 1406 516 1378 q 450 1481 450 1435 q 483 1556 450 1526 q 568 1585 516 1585 q 653 1556 620 1585 q 686 1481 686 1526 q 653 1406 686 1435 q 568 1378 620 1378 z "},"Ꞌ":{"ha":382,"x_min":96,"x_max":286,"o":"m 286 1042 l 258 361 l 122 361 l 96 1042 l 286 1042 z "},"Š":{"ha":1115,"x_min":53,"x_max":1061,"o":"m 239 339 q 291 229 247 276 q 407 156 335 182 q 574 131 480 131 q 735 150 666 131 q 841 207 803 170 q 878 293 878 244 q 857 361 878 335 q 790 404 837 388 q 660 431 743 420 l 435 460 q 229 512 308 476 q 113 605 150 547 q 75 749 75 663 q 133 914 75 843 q 296 1023 190 984 q 543 1061 402 1061 q 791 1019 682 1061 q 965 902 901 978 q 1035 729 1028 827 l 849 729 q 802 825 842 784 q 695 889 763 866 q 539 911 627 911 q 391 892 454 911 q 293 838 327 874 q 258 756 258 803 q 278 693 258 717 q 341 652 297 668 q 461 625 385 635 l 689 593 q 911 541 831 574 q 1026 453 992 508 q 1061 313 1061 399 q 1000 138 1061 213 q 828 22 939 63 q 571 -19 717 -19 q 307 25 422 -19 q 125 151 191 70 q 53 339 58 233 l 239 339 m 456 1126 l 250 1338 l 415 1338 l 557 1224 l 699 1338 l 863 1338 l 658 1126 l 456 1126 z "},"Ṧ":{"ha":1115,"x_min":53,"x_max":1061,"o":"m 239 339 q 291 229 247 276 q 407 156 335 182 q 574 131 480 131 q 735 150 666 131 q 841 207 803 170 q 878 293 878 244 q 857 361 878 335 q 790 404 837 388 q 660 431 743 420 l 435 460 q 229 512 308 476 q 113 605 150 547 q 75 749 75 663 q 133 914 75 843 q 296 1023 190 984 q 543 1061 402 1061 q 791 1019 682 1061 q 965 902 901 978 q 1035 729 1028 827 l 849 729 q 802 825 842 784 q 695 889 763 866 q 539 911 627 911 q 391 892 454 911 q 293 838 327 874 q 258 756 258 803 q 278 693 258 717 q 341 652 297 668 q 461 625 385 635 l 689 593 q 911 541 831 574 q 1026 453 992 508 q 1061 313 1061 399 q 1000 138 1061 213 q 828 22 939 63 q 571 -19 717 -19 q 307 25 422 -19 q 125 151 191 70 q 53 339 58 233 l 239 339 m 456 1126 l 250 1338 l 415 1338 l 557 1224 l 699 1338 l 863 1338 l 658 1126 l 456 1126 m 557 1386 q 472 1415 505 1386 q 439 1489 439 1443 q 472 1564 439 1535 q 557 1593 505 1593 q 642 1564 609 1593 q 675 1489 675 1535 q 642 1415 675 1443 q 557 1386 609 1386 z "},"Ş":{"ha":1115,"x_min":53,"x_max":1061,"o":"m 239 339 q 291 229 247 276 q 407 156 335 182 q 574 131 480 131 q 735 150 666 131 q 841 207 803 170 q 878 293 878 244 q 857 361 878 335 q 790 404 837 388 q 660 431 743 420 l 435 460 q 229 512 308 476 q 113 605 150 547 q 75 749 75 663 q 133 914 75 843 q 296 1023 190 984 q 543 1061 402 1061 q 791 1019 682 1061 q 965 902 901 978 q 1035 729 1028 827 l 849 729 q 802 825 842 784 q 695 889 763 866 q 539 911 627 911 q 391 892 454 911 q 293 838 327 874 q 258 756 258 803 q 278 693 258 717 q 341 652 297 668 q 461 625 385 635 l 689 593 q 911 541 831 574 q 1026 453 992 508 q 1061 313 1061 399 q 1003 142 1061 216 q 839 26 945 68 q 594 -19 733 -16 l 564 -68 q 638 -60 597 -60 q 765 -93 718 -60 q 811 -185 811 -127 q 784 -259 811 -226 q 707 -309 758 -291 q 585 -326 656 -326 q 422 -290 489 -326 q 335 -192 354 -254 l 467 -192 q 585 -236 498 -236 q 657 -221 633 -236 q 682 -182 682 -206 q 660 -147 682 -160 q 600 -135 639 -135 q 511 -150 549 -135 l 407 -150 l 492 -16 q 267 42 364 -5 q 114 166 169 90 q 53 339 58 242 l 239 339 z "},"Ŝ":{"ha":1115,"x_min":53,"x_max":1061,"o":"m 239 339 q 291 229 247 276 q 407 156 335 182 q 574 131 480 131 q 735 150 666 131 q 841 207 803 170 q 878 293 878 244 q 857 361 878 335 q 790 404 837 388 q 660 431 743 420 l 435 460 q 229 512 308 476 q 113 605 150 547 q 75 749 75 663 q 133 914 75 843 q 296 1023 190 984 q 543 1061 402 1061 q 791 1019 682 1061 q 965 902 901 978 q 1035 729 1028 827 l 849 729 q 802 825 842 784 q 695 889 763 866 q 539 911 627 911 q 391 892 454 911 q 293 838 327 874 q 258 756 258 803 q 278 693 258 717 q 341 652 297 668 q 461 625 385 635 l 689 593 q 911 541 831 574 q 1026 453 992 508 q 1061 313 1061 399 q 1000 138 1061 213 q 828 22 939 63 q 571 -19 717 -19 q 307 25 422 -19 q 125 151 191 70 q 53 339 58 233 l 239 339 m 657 1338 l 863 1126 l 697 1126 l 556 1240 l 414 1126 l 250 1126 l 454 1338 l 657 1338 z "},"Ș":{"ha":1115,"x_min":53,"x_max":1061,"o":"m 239 339 q 291 229 247 276 q 407 156 335 182 q 574 131 480 131 q 735 150 666 131 q 841 207 803 170 q 878 293 878 244 q 857 361 878 335 q 790 404 837 388 q 660 431 743 420 l 435 460 q 229 512 308 476 q 113 605 150 547 q 75 749 75 663 q 133 914 75 843 q 296 1023 190 984 q 543 1061 402 1061 q 791 1019 682 1061 q 965 902 901 978 q 1035 729 1028 827 l 849 729 q 802 825 842 784 q 695 889 763 866 q 539 911 627 911 q 391 892 454 911 q 293 838 327 874 q 258 756 258 803 q 278 693 258 717 q 341 652 297 668 q 461 625 385 635 l 689 593 q 911 541 831 574 q 1026 453 992 508 q 1061 313 1061 399 q 1000 138 1061 213 q 828 22 939 63 q 571 -19 717 -19 q 307 25 422 -19 q 125 151 191 70 q 53 339 58 233 l 239 339 m 524 -241 q 469 -210 489 -233 q 449 -156 449 -187 q 478 -90 449 -115 q 557 -65 508 -65 q 636 -92 606 -65 q 667 -158 667 -118 q 661 -195 667 -178 q 644 -231 656 -211 q 606 -289 633 -251 l 551 -365 l 454 -365 l 524 -241 z "},"Ṡ":{"ha":1115,"x_min":53,"x_max":1061,"o":"m 239 339 q 291 229 247 276 q 407 156 335 182 q 574 131 480 131 q 735 150 666 131 q 841 207 803 170 q 878 293 878 244 q 857 361 878 335 q 790 404 837 388 q 660 431 743 420 l 435 460 q 229 512 308 476 q 113 605 150 547 q 75 749 75 663 q 133 914 75 843 q 296 1023 190 984 q 543 1061 402 1061 q 791 1019 682 1061 q 965 902 901 978 q 1035 729 1028 827 l 849 729 q 802 825 842 784 q 695 889 763 866 q 539 911 627 911 q 391 892 454 911 q 293 838 327 874 q 258 756 258 803 q 278 693 258 717 q 341 652 297 668 q 461 625 385 635 l 689 593 q 911 541 831 574 q 1026 453 992 508 q 1061 313 1061 399 q 1000 138 1061 213 q 828 22 939 63 q 571 -19 717 -19 q 307 25 422 -19 q 125 151 191 70 q 53 339 58 233 l 239 339 m 557 1146 q 472 1174 505 1146 q 439 1249 439 1203 q 472 1324 439 1294 q 557 1353 505 1353 q 642 1324 609 1353 q 675 1249 675 1294 q 642 1174 675 1203 q 557 1146 609 1146 z "},"Ṣ":{"ha":1115,"x_min":53,"x_max":1061,"o":"m 239 339 q 291 229 247 276 q 407 156 335 182 q 574 131 480 131 q 735 150 666 131 q 841 207 803 170 q 878 293 878 244 q 857 361 878 335 q 790 404 837 388 q 660 431 743 420 l 435 460 q 229 512 308 476 q 113 605 150 547 q 75 749 75 663 q 133 914 75 843 q 296 1023 190 984 q 543 1061 402 1061 q 791 1019 682 1061 q 965 902 901 978 q 1035 729 1028 827 l 849 729 q 802 825 842 784 q 695 889 763 866 q 539 911 627 911 q 391 892 454 911 q 293 838 327 874 q 258 756 258 803 q 278 693 258 717 q 341 652 297 668 q 461 625 385 635 l 689 593 q 911 541 831 574 q 1026 453 992 508 q 1061 313 1061 399 q 1000 138 1061 213 q 828 22 939 63 q 571 -19 717 -19 q 307 25 422 -19 q 125 151 191 70 q 53 339 58 233 l 239 339 m 557 -286 q 472 -258 505 -286 q 439 -183 439 -229 q 472 -109 439 -137 q 557 -81 505 -81 q 642 -109 609 -81 q 675 -183 675 -137 q 642 -258 675 -229 q 557 -286 609 -286 z "},"Ṩ":{"ha":1115,"x_min":53,"x_max":1061,"o":"m 239 339 q 291 229 247 276 q 407 156 335 182 q 574 131 480 131 q 735 150 666 131 q 841 207 803 170 q 878 293 878 244 q 857 361 878 335 q 790 404 837 388 q 660 431 743 420 l 435 460 q 229 512 308 476 q 113 605 150 547 q 75 749 75 663 q 133 914 75 843 q 296 1023 190 984 q 543 1061 402 1061 q 791 1019 682 1061 q 965 902 901 978 q 1035 729 1028 827 l 849 729 q 802 825 842 784 q 695 889 763 866 q 539 911 627 911 q 391 892 454 911 q 293 838 327 874 q 258 756 258 803 q 278 693 258 717 q 341 652 297 668 q 461 625 385 635 l 689 593 q 911 541 831 574 q 1026 453 992 508 q 1061 313 1061 399 q 1000 138 1061 213 q 828 22 939 63 q 571 -19 717 -19 q 307 25 422 -19 q 125 151 191 70 q 53 339 58 233 l 239 339 m 557 -286 q 472 -258 505 -286 q 439 -183 439 -229 q 472 -109 439 -137 q 557 -81 505 -81 q 642 -109 609 -81 q 675 -183 675 -137 q 642 -258 675 -229 q 557 -286 609 -286 m 557 1146 q 472 1174 505 1146 q 439 1249 439 1203 q 472 1324 439 1294 q 557 1353 505 1353 q 642 1324 609 1353 q 675 1249 675 1294 q 642 1174 675 1203 q 557 1146 609 1146 z "},"ẞ":{"ha":1228,"x_min":104,"x_max":1171,"o":"m 732 -19 q 568 -6 645 -19 q 408 35 492 7 l 408 194 q 570 150 496 164 q 719 136 644 136 q 985 294 985 136 q 959 373 985 342 q 870 424 933 404 q 690 458 806 444 l 618 467 l 618 607 l 902 860 q 636 900 777 900 q 376 828 465 900 q 288 619 288 757 l 288 0 l 104 0 l 104 613 q 163 846 104 745 q 342 1004 222 947 q 638 1061 462 1061 q 887 1035 769 1061 q 1090 963 1005 1008 l 1090 826 l 815 582 q 1027 525 949 563 q 1138 432 1106 487 q 1171 299 1171 377 q 1117 126 1171 197 q 965 17 1063 54 q 732 -19 866 -19 z "},"T":{"ha":1089,"x_min":22,"x_max":1067,"o":"m 1067 1042 l 1067 881 l 636 881 l 636 0 l 453 0 l 453 881 l 22 881 l 22 1042 l 1067 1042 z "},"Ŧ":{"ha":1111,"x_min":33,"x_max":1078,"o":"m 464 557 l 464 881 l 33 881 l 33 1042 l 1078 1042 l 1078 881 l 647 881 l 647 557 l 936 557 l 936 421 l 647 421 l 647 0 l 464 0 l 464 421 l 175 421 l 175 557 l 464 557 z "},"Ť":{"ha":1089,"x_min":22,"x_max":1067,"o":"m 1067 1042 l 1067 881 l 636 881 l 636 0 l 453 0 l 453 881 l 22 881 l 22 1042 l 1067 1042 m 443 1126 l 238 1338 l 403 1338 l 544 1224 l 686 1338 l 850 1338 l 646 1126 l 443 1126 z "},"Ţ":{"ha":1089,"x_min":22,"x_max":1067,"o":"m 1067 1042 l 1067 881 l 636 881 l 636 0 l 592 0 l 551 -68 q 625 -60 584 -60 q 752 -93 706 -60 q 799 -185 799 -127 q 772 -259 799 -226 q 694 -309 745 -291 q 572 -326 643 -326 q 409 -290 476 -326 q 322 -192 342 -254 l 454 -192 q 572 -236 485 -236 q 645 -221 620 -236 q 669 -182 669 -206 q 648 -147 669 -160 q 588 -135 626 -135 q 499 -150 537 -135 l 394 -150 l 490 0 l 453 0 l 453 881 l 22 881 l 22 1042 l 1067 1042 z "},"Ṱ":{"ha":1089,"x_min":22,"x_max":1067,"o":"m 1067 1042 l 1067 881 l 636 881 l 636 0 l 453 0 l 453 881 l 22 881 l 22 1042 l 1067 1042 m 642 -58 l 840 -297 l 686 -297 l 544 -155 l 404 -297 l 249 -297 l 447 -58 l 642 -58 z "},"Ț":{"ha":1089,"x_min":22,"x_max":1067,"o":"m 1067 1042 l 1067 881 l 636 881 l 636 0 l 453 0 l 453 881 l 22 881 l 22 1042 l 1067 1042 m 511 -241 q 456 -210 476 -233 q 436 -156 436 -187 q 466 -90 436 -115 q 544 -65 495 -65 q 624 -92 594 -65 q 654 -158 654 -118 q 649 -195 654 -178 q 632 -231 644 -211 q 593 -289 620 -251 l 539 -365 l 442 -365 l 511 -241 z "},"Ⱦ":{"ha":1104,"x_min":22,"x_max":1124,"o":"m 1124 1211 l 1038 1042 l 1067 1042 l 1067 881 l 957 881 l 636 244 l 636 0 l 513 0 l 428 -169 l 272 -169 l 453 189 l 453 881 l 22 881 l 22 1042 l 883 1042 l 968 1211 l 1124 1211 m 801 881 l 636 881 l 636 553 l 801 881 z "},"Ṫ":{"ha":1089,"x_min":22,"x_max":1067,"o":"m 1067 1042 l 1067 881 l 636 881 l 636 0 l 453 0 l 453 881 l 22 881 l 22 1042 l 1067 1042 m 544 1146 q 459 1174 492 1146 q 426 1249 426 1203 q 459 1324 426 1294 q 544 1353 492 1353 q 630 1324 597 1353 q 663 1249 663 1294 q 630 1174 663 1203 q 544 1146 597 1146 z "},"Ṭ":{"ha":1089,"x_min":22,"x_max":1067,"o":"m 1067 1042 l 1067 881 l 636 881 l 636 0 l 453 0 l 453 881 l 22 881 l 22 1042 l 1067 1042 m 544 -286 q 459 -258 492 -286 q 426 -183 426 -229 q 459 -109 426 -137 q 544 -81 492 -81 q 630 -109 597 -81 q 663 -183 663 -137 q 630 -258 663 -229 q 544 -286 597 -286 z "},"Ƭ":{"ha":1193,"x_min":31,"x_max":1171,"o":"m 1171 881 l 740 881 l 740 0 l 557 0 l 557 881 l 317 881 q 225 853 256 881 q 193 768 193 826 q 202 698 193 733 q 228 621 211 663 l 81 621 q 31 818 31 730 q 94 984 31 926 q 278 1042 158 1042 l 1171 1042 l 1171 881 z "},"Ṯ":{"ha":1089,"x_min":22,"x_max":1067,"o":"m 1067 1042 l 1067 881 l 636 881 l 636 0 l 453 0 l 453 881 l 22 881 l 22 1042 l 1067 1042 m 244 -94 l 844 -94 l 844 -214 l 244 -214 l 244 -94 z "},"Ʈ":{"ha":1089,"x_min":22,"x_max":1067,"o":"m 1067 1042 l 1067 881 l 636 881 l 636 74 q 672 -57 636 -15 q 785 -99 707 -99 q 917 -74 847 -99 l 917 -218 q 746 -249 843 -249 q 526 -170 600 -249 q 453 54 453 -91 l 453 881 l 22 881 l 22 1042 l 1067 1042 z "},"U":{"ha":1197,"x_min":103,"x_max":1094,"o":"m 286 447 q 324 286 286 355 q 432 181 361 218 q 599 144 502 144 q 766 181 696 144 q 874 286 836 218 q 911 447 911 355 l 911 1042 l 1094 1042 l 1094 440 q 1032 200 1094 304 q 858 38 970 96 q 599 -19 745 -19 q 340 38 452 -19 q 165 200 227 96 q 103 440 103 304 l 103 1042 l 286 1042 l 286 447 z "},"Ú":{"ha":1197,"x_min":103,"x_max":1094,"o":"m 286 447 q 324 286 286 355 q 432 181 361 218 q 599 144 502 144 q 766 181 696 144 q 874 286 836 218 q 911 447 911 355 l 911 1042 l 1094 1042 l 1094 440 q 1032 200 1094 304 q 858 38 970 96 q 599 -19 745 -19 q 340 38 452 -19 q 165 200 227 96 q 103 440 103 304 l 103 1042 l 286 1042 l 286 447 m 889 1338 l 661 1126 l 472 1126 l 675 1338 l 889 1338 z "},"Ʉ":{"ha":1297,"x_min":25,"x_max":1272,"o":"m 153 644 l 153 1042 l 336 1042 l 336 644 l 961 644 l 961 1042 l 1144 1042 l 1144 644 l 1272 644 l 1272 508 l 1144 508 l 1144 440 q 1082 200 1144 304 q 908 38 1020 96 q 649 -19 795 -19 q 390 38 502 -19 q 215 200 277 96 q 153 440 153 304 l 153 508 l 25 508 l 25 644 l 153 644 m 336 447 q 374 286 336 355 q 482 181 411 218 q 649 144 552 144 q 816 181 746 144 q 924 286 886 218 q 961 447 961 355 l 961 508 l 336 508 l 336 447 z "},"Ŭ":{"ha":1197,"x_min":103,"x_max":1094,"o":"m 286 447 q 324 286 286 355 q 432 181 361 218 q 599 144 502 144 q 766 181 696 144 q 874 286 836 218 q 911 447 911 355 l 911 1042 l 1094 1042 l 1094 440 q 1032 200 1094 304 q 858 38 970 96 q 599 -19 745 -19 q 340 38 452 -19 q 165 200 227 96 q 103 440 103 304 l 103 1042 l 286 1042 l 286 447 m 443 1340 q 597 1238 478 1238 q 697 1264 658 1238 q 753 1340 736 1290 l 897 1340 q 792 1176 872 1233 q 597 1119 713 1119 q 402 1176 481 1119 q 299 1340 324 1233 l 443 1340 z "},"Ǔ":{"ha":1197,"x_min":103,"x_max":1094,"o":"m 286 447 q 324 286 286 355 q 432 181 361 218 q 599 144 502 144 q 766 181 696 144 q 874 286 836 218 q 911 447 911 355 l 911 1042 l 1094 1042 l 1094 440 q 1032 200 1094 304 q 858 38 970 96 q 599 -19 745 -19 q 340 38 452 -19 q 165 200 227 96 q 103 440 103 304 l 103 1042 l 286 1042 l 286 447 m 497 1126 l 292 1338 l 457 1338 l 599 1224 l 740 1338 l 904 1338 l 700 1126 l 497 1126 z "},"Û":{"ha":1197,"x_min":103,"x_max":1094,"o":"m 286 447 q 324 286 286 355 q 432 181 361 218 q 599 144 502 144 q 766 181 696 144 q 874 286 836 218 q 911 447 911 355 l 911 1042 l 1094 1042 l 1094 440 q 1032 200 1094 304 q 858 38 970 96 q 599 -19 745 -19 q 340 38 452 -19 q 165 200 227 96 q 103 440 103 304 l 103 1042 l 286 1042 l 286 447 m 699 1338 l 904 1126 l 739 1126 l 597 1240 l 456 1126 l 292 1126 l 496 1338 l 699 1338 z "},"Ṷ":{"ha":1197,"x_min":103,"x_max":1094,"o":"m 286 447 q 324 286 286 355 q 432 181 361 218 q 599 144 502 144 q 766 181 696 144 q 874 286 836 218 q 911 447 911 355 l 911 1042 l 1094 1042 l 1094 440 q 1032 200 1094 304 q 858 38 970 96 q 599 -19 745 -19 q 340 38 452 -19 q 165 200 227 96 q 103 440 103 304 l 103 1042 l 286 1042 l 286 447 m 696 -58 l 894 -297 l 740 -297 l 599 -155 l 458 -297 l 303 -297 l 501 -58 l 696 -58 z "},"Ȕ":{"ha":1197,"x_min":103,"x_max":1094,"o":"m 286 447 q 324 286 286 355 q 432 181 361 218 q 599 144 502 144 q 766 181 696 144 q 874 286 836 218 q 911 447 911 355 l 911 1042 l 1094 1042 l 1094 440 q 1032 200 1094 304 q 858 38 970 96 q 599 -19 745 -19 q 340 38 452 -19 q 165 200 227 96 q 103 440 103 304 l 103 1042 l 286 1042 l 286 447 m 833 1126 l 665 1126 l 483 1338 l 665 1338 l 833 1126 m 361 1338 l 528 1126 l 360 1126 l 178 1338 l 361 1338 z "},"Ü":{"ha":1197,"x_min":103,"x_max":1094,"o":"m 286 447 q 324 286 286 355 q 432 181 361 218 q 599 144 502 144 q 766 181 696 144 q 874 286 836 218 q 911 447 911 355 l 911 1042 l 1094 1042 l 1094 440 q 1032 200 1094 304 q 858 38 970 96 q 599 -19 745 -19 q 340 38 452 -19 q 165 200 227 96 q 103 440 103 304 l 103 1042 l 286 1042 l 286 447 m 393 1146 q 312 1174 343 1146 q 281 1246 281 1201 q 312 1317 281 1290 q 393 1344 343 1344 q 474 1317 443 1344 q 506 1246 506 1290 q 474 1174 506 1201 q 393 1146 443 1146 m 690 1246 q 722 1317 690 1290 q 803 1344 753 1344 q 884 1317 853 1344 q 915 1246 915 1290 q 884 1174 915 1201 q 803 1146 853 1146 q 722 1174 753 1146 q 690 1246 690 1201 z "},"Ǘ":{"ha":1197,"x_min":103,"x_max":1094,"o":"m 286 447 q 324 286 286 355 q 432 181 361 218 q 599 144 502 144 q 766 181 696 144 q 874 286 836 218 q 911 447 911 355 l 911 1042 l 1094 1042 l 1094 440 q 1032 200 1094 304 q 858 38 970 96 q 599 -19 745 -19 q 340 38 452 -19 q 165 200 227 96 q 103 440 103 304 l 103 1042 l 286 1042 l 286 447 m 393 1146 q 312 1174 343 1146 q 281 1246 281 1201 q 312 1317 281 1290 q 393 1344 343 1344 q 474 1317 443 1344 q 506 1246 506 1290 q 474 1174 506 1201 q 393 1146 443 1146 m 690 1246 q 722 1317 690 1290 q 803 1344 753 1344 q 884 1317 853 1344 q 915 1246 915 1290 q 884 1174 915 1201 q 803 1146 853 1146 q 722 1174 753 1146 q 690 1246 690 1201 m 889 1611 l 661 1400 l 472 1400 l 675 1611 l 889 1611 z "},"Ṳ":{"ha":1197,"x_min":103,"x_max":1094,"o":"m 286 447 q 324 286 286 355 q 432 181 361 218 q 599 144 502 144 q 766 181 696 144 q 874 286 836 218 q 911 447 911 355 l 911 1042 l 1094 1042 l 1094 440 q 1032 200 1094 304 q 858 38 970 96 q 599 -19 745 -19 q 340 38 452 -19 q 165 200 227 96 q 103 440 103 304 l 103 1042 l 286 1042 l 286 447 m 396 -279 q 314 -252 345 -279 q 283 -179 283 -225 q 315 -108 283 -135 q 396 -81 346 -81 q 477 -108 446 -81 q 508 -179 508 -135 q 477 -252 508 -225 q 396 -279 447 -279 m 690 -179 q 722 -108 690 -135 q 803 -81 753 -81 q 883 -108 852 -81 q 914 -179 914 -135 q 883 -252 914 -224 q 803 -279 852 -279 q 721 -252 752 -279 q 690 -179 690 -225 z "},"Ǚ":{"ha":1197,"x_min":103,"x_max":1094,"o":"m 286 447 q 324 286 286 355 q 432 181 361 218 q 599 144 502 144 q 766 181 696 144 q 874 286 836 218 q 911 447 911 355 l 911 1042 l 1094 1042 l 1094 440 q 1032 200 1094 304 q 858 38 970 96 q 599 -19 745 -19 q 340 38 452 -19 q 165 200 227 96 q 103 440 103 304 l 103 1042 l 286 1042 l 286 447 m 393 1146 q 312 1174 343 1146 q 281 1246 281 1201 q 312 1317 281 1290 q 393 1344 343 1344 q 474 1317 443 1344 q 506 1246 506 1290 q 474 1174 506 1201 q 393 1146 443 1146 m 690 1246 q 722 1317 690 1290 q 803 1344 753 1344 q 884 1317 853 1344 q 915 1246 915 1290 q 884 1174 915 1201 q 803 1146 853 1146 q 722 1174 753 1146 q 690 1246 690 1201 m 497 1400 l 292 1611 l 457 1611 l 599 1498 l 740 1611 l 904 1611 l 700 1400 l 497 1400 z "},"Ǜ":{"ha":1197,"x_min":103,"x_max":1094,"o":"m 286 447 q 324 286 286 355 q 432 181 361 218 q 599 144 502 144 q 766 181 696 144 q 874 286 836 218 q 911 447 911 355 l 911 1042 l 1094 1042 l 1094 440 q 1032 200 1094 304 q 858 38 970 96 q 599 -19 745 -19 q 340 38 452 -19 q 165 200 227 96 q 103 440 103 304 l 103 1042 l 286 1042 l 286 447 m 393 1146 q 312 1174 343 1146 q 281 1246 281 1201 q 312 1317 281 1290 q 393 1344 343 1344 q 474 1317 443 1344 q 506 1246 506 1290 q 474 1174 506 1201 q 393 1146 443 1146 m 690 1246 q 722 1317 690 1290 q 803 1344 753 1344 q 884 1317 853 1344 q 915 1246 915 1290 q 884 1174 915 1201 q 803 1146 853 1146 q 722 1174 753 1146 q 690 1246 690 1201 m 704 1400 l 515 1400 l 288 1611 l 501 1611 l 704 1400 z "},"Ǖ":{"ha":1197,"x_min":103,"x_max":1094,"o":"m 286 447 q 324 286 286 355 q 432 181 361 218 q 599 144 502 144 q 766 181 696 144 q 874 286 836 218 q 911 447 911 355 l 911 1042 l 1094 1042 l 1094 440 q 1032 200 1094 304 q 858 38 970 96 q 599 -19 745 -19 q 340 38 452 -19 q 165 200 227 96 q 103 440 103 304 l 103 1042 l 286 1042 l 286 447 m 394 1146 q 313 1174 344 1146 q 282 1246 282 1201 q 313 1317 282 1290 q 394 1344 344 1344 q 476 1317 444 1344 q 507 1246 507 1290 q 476 1174 507 1201 q 394 1146 444 1146 m 300 1546 l 900 1546 l 900 1426 l 300 1426 l 300 1546 m 692 1246 q 723 1317 692 1290 q 804 1344 754 1344 q 885 1317 854 1344 q 917 1246 917 1290 q 885 1174 917 1201 q 804 1146 854 1146 q 723 1174 754 1146 q 692 1246 692 1201 z "},"Ụ":{"ha":1197,"x_min":103,"x_max":1094,"o":"m 286 447 q 324 286 286 355 q 432 181 361 218 q 599 144 502 144 q 766 181 696 144 q 874 286 836 218 q 911 447 911 355 l 911 1042 l 1094 1042 l 1094 440 q 1032 200 1094 304 q 858 38 970 96 q 599 -19 745 -19 q 340 38 452 -19 q 165 200 227 96 q 103 440 103 304 l 103 1042 l 286 1042 l 286 447 m 599 -286 q 514 -258 547 -286 q 481 -183 481 -229 q 514 -109 481 -137 q 599 -81 547 -81 q 684 -109 651 -81 q 717 -183 717 -137 q 684 -258 717 -229 q 599 -286 651 -286 z "},"Ù":{"ha":1197,"x_min":103,"x_max":1094,"o":"m 286 447 q 324 286 286 355 q 432 181 361 218 q 599 144 502 144 q 766 181 696 144 q 874 286 836 218 q 911 447 911 355 l 911 1042 l 1094 1042 l 1094 440 q 1032 200 1094 304 q 858 38 970 96 q 599 -19 745 -19 q 340 38 452 -19 q 165 200 227 96 q 103 440 103 304 l 103 1042 l 286 1042 l 286 447 m 704 1126 l 515 1126 l 288 1338 l 501 1338 l 704 1126 z "},"Ủ":{"ha":1197,"x_min":103,"x_max":1094,"o":"m 286 447 q 324 286 286 355 q 432 181 361 218 q 599 144 502 144 q 766 181 696 144 q 874 286 836 218 q 911 447 911 355 l 911 1042 l 1094 1042 l 1094 440 q 1032 200 1094 304 q 858 38 970 96 q 599 -19 745 -19 q 340 38 452 -19 q 165 200 227 96 q 103 440 103 304 l 103 1042 l 286 1042 l 286 447 m 510 1178 q 606 1205 574 1188 q 638 1243 638 1222 q 614 1271 638 1262 q 544 1281 590 1281 q 486 1277 513 1281 q 422 1265 460 1273 l 422 1374 q 495 1388 452 1382 q 581 1394 538 1394 q 740 1363 684 1394 q 796 1267 796 1331 q 737 1167 796 1206 q 551 1107 678 1128 l 510 1178 z "},"Ư":{"ha":1242,"x_min":103,"x_max":1310,"o":"m 286 447 q 324 286 286 355 q 432 181 361 218 q 599 144 502 144 q 766 181 696 144 q 874 286 836 218 q 911 447 911 355 l 911 1042 l 1060 1042 l 1064 1042 q 1136 1064 1110 1042 q 1163 1124 1163 1086 q 1153 1173 1163 1146 q 1128 1224 1144 1200 l 1274 1224 q 1310 1104 1310 1166 q 1284 1017 1310 1055 q 1209 958 1258 979 q 1094 933 1160 936 l 1094 440 q 1032 200 1094 304 q 858 38 970 96 q 599 -19 745 -19 q 340 38 452 -19 q 165 200 227 96 q 103 440 103 304 l 103 1042 l 286 1042 l 286 447 z "},"Ứ":{"ha":1242,"x_min":103,"x_max":1310,"o":"m 286 447 q 324 286 286 355 q 432 181 361 218 q 599 144 502 144 q 766 181 696 144 q 874 286 836 218 q 911 447 911 355 l 911 1042 l 1060 1042 l 1064 1042 q 1136 1064 1110 1042 q 1163 1124 1163 1086 q 1153 1173 1163 1146 q 1128 1224 1144 1200 l 1274 1224 q 1310 1104 1310 1166 q 1284 1017 1310 1055 q 1209 958 1258 979 q 1094 933 1160 936 l 1094 440 q 1032 200 1094 304 q 858 38 970 96 q 599 -19 745 -19 q 340 38 452 -19 q 165 200 227 96 q 103 440 103 304 l 103 1042 l 286 1042 l 286 447 m 892 1338 l 664 1126 l 475 1126 l 678 1338 l 892 1338 z "},"Ự":{"ha":1242,"x_min":103,"x_max":1310,"o":"m 286 447 q 324 286 286 355 q 432 181 361 218 q 599 144 502 144 q 766 181 696 144 q 874 286 836 218 q 911 447 911 355 l 911 1042 l 1060 1042 l 1064 1042 q 1136 1064 1110 1042 q 1163 1124 1163 1086 q 1153 1173 1163 1146 q 1128 1224 1144 1200 l 1274 1224 q 1310 1104 1310 1166 q 1284 1017 1310 1055 q 1209 958 1258 979 q 1094 933 1160 936 l 1094 440 q 1032 200 1094 304 q 858 38 970 96 q 599 -19 745 -19 q 340 38 452 -19 q 165 200 227 96 q 103 440 103 304 l 103 1042 l 286 1042 l 286 447 m 601 -286 q 516 -258 549 -286 q 483 -183 483 -229 q 516 -109 483 -137 q 601 -81 549 -81 q 686 -109 653 -81 q 719 -183 719 -137 q 686 -258 719 -229 q 601 -286 653 -286 z "},"Ừ":{"ha":1242,"x_min":103,"x_max":1310,"o":"m 286 447 q 324 286 286 355 q 432 181 361 218 q 599 144 502 144 q 766 181 696 144 q 874 286 836 218 q 911 447 911 355 l 911 1042 l 1060 1042 l 1064 1042 q 1136 1064 1110 1042 q 1163 1124 1163 1086 q 1153 1173 1163 1146 q 1128 1224 1144 1200 l 1274 1224 q 1310 1104 1310 1166 q 1284 1017 1310 1055 q 1209 958 1258 979 q 1094 933 1160 936 l 1094 440 q 1032 200 1094 304 q 858 38 970 96 q 599 -19 745 -19 q 340 38 452 -19 q 165 200 227 96 q 103 440 103 304 l 103 1042 l 286 1042 l 286 447 m 707 1126 l 518 1126 l 290 1338 l 504 1338 l 707 1126 z "},"Ử":{"ha":1242,"x_min":103,"x_max":1310,"o":"m 286 447 q 324 286 286 355 q 432 181 361 218 q 599 144 502 144 q 766 181 696 144 q 874 286 836 218 q 911 447 911 355 l 911 1042 l 1060 1042 l 1064 1042 q 1136 1064 1110 1042 q 1163 1124 1163 1086 q 1153 1173 1163 1146 q 1128 1224 1144 1200 l 1274 1224 q 1310 1104 1310 1166 q 1284 1017 1310 1055 q 1209 958 1258 979 q 1094 933 1160 936 l 1094 440 q 1032 200 1094 304 q 858 38 970 96 q 599 -19 745 -19 q 340 38 452 -19 q 165 200 227 96 q 103 440 103 304 l 103 1042 l 286 1042 l 286 447 m 513 1178 q 609 1205 577 1188 q 640 1243 640 1222 q 616 1271 640 1262 q 547 1281 592 1281 q 489 1277 515 1281 q 425 1265 463 1273 l 425 1374 q 498 1388 455 1382 q 583 1394 540 1394 q 743 1363 687 1394 q 799 1267 799 1331 q 740 1167 799 1206 q 554 1107 681 1128 l 513 1178 z "},"Ữ":{"ha":1242,"x_min":103,"x_max":1310,"o":"m 286 447 q 324 286 286 355 q 432 181 361 218 q 599 144 502 144 q 766 181 696 144 q 874 286 836 218 q 911 447 911 355 l 911 1042 l 1060 1042 l 1064 1042 q 1136 1064 1110 1042 q 1163 1124 1163 1086 q 1153 1173 1163 1146 q 1128 1224 1144 1200 l 1274 1224 q 1310 1104 1310 1166 q 1284 1017 1310 1055 q 1209 958 1258 979 q 1094 933 1160 936 l 1094 440 q 1032 200 1094 304 q 858 38 970 96 q 599 -19 745 -19 q 340 38 452 -19 q 165 200 227 96 q 103 440 103 304 l 103 1042 l 286 1042 l 286 447 m 271 1136 q 331 1283 281 1229 q 467 1336 381 1336 q 538 1325 503 1336 q 623 1292 573 1314 q 684 1268 660 1276 q 729 1260 709 1260 q 780 1279 760 1260 q 804 1332 800 1298 l 931 1332 q 870 1185 920 1239 q 735 1132 820 1132 q 664 1143 699 1132 q 578 1176 628 1154 q 517 1200 541 1192 q 472 1208 493 1208 q 421 1189 441 1208 q 397 1136 401 1170 l 271 1136 z "},"Ű":{"ha":1197,"x_min":103,"x_max":1094,"o":"m 286 447 q 324 286 286 355 q 432 181 361 218 q 599 144 502 144 q 766 181 696 144 q 874 286 836 218 q 911 447 911 355 l 911 1042 l 1094 1042 l 1094 440 q 1032 200 1094 304 q 858 38 970 96 q 599 -19 745 -19 q 340 38 452 -19 q 165 200 227 96 q 103 440 103 304 l 103 1042 l 286 1042 l 286 447 m 672 1338 l 490 1126 l 322 1126 l 490 1338 l 672 1338 m 794 1338 l 978 1338 l 796 1126 l 628 1126 l 794 1338 z "},"Ȗ":{"ha":1197,"x_min":103,"x_max":1094,"o":"m 286 447 q 324 286 286 355 q 432 181 361 218 q 599 144 502 144 q 766 181 696 144 q 874 286 836 218 q 911 447 911 355 l 911 1042 l 1094 1042 l 1094 440 q 1032 200 1094 304 q 858 38 970 96 q 599 -19 745 -19 q 340 38 452 -19 q 165 200 227 96 q 103 440 103 304 l 103 1042 l 286 1042 l 286 447 m 753 1124 q 599 1226 718 1226 q 499 1200 538 1226 q 443 1124 460 1174 l 299 1124 q 403 1288 324 1231 q 599 1344 483 1344 q 793 1288 715 1344 q 897 1124 872 1231 l 753 1124 z "},"Ū":{"ha":1197,"x_min":103,"x_max":1094,"o":"m 286 447 q 324 286 286 355 q 432 181 361 218 q 599 144 502 144 q 766 181 696 144 q 874 286 836 218 q 911 447 911 355 l 911 1042 l 1094 1042 l 1094 440 q 1032 200 1094 304 q 858 38 970 96 q 599 -19 745 -19 q 340 38 452 -19 q 165 200 227 96 q 103 440 103 304 l 103 1042 l 286 1042 l 286 447 m 299 1286 l 899 1286 l 899 1167 l 299 1167 l 299 1286 z "},"Ṻ":{"ha":1197,"x_min":103,"x_max":1094,"o":"m 286 447 q 324 286 286 355 q 432 181 361 218 q 599 144 502 144 q 766 181 696 144 q 874 286 836 218 q 911 447 911 355 l 911 1042 l 1094 1042 l 1094 440 q 1032 200 1094 304 q 858 38 970 96 q 599 -19 745 -19 q 340 38 452 -19 q 165 200 227 96 q 103 440 103 304 l 103 1042 l 286 1042 l 286 447 m 299 1286 l 899 1286 l 899 1167 l 299 1167 l 299 1286 m 393 1386 q 312 1414 343 1386 q 281 1486 281 1442 q 312 1558 281 1531 q 393 1585 343 1585 q 474 1558 443 1585 q 506 1486 506 1531 q 474 1414 506 1442 q 393 1386 443 1386 m 690 1486 q 722 1558 690 1531 q 803 1585 753 1585 q 884 1558 853 1585 q 915 1486 915 1531 q 884 1414 915 1442 q 803 1386 853 1386 q 722 1414 753 1386 q 690 1486 690 1442 z "},"Ų":{"ha":1197,"x_min":103,"x_max":1094,"o":"m 911 1042 l 1094 1042 l 1094 442 q 1055 243 1094 331 q 942 94 1015 154 q 769 4 869 33 q 633 -50 679 -23 q 588 -106 588 -76 q 614 -139 588 -128 q 693 -150 641 -150 q 779 -142 742 -150 l 779 -257 q 723 -269 759 -264 q 651 -274 687 -274 q 547 -258 592 -274 q 476 -215 501 -243 q 451 -149 451 -186 q 558 -17 451 -69 q 320 50 424 -10 q 160 210 217 109 q 103 442 103 312 l 103 1042 l 286 1042 l 286 449 q 324 288 286 356 q 432 183 361 219 q 599 146 502 146 q 766 183 696 146 q 874 288 836 219 q 911 449 911 356 l 911 1042 z "},"Ʊ":{"ha":1317,"x_min":63,"x_max":1254,"o":"m 658 -19 q 351 46 478 -19 q 158 226 224 112 q 93 483 93 340 q 148 711 93 608 q 305 889 203 815 l 63 889 l 63 1042 l 535 1042 l 535 900 q 274 521 274 766 q 319 322 274 407 q 452 192 365 238 q 658 146 539 146 q 865 192 778 146 q 997 322 951 238 q 1043 521 1043 407 q 782 900 1043 766 l 782 1042 l 1254 1042 l 1254 889 l 1011 889 q 1168 711 1113 815 q 1224 483 1224 608 q 1158 226 1224 340 q 966 46 1093 112 q 658 -19 838 -19 z "},"Ů":{"ha":1197,"x_min":103,"x_max":1094,"o":"m 286 447 q 324 286 286 355 q 432 181 361 218 q 599 144 502 144 q 766 181 696 144 q 874 286 836 218 q 911 447 911 355 l 911 1042 l 1094 1042 l 1094 440 q 1032 200 1094 304 q 858 38 970 96 q 599 -19 745 -19 q 340 38 452 -19 q 165 200 227 96 q 103 440 103 304 l 103 1042 l 286 1042 l 286 447 m 599 1108 q 477 1128 528 1108 q 399 1183 426 1147 q 372 1268 372 1219 q 399 1354 372 1318 q 477 1410 426 1390 q 599 1429 528 1429 q 720 1410 669 1429 q 798 1354 771 1390 q 825 1268 825 1318 q 798 1183 825 1219 q 720 1128 771 1147 q 599 1108 669 1108 m 482 1268 q 511 1217 482 1235 q 599 1199 541 1199 q 686 1217 656 1199 q 715 1268 715 1235 q 686 1321 715 1303 q 599 1339 656 1339 q 511 1321 541 1339 q 482 1268 482 1303 z "},"Ũ":{"ha":1197,"x_min":103,"x_max":1094,"o":"m 286 447 q 324 286 286 355 q 432 181 361 218 q 599 144 502 144 q 766 181 696 144 q 874 286 836 218 q 911 447 911 355 l 911 1042 l 1094 1042 l 1094 440 q 1032 200 1094 304 q 858 38 970 96 q 599 -19 745 -19 q 340 38 452 -19 q 165 200 227 96 q 103 440 103 304 l 103 1042 l 286 1042 l 286 447 m 268 1136 q 328 1283 278 1229 q 464 1336 378 1336 q 535 1325 500 1336 q 620 1292 570 1314 q 682 1268 657 1276 q 726 1260 706 1260 q 777 1279 758 1260 q 801 1332 797 1298 l 928 1332 q 867 1185 917 1239 q 732 1132 817 1132 q 661 1143 696 1132 q 576 1176 626 1154 q 514 1200 538 1192 q 469 1208 490 1208 q 418 1189 438 1208 q 394 1136 399 1170 l 268 1136 z "},"Ṹ":{"ha":1197,"x_min":103,"x_max":1094,"o":"m 286 447 q 324 286 286 355 q 432 181 361 218 q 599 144 502 144 q 766 181 696 144 q 874 286 836 218 q 911 447 911 355 l 911 1042 l 1094 1042 l 1094 440 q 1032 200 1094 304 q 858 38 970 96 q 599 -19 745 -19 q 340 38 452 -19 q 165 200 227 96 q 103 440 103 304 l 103 1042 l 286 1042 l 286 447 m 268 1136 q 328 1283 278 1229 q 464 1336 378 1336 q 535 1325 500 1336 q 620 1292 570 1314 q 682 1268 657 1276 q 726 1260 706 1260 q 777 1279 758 1260 q 801 1332 797 1298 l 928 1332 q 867 1185 917 1239 q 732 1132 817 1132 q 661 1143 696 1132 q 576 1176 626 1154 q 514 1200 538 1192 q 469 1208 490 1208 q 418 1189 438 1208 q 394 1136 399 1170 l 268 1136 m 889 1588 l 661 1376 l 472 1376 l 675 1588 l 889 1588 z "},"Ṵ":{"ha":1197,"x_min":103,"x_max":1094,"o":"m 286 447 q 324 286 286 355 q 432 181 361 218 q 599 144 502 144 q 766 181 696 144 q 874 286 836 218 q 911 447 911 355 l 911 1042 l 1094 1042 l 1094 440 q 1032 200 1094 304 q 858 38 970 96 q 599 -19 745 -19 q 340 38 452 -19 q 165 200 227 96 q 103 440 103 304 l 103 1042 l 286 1042 l 286 447 m 283 -276 q 336 -114 290 -173 q 465 -56 383 -56 q 533 -67 500 -56 q 614 -102 565 -79 q 670 -127 648 -119 q 711 -136 692 -136 q 761 -115 741 -136 q 788 -57 781 -94 l 914 -57 q 863 -217 908 -157 q 732 -276 817 -276 q 663 -264 697 -276 q 583 -229 629 -252 q 527 -204 548 -212 q 488 -196 506 -196 q 436 -217 457 -196 q 410 -276 416 -238 l 283 -276 z "},"V":{"ha":1229,"x_min":10,"x_max":1219,"o":"m 207 1042 l 618 169 l 1024 1042 l 1219 1042 l 717 0 l 513 0 l 10 1042 l 207 1042 z "},"Ɣ":{"ha":1214,"x_min":1,"x_max":1211,"o":"m 498 400 l 1 1042 l 207 1042 l 607 524 l 1014 1042 l 1211 1042 l 714 402 l 1035 0 l 183 0 l 498 400 m 732 128 l 607 284 l 485 128 l 732 128 z "},"Ṿ":{"ha":1229,"x_min":10,"x_max":1219,"o":"m 207 1042 l 618 169 l 1024 1042 l 1219 1042 l 717 0 l 513 0 l 10 1042 l 207 1042 m 615 -286 q 530 -258 563 -286 q 497 -183 497 -229 q 530 -109 497 -137 q 615 -81 563 -81 q 700 -109 667 -81 q 733 -183 733 -137 q 700 -258 733 -229 q 615 -286 667 -286 z "},"Ʋ":{"ha":1201,"x_min":106,"x_max":1136,"o":"m 106 1042 l 289 1042 l 289 433 q 352 223 289 301 q 546 144 416 144 q 748 210 655 144 q 895 395 840 276 q 950 671 950 515 q 897 843 950 783 q 750 903 844 903 q 594 865 669 903 l 594 1021 q 683 1049 630 1038 q 792 1061 735 1061 q 1048 964 959 1061 q 1136 672 1136 866 q 1060 320 1136 478 q 847 72 985 163 q 532 -19 709 -19 q 297 37 392 -19 q 153 194 201 94 q 106 428 106 295 l 106 1042 z "},"Ṽ":{"ha":1229,"x_min":10,"x_max":1219,"o":"m 207 1042 l 618 169 l 1024 1042 l 1219 1042 l 717 0 l 513 0 l 10 1042 l 207 1042 m 285 1136 q 344 1283 294 1229 q 481 1336 394 1336 q 552 1325 517 1336 q 637 1292 587 1314 q 698 1268 674 1276 q 743 1260 723 1260 q 794 1279 774 1260 q 818 1332 814 1298 l 944 1332 q 884 1185 934 1239 q 749 1132 834 1132 q 677 1143 713 1132 q 592 1176 642 1154 q 531 1200 555 1192 q 486 1208 507 1208 q 435 1189 455 1208 q 411 1136 415 1170 l 285 1136 z "},"Ʌ":{"ha":1222,"x_min":11,"x_max":1211,"o":"m 508 1042 l 714 1042 l 1211 0 l 1019 0 l 613 872 l 206 0 l 11 0 l 508 1042 z "},"W":{"ha":1828,"x_min":19,"x_max":1808,"o":"m 213 1042 l 499 167 l 815 1042 l 1014 1042 l 1331 170 l 1617 1042 l 1808 1042 l 1456 0 l 1222 0 l 914 838 l 606 0 l 372 0 l 19 1042 l 213 1042 z "},"Ẃ":{"ha":1828,"x_min":19,"x_max":1808,"o":"m 213 1042 l 499 167 l 815 1042 l 1014 1042 l 1331 170 l 1617 1042 l 1808 1042 l 1456 0 l 1222 0 l 914 838 l 606 0 l 372 0 l 19 1042 l 213 1042 m 1204 1338 l 976 1126 l 788 1126 l 990 1338 l 1204 1338 z "},"Ŵ":{"ha":1828,"x_min":19,"x_max":1808,"o":"m 213 1042 l 499 167 l 815 1042 l 1014 1042 l 1331 170 l 1617 1042 l 1808 1042 l 1456 0 l 1222 0 l 914 838 l 606 0 l 372 0 l 19 1042 l 213 1042 m 1014 1338 l 1219 1126 l 1054 1126 l 913 1240 l 771 1126 l 607 1126 l 811 1338 l 1014 1338 z "},"Ẅ":{"ha":1828,"x_min":19,"x_max":1808,"o":"m 213 1042 l 499 167 l 815 1042 l 1014 1042 l 1331 170 l 1617 1042 l 1808 1042 l 1456 0 l 1222 0 l 914 838 l 606 0 l 372 0 l 19 1042 l 213 1042 m 708 1146 q 627 1174 658 1146 q 596 1246 596 1201 q 627 1317 596 1290 q 708 1344 658 1344 q 790 1317 758 1344 q 821 1246 821 1290 q 790 1174 821 1201 q 708 1146 758 1146 m 1006 1246 q 1037 1317 1006 1290 q 1118 1344 1068 1344 q 1199 1317 1168 1344 q 1231 1246 1231 1290 q 1199 1174 1231 1201 q 1118 1146 1168 1146 q 1037 1174 1068 1146 q 1006 1246 1006 1201 z "},"Ẇ":{"ha":1828,"x_min":19,"x_max":1808,"o":"m 213 1042 l 499 167 l 815 1042 l 1014 1042 l 1331 170 l 1617 1042 l 1808 1042 l 1456 0 l 1222 0 l 914 838 l 606 0 l 372 0 l 19 1042 l 213 1042 m 914 1146 q 829 1174 862 1146 q 796 1249 796 1203 q 829 1324 796 1294 q 914 1353 862 1353 q 999 1324 966 1353 q 1032 1249 1032 1294 q 999 1174 1032 1203 q 914 1146 966 1146 z "},"Ẉ":{"ha":1828,"x_min":19,"x_max":1808,"o":"m 213 1042 l 499 167 l 815 1042 l 1014 1042 l 1331 170 l 1617 1042 l 1808 1042 l 1456 0 l 1222 0 l 914 838 l 606 0 l 372 0 l 19 1042 l 213 1042 m 914 -286 q 829 -258 862 -286 q 796 -183 796 -229 q 829 -109 796 -137 q 914 -81 862 -81 q 999 -109 966 -81 q 1032 -183 1032 -137 q 999 -258 1032 -229 q 914 -286 966 -286 z "},"Ẁ":{"ha":1828,"x_min":19,"x_max":1808,"o":"m 213 1042 l 499 167 l 815 1042 l 1014 1042 l 1331 170 l 1617 1042 l 1808 1042 l 1456 0 l 1222 0 l 914 838 l 606 0 l 372 0 l 19 1042 l 213 1042 m 1019 1126 l 831 1126 l 603 1338 l 817 1338 l 1019 1126 z "},"Ⱳ":{"ha":1911,"x_min":21,"x_max":1864,"o":"m 214 1042 l 496 167 l 813 1042 l 1011 1042 l 1317 169 l 1558 899 q 1603 994 1578 958 q 1665 1045 1629 1029 q 1751 1061 1700 1061 q 1864 1042 1808 1061 l 1864 897 q 1801 911 1828 911 q 1756 895 1773 911 q 1724 835 1739 878 l 1442 0 l 1208 0 l 910 835 l 603 0 l 369 0 l 21 1042 l 214 1042 z "},"X":{"ha":1101,"x_min":-8,"x_max":1110,"o":"m 438 543 l 26 1042 l 254 1042 l 556 665 l 854 1042 l 1075 1042 l 667 543 l 1110 0 l 883 0 l 549 422 l 213 0 l -8 0 l 438 543 z "},"Ẍ":{"ha":1101,"x_min":-8,"x_max":1110,"o":"m 438 543 l 26 1042 l 254 1042 l 556 665 l 854 1042 l 1075 1042 l 667 543 l 1110 0 l 883 0 l 549 422 l 213 0 l -8 0 l 438 543 m 346 1146 q 265 1174 296 1146 q 233 1246 233 1201 q 265 1317 233 1290 q 346 1344 296 1344 q 427 1317 396 1344 q 458 1246 458 1290 q 427 1174 458 1201 q 346 1146 396 1146 m 643 1246 q 674 1317 643 1290 q 756 1344 706 1344 q 837 1317 806 1344 q 868 1246 868 1290 q 837 1174 868 1201 q 756 1146 806 1146 q 674 1174 706 1146 q 643 1246 643 1201 z "},"Ẋ":{"ha":1101,"x_min":-8,"x_max":1110,"o":"m 438 543 l 26 1042 l 254 1042 l 556 665 l 854 1042 l 1075 1042 l 667 543 l 1110 0 l 883 0 l 549 422 l 213 0 l -8 0 l 438 543 m 551 1146 q 466 1174 499 1146 q 433 1249 433 1203 q 466 1324 433 1294 q 551 1353 499 1353 q 636 1324 603 1353 q 669 1249 669 1294 q 636 1174 669 1203 q 551 1146 603 1146 z "},"Y":{"ha":1210,"x_min":22,"x_max":1188,"o":"m 514 425 l 22 1042 l 229 1042 l 605 570 l 981 1042 l 1188 1042 l 697 426 l 697 0 l 514 0 l 514 425 z "},"Ý":{"ha":1210,"x_min":22,"x_max":1188,"o":"m 514 425 l 22 1042 l 229 1042 l 605 570 l 981 1042 l 1188 1042 l 697 426 l 697 0 l 514 0 l 514 425 m 896 1338 l 668 1126 l 479 1126 l 682 1338 l 896 1338 z "},"Ŷ":{"ha":1210,"x_min":22,"x_max":1188,"o":"m 514 425 l 22 1042 l 229 1042 l 605 570 l 981 1042 l 1188 1042 l 697 426 l 697 0 l 514 0 l 514 425 m 706 1338 l 911 1126 l 746 1126 l 604 1240 l 463 1126 l 299 1126 l 503 1338 l 706 1338 z "},"Ÿ":{"ha":1210,"x_min":22,"x_max":1188,"o":"m 514 425 l 22 1042 l 229 1042 l 605 570 l 981 1042 l 1188 1042 l 697 426 l 697 0 l 514 0 l 514 425 m 400 1146 q 319 1174 350 1146 q 288 1246 288 1201 q 319 1317 288 1290 q 400 1344 350 1344 q 481 1317 450 1344 q 513 1246 513 1290 q 481 1174 513 1201 q 400 1146 450 1146 m 697 1246 q 728 1317 697 1290 q 810 1344 760 1344 q 891 1317 860 1344 q 922 1246 922 1290 q 891 1174 922 1201 q 810 1146 860 1146 q 728 1174 760 1146 q 697 1246 697 1201 z "},"Ẏ":{"ha":1210,"x_min":22,"x_max":1188,"o":"m 514 425 l 22 1042 l 229 1042 l 605 570 l 981 1042 l 1188 1042 l 697 426 l 697 0 l 514 0 l 514 425 m 606 1146 q 520 1174 553 1146 q 488 1249 488 1203 q 520 1324 488 1294 q 606 1353 553 1353 q 691 1324 658 1353 q 724 1249 724 1294 q 691 1174 724 1203 q 606 1146 658 1146 z "},"Ỵ":{"ha":1210,"x_min":22,"x_max":1188,"o":"m 514 425 l 22 1042 l 229 1042 l 605 570 l 981 1042 l 1188 1042 l 697 426 l 697 0 l 514 0 l 514 425 m 604 -286 q 519 -258 552 -286 q 486 -183 486 -229 q 519 -109 486 -137 q 604 -81 552 -81 q 689 -109 656 -81 q 722 -183 722 -137 q 689 -258 722 -229 q 604 -286 656 -286 z "},"Ỳ":{"ha":1210,"x_min":22,"x_max":1188,"o":"m 514 425 l 22 1042 l 229 1042 l 605 570 l 981 1042 l 1188 1042 l 697 426 l 697 0 l 514 0 l 514 425 m 711 1126 l 522 1126 l 294 1338 l 508 1338 l 711 1126 z "},"Ƴ":{"ha":1219,"x_min":17,"x_max":1181,"o":"m 508 425 l 17 1042 l 222 1042 l 600 567 l 850 913 q 924 1002 892 971 q 989 1048 956 1034 q 1068 1061 1022 1061 q 1181 1042 1124 1061 l 1181 897 q 1099 911 1133 911 q 1042 898 1062 911 q 997 850 1022 885 l 692 428 l 692 0 l 508 0 l 508 425 z "},"Ỷ":{"ha":1210,"x_min":22,"x_max":1188,"o":"m 514 425 l 22 1042 l 229 1042 l 605 570 l 981 1042 l 1188 1042 l 697 426 l 697 0 l 514 0 l 514 425 m 517 1178 q 613 1205 581 1188 q 644 1243 644 1222 q 620 1271 644 1262 q 551 1281 597 1281 q 493 1277 519 1281 q 429 1265 467 1273 l 429 1374 q 502 1388 459 1382 q 588 1394 544 1394 q 747 1363 691 1394 q 803 1267 803 1331 q 744 1167 803 1206 q 558 1107 685 1128 l 517 1178 z "},"Ȳ":{"ha":1210,"x_min":22,"x_max":1188,"o":"m 514 425 l 22 1042 l 229 1042 l 605 570 l 981 1042 l 1188 1042 l 697 426 l 697 0 l 514 0 l 514 425 m 306 1286 l 906 1286 l 906 1167 l 306 1167 l 306 1286 z "},"Ɏ":{"ha":1293,"x_min":33,"x_max":1260,"o":"m 183 893 l 64 1042 l 271 1042 l 390 893 l 903 893 l 1022 1042 l 1229 1042 l 1110 893 l 1260 893 l 1260 757 l 1002 757 l 739 426 l 739 0 l 556 0 l 556 425 l 291 757 l 33 757 l 33 893 l 183 893 m 647 570 l 795 757 l 498 757 l 647 570 z "},"Ỹ":{"ha":1210,"x_min":22,"x_max":1188,"o":"m 514 425 l 22 1042 l 229 1042 l 605 570 l 981 1042 l 1188 1042 l 697 426 l 697 0 l 514 0 l 514 425 m 275 1136 q 335 1283 285 1229 q 471 1336 385 1336 q 542 1325 507 1336 q 627 1292 577 1314 q 689 1268 664 1276 q 733 1260 713 1260 q 784 1279 765 1260 q 808 1332 804 1298 l 935 1332 q 874 1185 924 1239 q 739 1132 824 1132 q 668 1143 703 1132 q 583 1176 633 1154 q 521 1200 545 1192 q 476 1208 497 1208 q 425 1189 445 1208 q 401 1136 406 1170 l 275 1136 z "},"Z":{"ha":1076,"x_min":56,"x_max":1019,"o":"m 56 140 l 767 889 l 61 889 l 61 1042 l 1015 1042 l 1015 903 l 303 153 l 1019 153 l 1019 0 l 56 0 l 56 140 z "},"Ź":{"ha":1076,"x_min":56,"x_max":1019,"o":"m 56 140 l 767 889 l 61 889 l 61 1042 l 1015 1042 l 1015 903 l 303 153 l 1019 153 l 1019 0 l 56 0 l 56 140 m 829 1338 l 601 1126 l 413 1126 l 615 1338 l 829 1338 z "},"Ž":{"ha":1076,"x_min":56,"x_max":1019,"o":"m 56 140 l 767 889 l 61 889 l 61 1042 l 1015 1042 l 1015 903 l 303 153 l 1019 153 l 1019 0 l 56 0 l 56 140 m 438 1126 l 232 1338 l 397 1338 l 539 1224 l 681 1338 l 844 1338 l 640 1126 l 438 1126 z "},"Ẑ":{"ha":1076,"x_min":56,"x_max":1019,"o":"m 56 140 l 767 889 l 61 889 l 61 1042 l 1015 1042 l 1015 903 l 303 153 l 1019 153 l 1019 0 l 56 0 l 56 140 m 639 1338 l 844 1126 l 679 1126 l 538 1240 l 396 1126 l 232 1126 l 436 1338 l 639 1338 z "},"Ż":{"ha":1076,"x_min":56,"x_max":1019,"o":"m 56 140 l 767 889 l 61 889 l 61 1042 l 1015 1042 l 1015 903 l 303 153 l 1019 153 l 1019 0 l 56 0 l 56 140 m 539 1146 q 454 1174 487 1146 q 421 1249 421 1203 q 454 1324 421 1294 q 539 1353 487 1353 q 624 1324 591 1353 q 657 1249 657 1294 q 624 1174 657 1203 q 539 1146 591 1146 z "},"Ẓ":{"ha":1076,"x_min":56,"x_max":1019,"o":"m 56 140 l 767 889 l 61 889 l 61 1042 l 1015 1042 l 1015 903 l 303 153 l 1019 153 l 1019 0 l 56 0 l 56 140 m 538 -286 q 452 -258 485 -286 q 419 -183 419 -229 q 452 -109 419 -137 q 538 -81 485 -81 q 623 -109 590 -81 q 656 -183 656 -137 q 623 -258 656 -229 q 538 -286 590 -286 z "},"Ẕ":{"ha":1076,"x_min":56,"x_max":1019,"o":"m 56 140 l 767 889 l 61 889 l 61 1042 l 1015 1042 l 1015 903 l 303 153 l 1019 153 l 1019 0 l 56 0 l 56 140 m 238 -94 l 838 -94 l 838 -214 l 238 -214 l 238 -94 z "},"Ƶ":{"ha":1088,"x_min":61,"x_max":1025,"o":"m 494 596 l 772 889 l 67 889 l 67 1042 l 1021 1042 l 1021 903 l 730 596 l 951 596 l 951 460 l 601 460 l 309 153 l 1025 153 l 1025 0 l 61 0 l 61 140 l 365 460 l 140 460 l 140 596 l 494 596 z "},"ɪ":{"ha":806,"x_min":50,"x_max":756,"o":"m 50 117 l 313 117 l 313 669 l 50 669 l 50 786 l 756 786 l 756 669 l 493 669 l 493 117 l 756 117 l 756 0 l 50 0 l 50 117 z "},"a":{"ha":1093,"x_min":54,"x_max":1015,"o":"m 809 195 q 654 37 748 94 q 447 -19 560 -19 q 244 32 333 -19 q 104 178 154 84 q 54 393 54 272 q 104 608 54 515 q 244 754 154 702 q 447 806 333 806 q 655 749 561 806 q 809 592 748 693 l 829 786 l 1015 786 l 974 393 l 1015 0 l 829 0 l 809 195 m 238 393 q 270 254 238 315 q 360 159 302 193 q 490 125 417 125 q 627 159 563 125 q 741 253 692 192 q 821 393 791 313 q 741 533 791 472 q 627 627 692 593 q 490 661 563 661 q 360 627 417 661 q 270 532 302 592 q 238 393 238 471 z "},"á":{"ha":1093,"x_min":54,"x_max":1015,"o":"m 809 195 q 654 37 748 94 q 447 -19 560 -19 q 244 32 333 -19 q 104 178 154 84 q 54 393 54 272 q 104 608 54 515 q 244 754 154 702 q 447 806 333 806 q 655 749 561 806 q 809 592 748 693 l 829 786 l 1015 786 l 974 393 l 1015 0 l 829 0 l 809 195 m 238 393 q 270 254 238 315 q 360 159 302 193 q 490 125 417 125 q 627 159 563 125 q 741 253 692 192 q 821 393 791 313 q 741 533 791 472 q 627 627 692 593 q 490 661 563 661 q 360 627 417 661 q 270 532 302 592 q 238 393 238 471 m 781 1110 l 604 871 l 431 871 l 600 1110 l 781 1110 z "},"ă":{"ha":1093,"x_min":54,"x_max":1015,"o":"m 809 195 q 654 37 748 94 q 447 -19 560 -19 q 244 32 333 -19 q 104 178 154 84 q 54 393 54 272 q 104 608 54 515 q 244 754 154 702 q 447 806 333 806 q 655 749 561 806 q 809 592 748 693 l 829 786 l 1015 786 l 974 393 l 1015 0 l 829 0 l 809 195 m 238 393 q 270 254 238 315 q 360 159 302 193 q 490 125 417 125 q 627 159 563 125 q 741 253 692 192 q 821 393 791 313 q 741 533 791 472 q 627 627 692 593 q 490 661 563 661 q 360 627 417 661 q 270 532 302 592 q 238 393 238 471 m 386 1108 q 438 1015 398 1049 q 536 982 477 982 q 635 1015 595 982 q 688 1108 675 1049 l 828 1108 q 736 929 812 993 q 536 865 660 865 q 337 929 413 865 q 244 1108 261 993 l 386 1108 z "},"ắ":{"ha":1093,"x_min":54,"x_max":1015,"o":"m 809 195 q 654 37 748 94 q 447 -19 560 -19 q 244 32 333 -19 q 104 178 154 84 q 54 393 54 272 q 104 608 54 515 q 244 754 154 702 q 447 806 333 806 q 655 749 561 806 q 809 592 748 693 l 829 786 l 1015 786 l 974 393 l 1015 0 l 829 0 l 809 195 m 238 393 q 270 254 238 315 q 360 159 302 193 q 490 125 417 125 q 627 159 563 125 q 741 253 692 192 q 821 393 791 313 q 741 533 791 472 q 627 627 692 593 q 490 661 563 661 q 360 627 417 661 q 270 532 302 592 q 238 393 238 471 m 386 1108 q 438 1015 398 1049 q 536 982 477 982 q 635 1015 595 982 q 688 1108 675 1049 l 828 1108 q 736 929 812 993 q 536 865 660 865 q 337 929 413 865 q 244 1108 261 993 l 386 1108 m 560 1349 l 733 1349 l 600 1124 l 460 1124 l 560 1349 z "},"ặ":{"ha":1093,"x_min":54,"x_max":1015,"o":"m 809 195 q 654 37 748 94 q 447 -19 560 -19 q 244 32 333 -19 q 104 178 154 84 q 54 393 54 272 q 104 608 54 515 q 244 754 154 702 q 447 806 333 806 q 655 749 561 806 q 809 592 748 693 l 829 786 l 1015 786 l 974 393 l 1015 0 l 829 0 l 809 195 m 238 393 q 270 254 238 315 q 360 159 302 193 q 490 125 417 125 q 627 159 563 125 q 741 253 692 192 q 821 393 791 313 q 741 533 791 472 q 627 627 692 593 q 490 661 563 661 q 360 627 417 661 q 270 532 302 592 q 238 393 238 471 m 538 -286 q 452 -258 485 -286 q 419 -183 419 -229 q 452 -109 419 -137 q 538 -81 485 -81 q 623 -109 590 -81 q 656 -183 656 -137 q 623 -258 656 -229 q 538 -286 590 -286 m 386 1108 q 438 1015 398 1049 q 536 982 477 982 q 635 1015 595 982 q 688 1108 675 1049 l 828 1108 q 736 929 812 993 q 536 865 660 865 q 337 929 413 865 q 244 1108 261 993 l 386 1108 z "},"ằ":{"ha":1093,"x_min":54,"x_max":1015,"o":"m 809 195 q 654 37 748 94 q 447 -19 560 -19 q 244 32 333 -19 q 104 178 154 84 q 54 393 54 272 q 104 608 54 515 q 244 754 154 702 q 447 806 333 806 q 655 749 561 806 q 809 592 748 693 l 829 786 l 1015 786 l 974 393 l 1015 0 l 829 0 l 809 195 m 238 393 q 270 254 238 315 q 360 159 302 193 q 490 125 417 125 q 627 159 563 125 q 741 253 692 192 q 821 393 791 313 q 741 533 791 472 q 627 627 692 593 q 490 661 563 661 q 360 627 417 661 q 270 532 302 592 q 238 393 238 471 m 386 1108 q 438 1015 398 1049 q 536 982 477 982 q 635 1015 595 982 q 688 1108 675 1049 l 828 1108 q 736 929 812 993 q 536 865 660 865 q 337 929 413 865 q 244 1108 261 993 l 386 1108 m 488 1347 l 588 1122 l 447 1122 l 314 1347 l 488 1347 z "},"ẳ":{"ha":1093,"x_min":54,"x_max":1015,"o":"m 809 195 q 654 37 748 94 q 447 -19 560 -19 q 244 32 333 -19 q 104 178 154 84 q 54 393 54 272 q 104 608 54 515 q 244 754 154 702 q 447 806 333 806 q 655 749 561 806 q 809 592 748 693 l 829 786 l 1015 786 l 974 393 l 1015 0 l 829 0 l 809 195 m 238 393 q 270 254 238 315 q 360 159 302 193 q 490 125 417 125 q 627 159 563 125 q 741 253 692 192 q 821 393 791 313 q 741 533 791 472 q 627 627 692 593 q 490 661 563 661 q 360 627 417 661 q 270 532 302 592 q 238 393 238 471 m 386 1108 q 438 1015 398 1049 q 536 982 477 982 q 635 1015 595 982 q 688 1108 675 1049 l 828 1108 q 736 929 812 993 q 536 865 660 865 q 337 929 413 865 q 244 1108 261 993 l 386 1108 m 401 1378 q 529 1394 463 1394 q 666 1361 617 1394 q 715 1267 715 1327 q 666 1169 715 1210 q 524 1104 617 1127 l 485 1165 q 544 1198 524 1179 q 565 1239 565 1217 q 545 1274 565 1262 q 488 1286 525 1286 q 401 1275 446 1286 l 401 1378 z "},"ẵ":{"ha":1093,"x_min":54,"x_max":1015,"o":"m 809 195 q 654 37 748 94 q 447 -19 560 -19 q 244 32 333 -19 q 104 178 154 84 q 54 393 54 272 q 104 608 54 515 q 244 754 154 702 q 447 806 333 806 q 655 749 561 806 q 809 592 748 693 l 829 786 l 1015 786 l 974 393 l 1015 0 l 829 0 l 809 195 m 238 393 q 270 254 238 315 q 360 159 302 193 q 490 125 417 125 q 627 159 563 125 q 741 253 692 192 q 821 393 791 313 q 741 533 791 472 q 627 627 692 593 q 490 661 563 661 q 360 627 417 661 q 270 532 302 592 q 238 393 238 471 m 386 1108 q 438 1015 398 1049 q 536 982 477 982 q 635 1015 595 982 q 688 1108 675 1049 l 828 1108 q 736 929 812 993 q 536 865 660 865 q 337 929 413 865 q 244 1108 261 993 l 386 1108 m 263 1156 q 313 1308 269 1253 q 435 1364 356 1364 q 495 1352 467 1364 q 557 1318 522 1340 q 600 1294 584 1301 q 632 1286 616 1286 q 673 1306 656 1286 q 696 1363 690 1326 l 810 1363 q 760 1210 803 1265 q 638 1154 716 1154 q 578 1166 605 1154 q 515 1201 551 1178 q 473 1225 490 1217 q 440 1233 456 1233 q 399 1213 415 1233 q 376 1156 383 1192 l 263 1156 z "},"ǎ":{"ha":1093,"x_min":54,"x_max":1015,"o":"m 809 195 q 654 37 748 94 q 447 -19 560 -19 q 244 32 333 -19 q 104 178 154 84 q 54 393 54 272 q 104 608 54 515 q 244 754 154 702 q 447 806 333 806 q 655 749 561 806 q 809 592 748 693 l 829 786 l 1015 786 l 974 393 l 1015 0 l 829 0 l 809 195 m 238 393 q 270 254 238 315 q 360 159 302 193 q 490 125 417 125 q 627 159 563 125 q 741 253 692 192 q 821 393 791 313 q 741 533 791 472 q 627 627 692 593 q 490 661 563 661 q 360 627 417 661 q 270 532 302 592 q 238 393 238 471 m 439 871 l 240 1110 l 394 1110 l 536 967 l 676 1110 l 832 1110 l 633 871 l 439 871 z "},"â":{"ha":1093,"x_min":54,"x_max":1015,"o":"m 809 195 q 654 37 748 94 q 447 -19 560 -19 q 244 32 333 -19 q 104 178 154 84 q 54 393 54 272 q 104 608 54 515 q 244 754 154 702 q 447 806 333 806 q 655 749 561 806 q 809 592 748 693 l 829 786 l 1015 786 l 974 393 l 1015 0 l 829 0 l 809 195 m 238 393 q 270 254 238 315 q 360 159 302 193 q 490 125 417 125 q 627 159 563 125 q 741 253 692 192 q 821 393 791 313 q 741 533 791 472 q 627 627 692 593 q 490 661 563 661 q 360 627 417 661 q 270 532 302 592 q 238 393 238 471 m 633 1110 l 832 871 l 678 871 l 536 1013 l 396 871 l 240 871 l 439 1110 l 633 1110 z "},"ấ":{"ha":1093,"x_min":54,"x_max":1015,"o":"m 809 195 q 654 37 748 94 q 447 -19 560 -19 q 244 32 333 -19 q 104 178 154 84 q 54 393 54 272 q 104 608 54 515 q 244 754 154 702 q 447 806 333 806 q 655 749 561 806 q 809 592 748 693 l 829 786 l 1015 786 l 974 393 l 1015 0 l 829 0 l 809 195 m 238 393 q 270 254 238 315 q 360 159 302 193 q 490 125 417 125 q 627 159 563 125 q 741 253 692 192 q 821 393 791 313 q 741 533 791 472 q 627 627 692 593 q 490 661 563 661 q 360 627 417 661 q 270 532 302 592 q 238 393 238 471 m 633 1110 l 832 871 l 678 871 l 536 1013 l 396 871 l 240 871 l 439 1110 l 633 1110 m 840 1283 l 1014 1283 l 881 1058 l 740 1058 l 840 1283 z "},"ậ":{"ha":1093,"x_min":54,"x_max":1015,"o":"m 809 195 q 654 37 748 94 q 447 -19 560 -19 q 244 32 333 -19 q 104 178 154 84 q 54 393 54 272 q 104 608 54 515 q 244 754 154 702 q 447 806 333 806 q 655 749 561 806 q 809 592 748 693 l 829 786 l 1015 786 l 974 393 l 1015 0 l 829 0 l 809 195 m 238 393 q 270 254 238 315 q 360 159 302 193 q 490 125 417 125 q 627 159 563 125 q 741 253 692 192 q 821 393 791 313 q 741 533 791 472 q 627 627 692 593 q 490 661 563 661 q 360 627 417 661 q 270 532 302 592 q 238 393 238 471 m 538 -286 q 452 -258 485 -286 q 419 -183 419 -229 q 452 -109 419 -137 q 538 -81 485 -81 q 623 -109 590 -81 q 656 -183 656 -137 q 623 -258 656 -229 q 538 -286 590 -286 m 633 1110 l 832 871 l 678 871 l 536 1013 l 396 871 l 240 871 l 439 1110 l 633 1110 z "},"ầ":{"ha":1093,"x_min":54,"x_max":1015,"o":"m 809 195 q 654 37 748 94 q 447 -19 560 -19 q 244 32 333 -19 q 104 178 154 84 q 54 393 54 272 q 104 608 54 515 q 244 754 154 702 q 447 806 333 806 q 655 749 561 806 q 809 592 748 693 l 829 786 l 1015 786 l 974 393 l 1015 0 l 829 0 l 809 195 m 238 393 q 270 254 238 315 q 360 159 302 193 q 490 125 417 125 q 627 159 563 125 q 741 253 692 192 q 821 393 791 313 q 741 533 791 472 q 627 627 692 593 q 490 661 563 661 q 360 627 417 661 q 270 532 302 592 q 238 393 238 471 m 633 1110 l 832 871 l 678 871 l 536 1013 l 396 871 l 240 871 l 439 1110 l 633 1110 m 811 1283 l 911 1058 l 771 1058 l 638 1283 l 811 1283 z "},"ẩ":{"ha":1093,"x_min":54,"x_max":1015,"o":"m 809 195 q 654 37 748 94 q 447 -19 560 -19 q 244 32 333 -19 q 104 178 154 84 q 54 393 54 272 q 104 608 54 515 q 244 754 154 702 q 447 806 333 806 q 655 749 561 806 q 809 592 748 693 l 829 786 l 1015 786 l 974 393 l 1015 0 l 829 0 l 809 195 m 238 393 q 270 254 238 315 q 360 159 302 193 q 490 125 417 125 q 627 159 563 125 q 741 253 692 192 q 821 393 791 313 q 741 533 791 472 q 627 627 692 593 q 490 661 563 661 q 360 627 417 661 q 270 532 302 592 q 238 393 238 471 m 633 1110 l 832 871 l 678 871 l 536 1013 l 396 871 l 240 871 l 439 1110 l 633 1110 m 665 1319 q 793 1336 726 1336 q 930 1302 881 1336 q 979 1208 979 1269 q 930 1110 979 1152 q 788 1046 881 1069 l 749 1107 q 808 1140 788 1121 q 829 1181 829 1159 q 809 1216 829 1203 q 751 1228 789 1228 q 665 1217 710 1228 l 665 1319 z "},"ẫ":{"ha":1093,"x_min":54,"x_max":1015,"o":"m 809 195 q 654 37 748 94 q 447 -19 560 -19 q 244 32 333 -19 q 104 178 154 84 q 54 393 54 272 q 104 608 54 515 q 244 754 154 702 q 447 806 333 806 q 655 749 561 806 q 809 592 748 693 l 829 786 l 1015 786 l 974 393 l 1015 0 l 829 0 l 809 195 m 238 393 q 270 254 238 315 q 360 159 302 193 q 490 125 417 125 q 627 159 563 125 q 741 253 692 192 q 821 393 791 313 q 741 533 791 472 q 627 627 692 593 q 490 661 563 661 q 360 627 417 661 q 270 532 302 592 q 238 393 238 471 m 633 1110 l 832 871 l 678 871 l 536 1013 l 396 871 l 240 871 l 439 1110 l 633 1110 m 263 1157 q 313 1310 269 1254 q 435 1365 356 1365 q 495 1353 467 1365 q 557 1319 522 1342 q 600 1295 584 1303 q 632 1288 616 1288 q 673 1308 656 1288 q 696 1364 690 1328 l 810 1364 q 760 1211 803 1267 q 638 1156 716 1156 q 578 1167 605 1156 q 515 1202 551 1179 q 473 1227 490 1219 q 440 1235 456 1235 q 399 1214 415 1235 q 376 1157 383 1194 l 263 1157 z "},"ȁ":{"ha":1093,"x_min":54,"x_max":1015,"o":"m 809 195 q 654 37 748 94 q 447 -19 560 -19 q 244 32 333 -19 q 104 178 154 84 q 54 393 54 272 q 104 608 54 515 q 244 754 154 702 q 447 806 333 806 q 655 749 561 806 q 809 592 748 693 l 829 786 l 1015 786 l 974 393 l 1015 0 l 829 0 l 809 195 m 238 393 q 270 254 238 315 q 360 159 302 193 q 490 125 417 125 q 627 159 563 125 q 741 253 692 192 q 821 393 791 313 q 741 533 791 472 q 627 627 692 593 q 490 661 563 661 q 360 627 417 661 q 270 532 302 592 q 238 393 238 471 m 757 871 l 596 871 l 438 1110 l 606 1110 l 757 871 m 324 1110 l 474 871 l 314 871 l 154 1110 l 324 1110 z "},"ä":{"ha":1093,"x_min":54,"x_max":1015,"o":"m 809 195 q 654 37 748 94 q 447 -19 560 -19 q 244 32 333 -19 q 104 178 154 84 q 54 393 54 272 q 104 608 54 515 q 244 754 154 702 q 447 806 333 806 q 655 749 561 806 q 809 592 748 693 l 829 786 l 1015 786 l 974 393 l 1015 0 l 829 0 l 809 195 m 238 393 q 270 254 238 315 q 360 159 302 193 q 490 125 417 125 q 627 159 563 125 q 741 253 692 192 q 821 393 791 313 q 741 533 791 472 q 627 627 692 593 q 490 661 563 661 q 360 627 417 661 q 270 532 302 592 q 238 393 238 471 m 333 890 q 252 917 283 890 q 221 990 221 944 q 252 1061 221 1034 q 333 1089 283 1089 q 415 1061 383 1089 q 446 990 446 1034 q 415 917 446 944 q 333 890 384 890 m 628 990 q 659 1061 628 1034 q 740 1089 690 1089 q 820 1061 790 1089 q 851 990 851 1034 q 820 918 851 945 q 740 890 790 890 q 659 917 690 890 q 628 990 628 944 z "},"ǟ":{"ha":1093,"x_min":54,"x_max":1015,"o":"m 809 195 q 654 37 748 94 q 447 -19 560 -19 q 244 32 333 -19 q 104 178 154 84 q 54 393 54 272 q 104 608 54 515 q 244 754 154 702 q 447 806 333 806 q 655 749 561 806 q 809 592 748 693 l 829 786 l 1015 786 l 974 393 l 1015 0 l 829 0 l 809 195 m 238 393 q 270 254 238 315 q 360 159 302 193 q 490 125 417 125 q 627 159 563 125 q 741 253 692 192 q 821 393 791 313 q 741 533 791 472 q 627 627 692 593 q 490 661 563 661 q 360 627 417 661 q 270 532 302 592 q 238 393 238 471 m 333 890 q 252 917 283 890 q 221 990 221 944 q 252 1061 221 1034 q 333 1089 283 1089 q 415 1061 383 1089 q 446 990 446 1034 q 415 917 446 944 q 333 890 384 890 m 236 1285 l 836 1285 l 836 1165 l 236 1165 l 236 1285 m 628 990 q 659 1061 628 1034 q 740 1089 690 1089 q 820 1061 790 1089 q 851 990 851 1034 q 820 918 851 945 q 740 890 790 890 q 659 917 690 890 q 628 990 628 944 z "},"ȧ":{"ha":1093,"x_min":54,"x_max":1015,"o":"m 809 195 q 654 37 748 94 q 447 -19 560 -19 q 244 32 333 -19 q 104 178 154 84 q 54 393 54 272 q 104 608 54 515 q 244 754 154 702 q 447 806 333 806 q 655 749 561 806 q 809 592 748 693 l 829 786 l 1015 786 l 974 393 l 1015 0 l 829 0 l 809 195 m 238 393 q 270 254 238 315 q 360 159 302 193 q 490 125 417 125 q 627 159 563 125 q 741 253 692 192 q 821 393 791 313 q 741 533 791 472 q 627 627 692 593 q 490 661 563 661 q 360 627 417 661 q 270 532 302 592 q 238 393 238 471 m 536 890 q 451 919 484 890 q 418 993 418 947 q 451 1067 418 1039 q 536 1096 484 1096 q 621 1067 588 1096 q 654 993 654 1039 q 621 919 654 947 q 536 890 588 890 z "},"ạ":{"ha":1093,"x_min":54,"x_max":1015,"o":"m 809 195 q 654 37 748 94 q 447 -19 560 -19 q 244 32 333 -19 q 104 178 154 84 q 54 393 54 272 q 104 608 54 515 q 244 754 154 702 q 447 806 333 806 q 655 749 561 806 q 809 592 748 693 l 829 786 l 1015 786 l 974 393 l 1015 0 l 829 0 l 809 195 m 238 393 q 270 254 238 315 q 360 159 302 193 q 490 125 417 125 q 627 159 563 125 q 741 253 692 192 q 821 393 791 313 q 741 533 791 472 q 627 627 692 593 q 490 661 563 661 q 360 627 417 661 q 270 532 302 592 q 238 393 238 471 m 538 -286 q 452 -258 485 -286 q 419 -183 419 -229 q 452 -109 419 -137 q 538 -81 485 -81 q 623 -109 590 -81 q 656 -183 656 -137 q 623 -258 656 -229 q 538 -286 590 -286 z "},"ǡ":{"ha":1093,"x_min":54,"x_max":1015,"o":"m 809 195 q 654 37 748 94 q 447 -19 560 -19 q 244 32 333 -19 q 104 178 154 84 q 54 393 54 272 q 104 608 54 515 q 244 754 154 702 q 447 806 333 806 q 655 749 561 806 q 809 592 748 693 l 829 786 l 1015 786 l 974 393 l 1015 0 l 829 0 l 809 195 m 238 393 q 270 254 238 315 q 360 159 302 193 q 490 125 417 125 q 627 159 563 125 q 741 253 692 192 q 821 393 791 313 q 741 533 791 472 q 627 627 692 593 q 490 661 563 661 q 360 627 417 661 q 270 532 302 592 q 238 393 238 471 m 536 890 q 451 919 484 890 q 418 993 418 947 q 451 1067 418 1039 q 536 1096 484 1096 q 621 1067 588 1096 q 654 993 654 1039 q 621 919 654 947 q 536 890 588 890 m 236 1285 l 836 1285 l 836 1165 l 236 1165 l 236 1285 z "},"à":{"ha":1093,"x_min":54,"x_max":1015,"o":"m 809 195 q 654 37 748 94 q 447 -19 560 -19 q 244 32 333 -19 q 104 178 154 84 q 54 393 54 272 q 104 608 54 515 q 244 754 154 702 q 447 806 333 806 q 655 749 561 806 q 809 592 748 693 l 829 786 l 1015 786 l 974 393 l 1015 0 l 829 0 l 809 195 m 238 393 q 270 254 238 315 q 360 159 302 193 q 490 125 417 125 q 627 159 563 125 q 741 253 692 192 q 821 393 791 313 q 741 533 791 472 q 627 627 692 593 q 490 661 563 661 q 360 627 417 661 q 270 532 302 592 q 238 393 238 471 m 642 871 l 468 871 l 292 1110 l 472 1110 l 642 871 z "},"ả":{"ha":1093,"x_min":54,"x_max":1015,"o":"m 809 195 q 654 37 748 94 q 447 -19 560 -19 q 244 32 333 -19 q 104 178 154 84 q 54 393 54 272 q 104 608 54 515 q 244 754 154 702 q 447 806 333 806 q 655 749 561 806 q 809 592 748 693 l 829 786 l 1015 786 l 974 393 l 1015 0 l 829 0 l 809 195 m 238 393 q 270 254 238 315 q 360 159 302 193 q 490 125 417 125 q 627 159 563 125 q 741 253 692 192 q 821 393 791 313 q 741 533 791 472 q 627 627 692 593 q 490 661 563 661 q 360 627 417 661 q 270 532 302 592 q 238 393 238 471 m 460 915 q 528 949 504 928 q 553 996 553 969 q 530 1034 553 1021 q 464 1047 507 1047 q 367 1036 415 1047 l 367 1144 q 503 1161 431 1161 q 650 1125 597 1161 q 703 1025 703 1089 q 653 918 703 962 q 499 851 603 875 l 460 915 z "},"ȃ":{"ha":1093,"x_min":54,"x_max":1015,"o":"m 809 195 q 654 37 748 94 q 447 -19 560 -19 q 244 32 333 -19 q 104 178 154 84 q 54 393 54 272 q 104 608 54 515 q 244 754 154 702 q 447 806 333 806 q 655 749 561 806 q 809 592 748 693 l 829 786 l 1015 786 l 974 393 l 1015 0 l 829 0 l 809 195 m 238 393 q 270 254 238 315 q 360 159 302 193 q 490 125 417 125 q 627 159 563 125 q 741 253 692 192 q 821 393 791 313 q 741 533 791 472 q 627 627 692 593 q 490 661 563 661 q 360 627 417 661 q 270 532 302 592 q 238 393 238 471 m 686 871 q 635 964 674 931 q 536 997 595 997 q 437 964 477 997 q 385 871 397 931 l 244 871 q 336 1050 260 986 q 536 1114 412 1114 q 735 1050 659 1114 q 828 871 811 986 l 686 871 z "},"ɑ":{"ha":1093,"x_min":54,"x_max":1015,"o":"m 809 195 q 654 37 748 94 q 447 -19 560 -19 q 244 32 333 -19 q 104 178 154 84 q 54 393 54 272 q 104 608 54 515 q 244 754 154 702 q 447 806 333 806 q 655 749 561 806 q 809 592 748 693 l 829 786 l 1015 786 l 974 393 l 1015 0 l 829 0 l 809 195 m 238 393 q 270 254 238 315 q 360 159 302 193 q 490 125 417 125 q 627 159 563 125 q 741 253 692 192 q 821 393 791 313 q 741 533 791 472 q 627 627 692 593 q 490 661 563 661 q 360 627 417 661 q 270 532 302 592 q 238 393 238 471 z "},"ɒ":{"ha":1093,"x_min":78,"x_max":1039,"o":"m 78 0 l 119 393 l 78 786 l 264 786 l 284 592 q 439 749 345 693 q 646 806 532 806 q 849 754 760 806 q 989 608 939 702 q 1039 393 1039 515 q 989 178 1039 272 q 849 32 939 84 q 646 -19 760 -19 q 439 37 533 -19 q 284 195 345 94 l 264 0 l 78 0 m 272 393 q 352 253 302 313 q 466 159 401 192 q 603 125 530 125 q 733 159 676 125 q 823 254 791 193 q 856 393 856 315 q 823 532 856 471 q 733 627 791 592 q 603 661 676 661 q 466 627 530 661 q 352 533 401 593 q 272 393 302 472 z "},"ā":{"ha":1093,"x_min":54,"x_max":1015,"o":"m 809 195 q 654 37 748 94 q 447 -19 560 -19 q 244 32 333 -19 q 104 178 154 84 q 54 393 54 272 q 104 608 54 515 q 244 754 154 702 q 447 806 333 806 q 655 749 561 806 q 809 592 748 693 l 829 786 l 1015 786 l 974 393 l 1015 0 l 829 0 l 809 195 m 238 393 q 270 254 238 315 q 360 159 302 193 q 490 125 417 125 q 627 159 563 125 q 741 253 692 192 q 821 393 791 313 q 741 533 791 472 q 627 627 692 593 q 490 661 563 661 q 360 627 417 661 q 270 532 302 592 q 238 393 238 471 m 236 1044 l 836 1044 l 836 925 l 236 925 l 236 1044 z "},"ą":{"ha":1093,"x_min":54,"x_max":1015,"o":"m 809 195 q 654 37 748 94 q 447 -19 560 -19 q 244 32 333 -19 q 104 178 154 84 q 54 393 54 272 q 104 608 54 515 q 244 754 154 702 q 447 806 333 806 q 655 749 561 806 q 809 592 748 693 l 829 786 l 1015 786 l 974 393 l 1015 0 q 846 -108 846 -53 q 931 -150 846 -150 q 1015 -142 980 -150 l 1015 -257 q 961 -269 997 -264 q 889 -274 925 -274 q 791 -257 833 -274 q 725 -211 748 -241 q 701 -142 701 -181 q 835 0 701 -54 l 829 0 l 809 195 m 238 393 q 270 254 238 315 q 360 159 302 193 q 490 125 417 125 q 627 159 563 125 q 741 253 692 192 q 821 393 791 313 q 741 533 791 472 q 627 627 692 593 q 490 661 563 661 q 360 627 417 661 q 270 532 302 592 q 238 393 238 471 z "},"ẚ":{"ha":1093,"x_min":54,"x_max":1015,"o":"m 809 195 q 654 37 748 94 q 447 -19 560 -19 q 244 32 333 -19 q 104 178 154 84 q 54 393 54 272 q 104 608 54 515 q 244 754 154 702 q 447 806 333 806 q 655 749 561 806 q 809 592 748 693 l 829 786 l 1015 786 l 974 393 l 1015 0 l 829 0 l 809 195 m 238 393 q 270 254 238 315 q 360 159 302 193 q 490 125 417 125 q 627 159 563 125 q 741 253 692 192 q 821 393 791 313 q 741 533 791 472 q 627 627 692 593 q 490 661 563 661 q 360 627 417 661 q 270 532 302 592 q 238 393 238 471 m 536 944 q 617 966 588 944 q 646 1026 646 987 q 617 1088 646 1066 q 536 1110 588 1110 l 536 1196 q 653 1175 603 1196 q 729 1117 703 1155 q 756 1026 756 1078 q 729 936 756 974 q 653 877 703 898 q 536 857 603 857 l 536 944 z "},"å":{"ha":1093,"x_min":54,"x_max":1015,"o":"m 809 195 q 654 37 748 94 q 447 -19 560 -19 q 244 32 333 -19 q 104 178 154 84 q 54 393 54 272 q 104 608 54 515 q 244 754 154 702 q 447 806 333 806 q 655 749 561 806 q 809 592 748 693 l 829 786 l 1015 786 l 974 393 l 1015 0 l 829 0 l 809 195 m 238 393 q 270 254 238 315 q 360 159 302 193 q 490 125 417 125 q 627 159 563 125 q 741 253 692 192 q 821 393 791 313 q 741 533 791 472 q 627 627 692 593 q 490 661 563 661 q 360 627 417 661 q 270 532 302 592 q 238 393 238 471 m 536 857 q 419 877 469 857 q 342 936 369 898 q 315 1026 315 975 q 342 1116 315 1078 q 419 1175 369 1155 q 536 1196 469 1196 q 653 1175 603 1196 q 729 1117 703 1155 q 756 1026 756 1078 q 729 936 756 974 q 653 877 703 898 q 536 857 603 857 m 426 1026 q 455 966 426 987 q 536 944 484 944 q 617 966 588 944 q 646 1026 646 987 q 617 1088 646 1066 q 536 1110 588 1110 q 455 1088 484 1110 q 426 1026 426 1066 z "},"ǻ":{"ha":1093,"x_min":54,"x_max":1015,"o":"m 809 195 q 654 37 748 94 q 447 -19 560 -19 q 244 32 333 -19 q 104 178 154 84 q 54 393 54 272 q 104 608 54 515 q 244 754 154 702 q 447 806 333 806 q 655 749 561 806 q 809 592 748 693 l 829 786 l 1015 786 l 974 393 l 1015 0 l 829 0 l 809 195 m 238 393 q 270 254 238 315 q 360 159 302 193 q 490 125 417 125 q 627 159 563 125 q 741 253 692 192 q 821 393 791 313 q 741 533 791 472 q 627 627 692 593 q 490 661 563 661 q 360 627 417 661 q 270 532 302 592 q 238 393 238 471 m 315 1026 q 355 1133 315 1090 q 467 1190 395 1176 l 560 1399 l 733 1399 l 609 1189 q 717 1132 678 1174 q 756 1026 756 1089 q 729 936 756 974 q 653 877 703 898 q 536 857 603 857 q 419 877 469 857 q 342 936 369 898 q 315 1026 315 975 m 426 1026 q 455 966 426 987 q 536 944 484 944 q 617 966 588 944 q 646 1026 646 987 q 617 1088 646 1066 q 536 1110 588 1110 q 455 1088 484 1110 q 426 1026 426 1066 z "},"ḁ":{"ha":1093,"x_min":54,"x_max":1015,"o":"m 809 195 q 654 37 748 94 q 447 -19 560 -19 q 244 32 333 -19 q 104 178 154 84 q 54 393 54 272 q 104 608 54 515 q 244 754 154 702 q 447 806 333 806 q 655 749 561 806 q 809 592 748 693 l 829 786 l 1015 786 l 974 393 l 1015 0 l 829 0 l 809 195 m 238 393 q 270 254 238 315 q 360 159 302 193 q 490 125 417 125 q 627 159 563 125 q 741 253 692 192 q 821 393 791 313 q 741 533 791 472 q 627 627 692 593 q 490 661 563 661 q 360 627 417 661 q 270 532 302 592 q 238 393 238 471 m 538 -397 q 420 -377 470 -397 q 343 -318 370 -356 q 317 -228 317 -279 q 343 -138 317 -176 q 420 -79 370 -99 q 538 -58 470 -58 q 655 -79 605 -58 q 731 -137 704 -99 q 757 -228 757 -176 q 731 -318 757 -280 q 655 -377 704 -356 q 538 -397 605 -397 m 428 -228 q 457 -289 428 -267 q 538 -310 485 -310 q 618 -289 590 -310 q 647 -228 647 -267 q 618 -166 647 -188 q 538 -144 590 -144 q 457 -166 485 -144 q 428 -228 428 -188 z "},"ⱥ":{"ha":1003,"x_min":64,"x_max":910,"o":"m 806 953 l 732 754 q 864 634 817 711 q 910 449 910 557 l 910 0 l 731 0 l 731 117 q 608 27 681 65 q 446 -17 534 -10 l 390 -167 l 257 -167 l 315 -12 q 184 36 240 1 q 95 125 127 72 q 64 246 64 178 q 109 385 64 325 q 231 478 153 446 q 404 511 308 511 q 505 501 457 511 l 560 649 q 446 661 508 661 q 283 641 365 661 q 131 578 202 621 l 131 718 q 298 784 211 763 q 485 806 385 806 q 613 794 552 806 l 672 953 l 806 953 m 247 246 q 278 169 247 201 q 364 121 308 136 l 460 381 q 347 364 395 381 q 273 316 299 347 q 247 246 247 285 m 493 111 q 736 247 643 123 q 585 360 674 328 l 493 111 m 622 459 q 729 380 684 427 l 729 447 q 672 593 729 539 l 622 459 z "},"ã":{"ha":1093,"x_min":54,"x_max":1015,"o":"m 809 195 q 654 37 748 94 q 447 -19 560 -19 q 244 32 333 -19 q 104 178 154 84 q 54 393 54 272 q 104 608 54 515 q 244 754 154 702 q 447 806 333 806 q 655 749 561 806 q 809 592 748 693 l 829 786 l 1015 786 l 974 393 l 1015 0 l 829 0 l 809 195 m 238 393 q 270 254 238 315 q 360 159 302 193 q 490 125 417 125 q 627 159 563 125 q 741 253 692 192 q 821 393 791 313 q 741 533 791 472 q 627 627 692 593 q 490 661 563 661 q 360 627 417 661 q 270 532 302 592 q 238 393 238 471 m 221 890 q 274 1052 227 994 q 403 1111 320 1111 q 470 1099 438 1111 q 551 1065 503 1088 q 608 1039 585 1048 q 649 1031 630 1031 q 699 1051 678 1031 q 725 1110 719 1072 l 851 1110 q 800 950 846 1010 q 669 890 754 890 q 600 902 634 890 q 520 938 567 915 q 464 963 485 954 q 425 971 443 971 q 374 950 394 971 q 347 890 353 928 l 221 890 z "},"ɐ":{"ha":971,"x_min":85,"x_max":931,"o":"m 260 339 q 333 181 260 238 q 547 125 406 125 q 711 145 631 125 q 861 208 791 165 l 861 68 q 695 2 782 23 q 510 -19 609 -19 q 286 21 382 -19 q 138 142 190 62 q 85 338 85 222 l 85 786 l 257 786 l 257 667 q 398 766 312 727 q 589 806 485 806 q 764 774 686 806 q 886 682 842 742 q 931 544 931 623 q 885 407 931 467 q 763 316 840 348 q 589 283 685 283 q 400 320 486 283 q 260 415 315 357 l 260 339 m 254 544 q 539 404 363 404 q 650 422 603 404 q 722 471 697 440 q 747 544 747 503 q 722 619 747 587 q 649 668 697 651 q 539 685 602 685 q 379 651 450 685 q 254 544 308 617 z "},"æ":{"ha":1740,"x_min":54,"x_max":1689,"o":"m 1310 -19 q 1100 24 1193 -19 q 949 144 1007 67 l 944 0 l 810 0 l 801 183 q 649 34 740 87 q 447 -19 558 -19 q 244 32 333 -19 q 104 178 154 84 q 54 393 54 272 q 104 608 54 515 q 244 754 154 702 q 447 806 333 806 q 648 753 557 806 q 801 605 740 701 l 810 786 l 944 786 l 949 651 q 1088 765 1003 725 q 1281 806 1173 806 q 1501 744 1408 806 q 1641 577 1594 683 q 1686 340 1689 472 l 1006 340 q 1107 179 1025 236 q 1325 122 1189 122 q 1499 149 1413 122 q 1665 231 1585 176 l 1665 100 q 1500 12 1590 44 q 1310 -19 1410 -19 m 238 393 q 270 254 238 315 q 360 159 302 193 q 490 125 417 125 q 627 159 563 125 q 741 253 692 192 q 821 393 791 313 q 741 533 791 472 q 627 627 692 593 q 490 661 563 661 q 360 627 417 661 q 270 532 302 592 q 238 393 238 471 m 1516 465 q 1432 614 1496 562 q 1260 667 1367 667 q 1140 643 1194 667 q 1052 574 1087 619 q 1006 465 1017 528 l 1516 465 z "},"ǽ":{"ha":1740,"x_min":54,"x_max":1689,"o":"m 1310 -19 q 1100 24 1193 -19 q 949 144 1007 67 l 944 0 l 810 0 l 801 183 q 649 34 740 87 q 447 -19 558 -19 q 244 32 333 -19 q 104 178 154 84 q 54 393 54 272 q 104 608 54 515 q 244 754 154 702 q 447 806 333 806 q 648 753 557 806 q 801 605 740 701 l 810 786 l 944 786 l 949 651 q 1088 765 1003 725 q 1281 806 1173 806 q 1501 744 1408 806 q 1641 577 1594 683 q 1686 340 1689 472 l 1006 340 q 1107 179 1025 236 q 1325 122 1189 122 q 1499 149 1413 122 q 1665 231 1585 176 l 1665 100 q 1500 12 1590 44 q 1310 -19 1410 -19 m 238 393 q 270 254 238 315 q 360 159 302 193 q 490 125 417 125 q 627 159 563 125 q 741 253 692 192 q 821 393 791 313 q 741 533 791 472 q 627 627 692 593 q 490 661 563 661 q 360 627 417 661 q 270 532 302 592 q 238 393 238 471 m 1516 465 q 1432 614 1496 562 q 1260 667 1367 667 q 1140 643 1194 667 q 1052 574 1087 619 q 1006 465 1017 528 l 1516 465 m 1121 1110 l 944 871 l 771 871 l 940 1110 l 1121 1110 z "},"ǣ":{"ha":1740,"x_min":54,"x_max":1689,"o":"m 1310 -19 q 1100 24 1193 -19 q 949 144 1007 67 l 944 0 l 810 0 l 801 183 q 649 34 740 87 q 447 -19 558 -19 q 244 32 333 -19 q 104 178 154 84 q 54 393 54 272 q 104 608 54 515 q 244 754 154 702 q 447 806 333 806 q 648 753 557 806 q 801 605 740 701 l 810 786 l 944 786 l 949 651 q 1088 765 1003 725 q 1281 806 1173 806 q 1501 744 1408 806 q 1641 577 1594 683 q 1686 340 1689 472 l 1006 340 q 1107 179 1025 236 q 1325 122 1189 122 q 1499 149 1413 122 q 1665 231 1585 176 l 1665 100 q 1500 12 1590 44 q 1310 -19 1410 -19 m 238 393 q 270 254 238 315 q 360 159 302 193 q 490 125 417 125 q 627 159 563 125 q 741 253 692 192 q 821 393 791 313 q 741 533 791 472 q 627 627 692 593 q 490 661 563 661 q 360 627 417 661 q 270 532 302 592 q 238 393 238 471 m 1516 465 q 1432 614 1496 562 q 1260 667 1367 667 q 1140 643 1194 667 q 1052 574 1087 619 q 1006 465 1017 528 l 1516 465 m 576 1044 l 1176 1044 l 1176 925 l 576 925 l 576 1044 z "},"b":{"ha":1089,"x_min":96,"x_max":1035,"o":"m 276 1069 l 276 586 q 432 748 338 690 q 642 806 526 806 q 845 754 756 806 q 985 608 935 702 q 1035 393 1035 515 q 985 178 1035 272 q 845 32 935 84 q 642 -19 756 -19 q 432 39 526 -19 q 276 202 338 97 l 276 0 l 96 0 l 96 1069 l 276 1069 m 268 393 q 348 253 298 313 q 461 159 397 192 q 599 125 526 125 q 729 159 672 125 q 819 254 787 193 q 851 393 851 315 q 819 532 851 471 q 729 627 787 592 q 599 661 672 661 q 461 627 526 661 q 348 533 397 593 q 268 393 298 472 z "},"ḃ":{"ha":1089,"x_min":96,"x_max":1035,"o":"m 276 1069 l 276 586 q 432 748 338 690 q 642 806 526 806 q 845 754 756 806 q 985 608 935 702 q 1035 393 1035 515 q 985 178 1035 272 q 845 32 935 84 q 642 -19 756 -19 q 432 39 526 -19 q 276 202 338 97 l 276 0 l 96 0 l 96 1069 l 276 1069 m 268 393 q 348 253 298 313 q 461 159 397 192 q 599 125 526 125 q 729 159 672 125 q 819 254 787 193 q 851 393 851 315 q 819 532 851 471 q 729 627 787 592 q 599 661 672 661 q 461 627 526 661 q 348 533 397 593 q 268 393 298 472 m 542 1174 q 457 1202 490 1174 q 424 1276 424 1231 q 457 1351 424 1322 q 542 1381 490 1381 q 627 1351 594 1381 q 660 1276 660 1322 q 627 1202 660 1231 q 542 1174 594 1174 z "},"ḅ":{"ha":1089,"x_min":96,"x_max":1035,"o":"m 276 1069 l 276 586 q 432 748 338 690 q 642 806 526 806 q 845 754 756 806 q 985 608 935 702 q 1035 393 1035 515 q 985 178 1035 272 q 845 32 935 84 q 642 -19 756 -19 q 432 39 526 -19 q 276 202 338 97 l 276 0 l 96 0 l 96 1069 l 276 1069 m 268 393 q 348 253 298 313 q 461 159 397 192 q 599 125 526 125 q 729 159 672 125 q 819 254 787 193 q 851 393 851 315 q 819 532 851 471 q 729 627 787 592 q 599 661 672 661 q 461 627 526 661 q 348 533 397 593 q 268 393 298 472 m 556 -286 q 470 -258 503 -286 q 438 -183 438 -229 q 470 -109 438 -137 q 556 -81 503 -81 q 641 -109 608 -81 q 674 -183 674 -137 q 641 -258 674 -229 q 556 -286 608 -286 z "},"ꞵ":{"ha":1121,"x_min":94,"x_max":1074,"o":"m 94 660 q 151 886 94 789 q 313 1036 208 983 q 563 1089 419 1089 q 771 1056 680 1089 q 913 962 863 1023 q 964 821 964 901 q 908 673 964 735 q 749 581 851 610 q 990 491 906 565 q 1074 297 1074 417 q 1021 132 1074 204 q 872 20 969 60 q 647 -19 775 -19 q 275 138 385 -19 l 275 -229 l 94 -229 l 94 660 m 275 442 q 317 262 275 335 q 435 153 358 189 q 617 117 511 117 q 763 140 701 117 q 858 205 825 163 q 890 304 890 247 q 820 441 890 390 q 604 493 749 493 l 493 493 l 493 621 l 567 621 q 685 641 635 621 q 761 697 735 661 q 788 781 788 733 q 758 870 788 832 q 676 928 729 908 q 553 949 624 949 q 404 915 467 949 q 308 820 342 881 q 275 675 275 758 l 275 442 z "},"ɓ":{"ha":1090,"x_min":96,"x_max":1036,"o":"m 96 768 q 179 1009 96 928 q 449 1089 262 1089 q 565 1078 508 1089 q 664 1050 621 1067 l 664 901 q 475 940 577 940 q 323 892 369 940 q 276 740 276 844 l 276 568 q 432 728 337 671 q 643 785 527 785 q 847 734 758 785 q 986 592 936 683 q 1036 382 1036 501 q 986 173 1036 264 q 847 31 936 82 q 643 -19 757 -19 q 432 38 527 -19 q 276 199 338 96 l 276 0 l 96 0 l 96 768 m 269 382 q 349 248 299 306 q 463 157 399 190 q 600 125 527 125 q 731 158 673 125 q 820 249 788 190 q 853 382 853 307 q 820 516 853 457 q 731 608 788 575 q 600 640 673 640 q 463 608 527 640 q 349 517 399 576 q 269 382 299 459 z "},"ʘ":{"ha":1283,"x_min":57,"x_max":1226,"o":"m 642 -19 q 336 50 469 -19 q 130 245 203 119 q 57 535 57 372 q 130 824 57 698 q 336 1019 203 950 q 642 1089 469 1089 q 947 1019 814 1089 q 1153 824 1080 950 q 1226 535 1226 698 q 1153 245 1226 372 q 947 50 1080 119 q 642 -19 814 -19 m 240 535 q 289 316 240 410 q 429 173 338 223 q 642 122 519 122 q 855 173 764 122 q 994 316 945 223 q 1043 535 1043 410 q 994 753 1043 660 q 855 897 945 847 q 642 947 764 947 q 429 897 519 947 q 289 753 338 847 q 240 535 240 660 m 539 535 q 552 587 539 563 q 590 624 566 610 q 642 638 613 638 q 694 624 670 638 q 731 587 717 610 q 744 535 744 563 q 731 483 744 506 q 694 445 717 459 q 642 432 670 432 q 590 445 613 432 q 552 483 566 459 q 539 535 539 506 z "}}}
